%TF.GenerationSoftware,KiCad,Pcbnew,9.0.1*%
%TF.CreationDate,2026-09-25T23:59:13+03:00*%
%TF.ProjectId,weather-station,77656174-6865-4722-9d73-746174696f6e,rev?*%
%TF.SameCoordinates,Original*%
%TF.FileFunction,Legend,Top*%
%TF.FilePolarity,Positive*%
%FSLAX46Y46*%
G04 Gerber Fmt 4.6, Leading zero omitted, Abs format (unit mm)*
G04 Created by KiCad (PCBNEW 9.0.1) date 2026-09-25 23:59:13*
%MOMM*%
%LPD*%
G01*
G04 APERTURE LIST*
%ADD10C,0.150000*%
%ADD11C,0.100000*%
%ADD12C,0.120000*%
%ADD13C,0.152400*%
G04 APERTURE END LIST*
D10*
X94373866Y-49180951D02*
X94373866Y-48419047D01*
X94473866Y-41580951D02*
X94473866Y-40819047D01*
X94854819Y-41199999D02*
X94092914Y-41199999D01*
D11*
X116216667Y-46702300D02*
X116288095Y-46726109D01*
X116288095Y-46726109D02*
X116407143Y-46726109D01*
X116407143Y-46726109D02*
X116454762Y-46702300D01*
X116454762Y-46702300D02*
X116478571Y-46678490D01*
X116478571Y-46678490D02*
X116502381Y-46630871D01*
X116502381Y-46630871D02*
X116502381Y-46583252D01*
X116502381Y-46583252D02*
X116478571Y-46535633D01*
X116478571Y-46535633D02*
X116454762Y-46511823D01*
X116454762Y-46511823D02*
X116407143Y-46488014D01*
X116407143Y-46488014D02*
X116311905Y-46464204D01*
X116311905Y-46464204D02*
X116264286Y-46440395D01*
X116264286Y-46440395D02*
X116240476Y-46416585D01*
X116240476Y-46416585D02*
X116216667Y-46368966D01*
X116216667Y-46368966D02*
X116216667Y-46321347D01*
X116216667Y-46321347D02*
X116240476Y-46273728D01*
X116240476Y-46273728D02*
X116264286Y-46249919D01*
X116264286Y-46249919D02*
X116311905Y-46226109D01*
X116311905Y-46226109D02*
X116430952Y-46226109D01*
X116430952Y-46226109D02*
X116502381Y-46249919D01*
X116716666Y-46726109D02*
X116716666Y-46226109D01*
X116716666Y-46464204D02*
X117002380Y-46464204D01*
X117002380Y-46726109D02*
X117002380Y-46226109D01*
X117169048Y-46226109D02*
X117454762Y-46226109D01*
X117311905Y-46726109D02*
X117311905Y-46226109D01*
X117907142Y-46678490D02*
X117883333Y-46702300D01*
X117883333Y-46702300D02*
X117811904Y-46726109D01*
X117811904Y-46726109D02*
X117764285Y-46726109D01*
X117764285Y-46726109D02*
X117692857Y-46702300D01*
X117692857Y-46702300D02*
X117645238Y-46654680D01*
X117645238Y-46654680D02*
X117621428Y-46607061D01*
X117621428Y-46607061D02*
X117597619Y-46511823D01*
X117597619Y-46511823D02*
X117597619Y-46440395D01*
X117597619Y-46440395D02*
X117621428Y-46345157D01*
X117621428Y-46345157D02*
X117645238Y-46297538D01*
X117645238Y-46297538D02*
X117692857Y-46249919D01*
X117692857Y-46249919D02*
X117764285Y-46226109D01*
X117764285Y-46226109D02*
X117811904Y-46226109D01*
X117811904Y-46226109D02*
X117883333Y-46249919D01*
X117883333Y-46249919D02*
X117907142Y-46273728D01*
X118073809Y-46226109D02*
X118383333Y-46226109D01*
X118383333Y-46226109D02*
X118216666Y-46416585D01*
X118216666Y-46416585D02*
X118288095Y-46416585D01*
X118288095Y-46416585D02*
X118335714Y-46440395D01*
X118335714Y-46440395D02*
X118359523Y-46464204D01*
X118359523Y-46464204D02*
X118383333Y-46511823D01*
X118383333Y-46511823D02*
X118383333Y-46630871D01*
X118383333Y-46630871D02*
X118359523Y-46678490D01*
X118359523Y-46678490D02*
X118335714Y-46702300D01*
X118335714Y-46702300D02*
X118288095Y-46726109D01*
X118288095Y-46726109D02*
X118145238Y-46726109D01*
X118145238Y-46726109D02*
X118097619Y-46702300D01*
X118097619Y-46702300D02*
X118073809Y-46678490D01*
D10*
X89768990Y-81576190D02*
X89768990Y-81909523D01*
X89245180Y-82052380D02*
X89245180Y-81576190D01*
X89245180Y-81576190D02*
X90245180Y-81576190D01*
X90245180Y-81576190D02*
X90245180Y-82052380D01*
X89245180Y-82480952D02*
X90245180Y-82480952D01*
X90245180Y-82480952D02*
X89245180Y-83052380D01*
X89245180Y-83052380D02*
X90245180Y-83052380D01*
X89530895Y-83480952D02*
X89530895Y-83957142D01*
X89245180Y-83385714D02*
X90245180Y-83719047D01*
X90245180Y-83719047D02*
X89245180Y-84052380D01*
X89768990Y-84719047D02*
X89721371Y-84861904D01*
X89721371Y-84861904D02*
X89673752Y-84909523D01*
X89673752Y-84909523D02*
X89578514Y-84957142D01*
X89578514Y-84957142D02*
X89435657Y-84957142D01*
X89435657Y-84957142D02*
X89340419Y-84909523D01*
X89340419Y-84909523D02*
X89292800Y-84861904D01*
X89292800Y-84861904D02*
X89245180Y-84766666D01*
X89245180Y-84766666D02*
X89245180Y-84385714D01*
X89245180Y-84385714D02*
X90245180Y-84385714D01*
X90245180Y-84385714D02*
X90245180Y-84719047D01*
X90245180Y-84719047D02*
X90197561Y-84814285D01*
X90197561Y-84814285D02*
X90149942Y-84861904D01*
X90149942Y-84861904D02*
X90054704Y-84909523D01*
X90054704Y-84909523D02*
X89959466Y-84909523D01*
X89959466Y-84909523D02*
X89864228Y-84861904D01*
X89864228Y-84861904D02*
X89816609Y-84814285D01*
X89816609Y-84814285D02*
X89768990Y-84719047D01*
X89768990Y-84719047D02*
X89768990Y-84385714D01*
X89245180Y-85861904D02*
X89245180Y-85385714D01*
X89245180Y-85385714D02*
X90245180Y-85385714D01*
X89768990Y-86195238D02*
X89768990Y-86528571D01*
X89245180Y-86671428D02*
X89245180Y-86195238D01*
X89245180Y-86195238D02*
X90245180Y-86195238D01*
X90245180Y-86195238D02*
X90245180Y-86671428D01*
X89045180Y-91647618D02*
X89521371Y-91314285D01*
X89045180Y-91076190D02*
X90045180Y-91076190D01*
X90045180Y-91076190D02*
X90045180Y-91457142D01*
X90045180Y-91457142D02*
X89997561Y-91552380D01*
X89997561Y-91552380D02*
X89949942Y-91599999D01*
X89949942Y-91599999D02*
X89854704Y-91647618D01*
X89854704Y-91647618D02*
X89711847Y-91647618D01*
X89711847Y-91647618D02*
X89616609Y-91599999D01*
X89616609Y-91599999D02*
X89568990Y-91552380D01*
X89568990Y-91552380D02*
X89521371Y-91457142D01*
X89521371Y-91457142D02*
X89521371Y-91076190D01*
X89568990Y-92076190D02*
X89568990Y-92409523D01*
X89045180Y-92552380D02*
X89045180Y-92076190D01*
X89045180Y-92076190D02*
X90045180Y-92076190D01*
X90045180Y-92076190D02*
X90045180Y-92552380D01*
X89092800Y-92933333D02*
X89045180Y-93076190D01*
X89045180Y-93076190D02*
X89045180Y-93314285D01*
X89045180Y-93314285D02*
X89092800Y-93409523D01*
X89092800Y-93409523D02*
X89140419Y-93457142D01*
X89140419Y-93457142D02*
X89235657Y-93504761D01*
X89235657Y-93504761D02*
X89330895Y-93504761D01*
X89330895Y-93504761D02*
X89426133Y-93457142D01*
X89426133Y-93457142D02*
X89473752Y-93409523D01*
X89473752Y-93409523D02*
X89521371Y-93314285D01*
X89521371Y-93314285D02*
X89568990Y-93123809D01*
X89568990Y-93123809D02*
X89616609Y-93028571D01*
X89616609Y-93028571D02*
X89664228Y-92980952D01*
X89664228Y-92980952D02*
X89759466Y-92933333D01*
X89759466Y-92933333D02*
X89854704Y-92933333D01*
X89854704Y-92933333D02*
X89949942Y-92980952D01*
X89949942Y-92980952D02*
X89997561Y-93028571D01*
X89997561Y-93028571D02*
X90045180Y-93123809D01*
X90045180Y-93123809D02*
X90045180Y-93361904D01*
X90045180Y-93361904D02*
X89997561Y-93504761D01*
X89568990Y-93933333D02*
X89568990Y-94266666D01*
X89045180Y-94409523D02*
X89045180Y-93933333D01*
X89045180Y-93933333D02*
X90045180Y-93933333D01*
X90045180Y-93933333D02*
X90045180Y-94409523D01*
X90045180Y-94695238D02*
X90045180Y-95266666D01*
X89045180Y-94980952D02*
X90045180Y-94980952D01*
X97131009Y-47731905D02*
X97178628Y-47589048D01*
X97178628Y-47589048D02*
X97226247Y-47541429D01*
X97226247Y-47541429D02*
X97321485Y-47493810D01*
X97321485Y-47493810D02*
X97464342Y-47493810D01*
X97464342Y-47493810D02*
X97559580Y-47541429D01*
X97559580Y-47541429D02*
X97607200Y-47589048D01*
X97607200Y-47589048D02*
X97654819Y-47684286D01*
X97654819Y-47684286D02*
X97654819Y-48065238D01*
X97654819Y-48065238D02*
X96654819Y-48065238D01*
X96654819Y-48065238D02*
X96654819Y-47731905D01*
X96654819Y-47731905D02*
X96702438Y-47636667D01*
X96702438Y-47636667D02*
X96750057Y-47589048D01*
X96750057Y-47589048D02*
X96845295Y-47541429D01*
X96845295Y-47541429D02*
X96940533Y-47541429D01*
X96940533Y-47541429D02*
X97035771Y-47589048D01*
X97035771Y-47589048D02*
X97083390Y-47636667D01*
X97083390Y-47636667D02*
X97131009Y-47731905D01*
X97131009Y-47731905D02*
X97131009Y-48065238D01*
X97654819Y-46636667D02*
X97131009Y-46636667D01*
X97131009Y-46636667D02*
X97035771Y-46684286D01*
X97035771Y-46684286D02*
X96988152Y-46779524D01*
X96988152Y-46779524D02*
X96988152Y-46970000D01*
X96988152Y-46970000D02*
X97035771Y-47065238D01*
X97607200Y-46636667D02*
X97654819Y-46731905D01*
X97654819Y-46731905D02*
X97654819Y-46970000D01*
X97654819Y-46970000D02*
X97607200Y-47065238D01*
X97607200Y-47065238D02*
X97511961Y-47112857D01*
X97511961Y-47112857D02*
X97416723Y-47112857D01*
X97416723Y-47112857D02*
X97321485Y-47065238D01*
X97321485Y-47065238D02*
X97273866Y-46970000D01*
X97273866Y-46970000D02*
X97273866Y-46731905D01*
X97273866Y-46731905D02*
X97226247Y-46636667D01*
X96988152Y-46303333D02*
X96988152Y-45922381D01*
X96654819Y-46160476D02*
X97511961Y-46160476D01*
X97511961Y-46160476D02*
X97607200Y-46112857D01*
X97607200Y-46112857D02*
X97654819Y-46017619D01*
X97654819Y-46017619D02*
X97654819Y-45922381D01*
X96988152Y-45731904D02*
X96988152Y-45350952D01*
X96654819Y-45589047D02*
X97511961Y-45589047D01*
X97511961Y-45589047D02*
X97607200Y-45541428D01*
X97607200Y-45541428D02*
X97654819Y-45446190D01*
X97654819Y-45446190D02*
X97654819Y-45350952D01*
X97607200Y-44636666D02*
X97654819Y-44731904D01*
X97654819Y-44731904D02*
X97654819Y-44922380D01*
X97654819Y-44922380D02*
X97607200Y-45017618D01*
X97607200Y-45017618D02*
X97511961Y-45065237D01*
X97511961Y-45065237D02*
X97131009Y-45065237D01*
X97131009Y-45065237D02*
X97035771Y-45017618D01*
X97035771Y-45017618D02*
X96988152Y-44922380D01*
X96988152Y-44922380D02*
X96988152Y-44731904D01*
X96988152Y-44731904D02*
X97035771Y-44636666D01*
X97035771Y-44636666D02*
X97131009Y-44589047D01*
X97131009Y-44589047D02*
X97226247Y-44589047D01*
X97226247Y-44589047D02*
X97321485Y-45065237D01*
X97654819Y-44160475D02*
X96988152Y-44160475D01*
X97178628Y-44160475D02*
X97083390Y-44112856D01*
X97083390Y-44112856D02*
X97035771Y-44065237D01*
X97035771Y-44065237D02*
X96988152Y-43969999D01*
X96988152Y-43969999D02*
X96988152Y-43874761D01*
X97654819Y-43541427D02*
X96988152Y-43541427D01*
X96654819Y-43541427D02*
X96702438Y-43589046D01*
X96702438Y-43589046D02*
X96750057Y-43541427D01*
X96750057Y-43541427D02*
X96702438Y-43493808D01*
X96702438Y-43493808D02*
X96654819Y-43541427D01*
X96654819Y-43541427D02*
X96750057Y-43541427D01*
X97607200Y-42684285D02*
X97654819Y-42779523D01*
X97654819Y-42779523D02*
X97654819Y-42969999D01*
X97654819Y-42969999D02*
X97607200Y-43065237D01*
X97607200Y-43065237D02*
X97511961Y-43112856D01*
X97511961Y-43112856D02*
X97131009Y-43112856D01*
X97131009Y-43112856D02*
X97035771Y-43065237D01*
X97035771Y-43065237D02*
X96988152Y-42969999D01*
X96988152Y-42969999D02*
X96988152Y-42779523D01*
X96988152Y-42779523D02*
X97035771Y-42684285D01*
X97035771Y-42684285D02*
X97131009Y-42636666D01*
X97131009Y-42636666D02*
X97226247Y-42636666D01*
X97226247Y-42636666D02*
X97321485Y-43112856D01*
X97607200Y-42255713D02*
X97654819Y-42160475D01*
X97654819Y-42160475D02*
X97654819Y-41969999D01*
X97654819Y-41969999D02*
X97607200Y-41874761D01*
X97607200Y-41874761D02*
X97511961Y-41827142D01*
X97511961Y-41827142D02*
X97464342Y-41827142D01*
X97464342Y-41827142D02*
X97369104Y-41874761D01*
X97369104Y-41874761D02*
X97321485Y-41969999D01*
X97321485Y-41969999D02*
X97321485Y-42112856D01*
X97321485Y-42112856D02*
X97273866Y-42208094D01*
X97273866Y-42208094D02*
X97178628Y-42255713D01*
X97178628Y-42255713D02*
X97131009Y-42255713D01*
X97131009Y-42255713D02*
X97035771Y-42208094D01*
X97035771Y-42208094D02*
X96988152Y-42112856D01*
X96988152Y-42112856D02*
X96988152Y-41969999D01*
X96988152Y-41969999D02*
X97035771Y-41874761D01*
D11*
X115930953Y-52802300D02*
X116002381Y-52826109D01*
X116002381Y-52826109D02*
X116121429Y-52826109D01*
X116121429Y-52826109D02*
X116169048Y-52802300D01*
X116169048Y-52802300D02*
X116192857Y-52778490D01*
X116192857Y-52778490D02*
X116216667Y-52730871D01*
X116216667Y-52730871D02*
X116216667Y-52683252D01*
X116216667Y-52683252D02*
X116192857Y-52635633D01*
X116192857Y-52635633D02*
X116169048Y-52611823D01*
X116169048Y-52611823D02*
X116121429Y-52588014D01*
X116121429Y-52588014D02*
X116026191Y-52564204D01*
X116026191Y-52564204D02*
X115978572Y-52540395D01*
X115978572Y-52540395D02*
X115954762Y-52516585D01*
X115954762Y-52516585D02*
X115930953Y-52468966D01*
X115930953Y-52468966D02*
X115930953Y-52421347D01*
X115930953Y-52421347D02*
X115954762Y-52373728D01*
X115954762Y-52373728D02*
X115978572Y-52349919D01*
X115978572Y-52349919D02*
X116026191Y-52326109D01*
X116026191Y-52326109D02*
X116145238Y-52326109D01*
X116145238Y-52326109D02*
X116216667Y-52349919D01*
X116692857Y-52349919D02*
X116645238Y-52326109D01*
X116645238Y-52326109D02*
X116573809Y-52326109D01*
X116573809Y-52326109D02*
X116502381Y-52349919D01*
X116502381Y-52349919D02*
X116454762Y-52397538D01*
X116454762Y-52397538D02*
X116430952Y-52445157D01*
X116430952Y-52445157D02*
X116407143Y-52540395D01*
X116407143Y-52540395D02*
X116407143Y-52611823D01*
X116407143Y-52611823D02*
X116430952Y-52707061D01*
X116430952Y-52707061D02*
X116454762Y-52754680D01*
X116454762Y-52754680D02*
X116502381Y-52802300D01*
X116502381Y-52802300D02*
X116573809Y-52826109D01*
X116573809Y-52826109D02*
X116621428Y-52826109D01*
X116621428Y-52826109D02*
X116692857Y-52802300D01*
X116692857Y-52802300D02*
X116716666Y-52778490D01*
X116716666Y-52778490D02*
X116716666Y-52611823D01*
X116716666Y-52611823D02*
X116621428Y-52611823D01*
X116930952Y-52826109D02*
X116930952Y-52326109D01*
X116930952Y-52326109D02*
X117121428Y-52326109D01*
X117121428Y-52326109D02*
X117169047Y-52349919D01*
X117169047Y-52349919D02*
X117192857Y-52373728D01*
X117192857Y-52373728D02*
X117216666Y-52421347D01*
X117216666Y-52421347D02*
X117216666Y-52492776D01*
X117216666Y-52492776D02*
X117192857Y-52540395D01*
X117192857Y-52540395D02*
X117169047Y-52564204D01*
X117169047Y-52564204D02*
X117121428Y-52588014D01*
X117121428Y-52588014D02*
X116930952Y-52588014D01*
X117645238Y-52492776D02*
X117645238Y-52826109D01*
X117526190Y-52302300D02*
X117407143Y-52659442D01*
X117407143Y-52659442D02*
X117716666Y-52659442D01*
X118169047Y-52826109D02*
X117883333Y-52826109D01*
X118026190Y-52826109D02*
X118026190Y-52326109D01*
X118026190Y-52326109D02*
X117978571Y-52397538D01*
X117978571Y-52397538D02*
X117930952Y-52445157D01*
X117930952Y-52445157D02*
X117883333Y-52468966D01*
D10*
X129554819Y-91557142D02*
X128554819Y-91557142D01*
X128554819Y-91557142D02*
X128554819Y-91176190D01*
X128554819Y-91176190D02*
X128602438Y-91080952D01*
X128602438Y-91080952D02*
X128650057Y-91033333D01*
X128650057Y-91033333D02*
X128745295Y-90985714D01*
X128745295Y-90985714D02*
X128888152Y-90985714D01*
X128888152Y-90985714D02*
X128983390Y-91033333D01*
X128983390Y-91033333D02*
X129031009Y-91080952D01*
X129031009Y-91080952D02*
X129078628Y-91176190D01*
X129078628Y-91176190D02*
X129078628Y-91557142D01*
X128554819Y-90366666D02*
X128554819Y-90176190D01*
X128554819Y-90176190D02*
X128602438Y-90080952D01*
X128602438Y-90080952D02*
X128697676Y-89985714D01*
X128697676Y-89985714D02*
X128888152Y-89938095D01*
X128888152Y-89938095D02*
X129221485Y-89938095D01*
X129221485Y-89938095D02*
X129411961Y-89985714D01*
X129411961Y-89985714D02*
X129507200Y-90080952D01*
X129507200Y-90080952D02*
X129554819Y-90176190D01*
X129554819Y-90176190D02*
X129554819Y-90366666D01*
X129554819Y-90366666D02*
X129507200Y-90461904D01*
X129507200Y-90461904D02*
X129411961Y-90557142D01*
X129411961Y-90557142D02*
X129221485Y-90604761D01*
X129221485Y-90604761D02*
X128888152Y-90604761D01*
X128888152Y-90604761D02*
X128697676Y-90557142D01*
X128697676Y-90557142D02*
X128602438Y-90461904D01*
X128602438Y-90461904D02*
X128554819Y-90366666D01*
X128554819Y-89604761D02*
X129554819Y-89366666D01*
X129554819Y-89366666D02*
X128840533Y-89176190D01*
X128840533Y-89176190D02*
X129554819Y-88985714D01*
X129554819Y-88985714D02*
X128554819Y-88747619D01*
X91595180Y-70776666D02*
X90880895Y-70776666D01*
X90880895Y-70776666D02*
X90738038Y-70729047D01*
X90738038Y-70729047D02*
X90642800Y-70633809D01*
X90642800Y-70633809D02*
X90595180Y-70490952D01*
X90595180Y-70490952D02*
X90595180Y-70395714D01*
X91499942Y-71205238D02*
X91547561Y-71252857D01*
X91547561Y-71252857D02*
X91595180Y-71348095D01*
X91595180Y-71348095D02*
X91595180Y-71586190D01*
X91595180Y-71586190D02*
X91547561Y-71681428D01*
X91547561Y-71681428D02*
X91499942Y-71729047D01*
X91499942Y-71729047D02*
X91404704Y-71776666D01*
X91404704Y-71776666D02*
X91309466Y-71776666D01*
X91309466Y-71776666D02*
X91166609Y-71729047D01*
X91166609Y-71729047D02*
X90595180Y-71157619D01*
X90595180Y-71157619D02*
X90595180Y-71776666D01*
X104904819Y-61824404D02*
X105714342Y-61824404D01*
X105714342Y-61824404D02*
X105809580Y-61776785D01*
X105809580Y-61776785D02*
X105857200Y-61729166D01*
X105857200Y-61729166D02*
X105904819Y-61633928D01*
X105904819Y-61633928D02*
X105904819Y-61443452D01*
X105904819Y-61443452D02*
X105857200Y-61348214D01*
X105857200Y-61348214D02*
X105809580Y-61300595D01*
X105809580Y-61300595D02*
X105714342Y-61252976D01*
X105714342Y-61252976D02*
X104904819Y-61252976D01*
X104904819Y-60300595D02*
X104904819Y-60776785D01*
X104904819Y-60776785D02*
X105381009Y-60824404D01*
X105381009Y-60824404D02*
X105333390Y-60776785D01*
X105333390Y-60776785D02*
X105285771Y-60681547D01*
X105285771Y-60681547D02*
X105285771Y-60443452D01*
X105285771Y-60443452D02*
X105333390Y-60348214D01*
X105333390Y-60348214D02*
X105381009Y-60300595D01*
X105381009Y-60300595D02*
X105476247Y-60252976D01*
X105476247Y-60252976D02*
X105714342Y-60252976D01*
X105714342Y-60252976D02*
X105809580Y-60300595D01*
X105809580Y-60300595D02*
X105857200Y-60348214D01*
X105857200Y-60348214D02*
X105904819Y-60443452D01*
X105904819Y-60443452D02*
X105904819Y-60681547D01*
X105904819Y-60681547D02*
X105857200Y-60776785D01*
X105857200Y-60776785D02*
X105809580Y-60824404D01*
X126607200Y-90985713D02*
X126654819Y-90842856D01*
X126654819Y-90842856D02*
X126654819Y-90604761D01*
X126654819Y-90604761D02*
X126607200Y-90509523D01*
X126607200Y-90509523D02*
X126559580Y-90461904D01*
X126559580Y-90461904D02*
X126464342Y-90414285D01*
X126464342Y-90414285D02*
X126369104Y-90414285D01*
X126369104Y-90414285D02*
X126273866Y-90461904D01*
X126273866Y-90461904D02*
X126226247Y-90509523D01*
X126226247Y-90509523D02*
X126178628Y-90604761D01*
X126178628Y-90604761D02*
X126131009Y-90795237D01*
X126131009Y-90795237D02*
X126083390Y-90890475D01*
X126083390Y-90890475D02*
X126035771Y-90938094D01*
X126035771Y-90938094D02*
X125940533Y-90985713D01*
X125940533Y-90985713D02*
X125845295Y-90985713D01*
X125845295Y-90985713D02*
X125750057Y-90938094D01*
X125750057Y-90938094D02*
X125702438Y-90890475D01*
X125702438Y-90890475D02*
X125654819Y-90795237D01*
X125654819Y-90795237D02*
X125654819Y-90557142D01*
X125654819Y-90557142D02*
X125702438Y-90414285D01*
X126654819Y-89985713D02*
X125654819Y-89985713D01*
X125654819Y-89985713D02*
X125654819Y-89747618D01*
X125654819Y-89747618D02*
X125702438Y-89604761D01*
X125702438Y-89604761D02*
X125797676Y-89509523D01*
X125797676Y-89509523D02*
X125892914Y-89461904D01*
X125892914Y-89461904D02*
X126083390Y-89414285D01*
X126083390Y-89414285D02*
X126226247Y-89414285D01*
X126226247Y-89414285D02*
X126416723Y-89461904D01*
X126416723Y-89461904D02*
X126511961Y-89509523D01*
X126511961Y-89509523D02*
X126607200Y-89604761D01*
X126607200Y-89604761D02*
X126654819Y-89747618D01*
X126654819Y-89747618D02*
X126654819Y-89985713D01*
D11*
X95790200Y-55966667D02*
X95742580Y-56109524D01*
X95742580Y-56109524D02*
X95742580Y-56347619D01*
X95742580Y-56347619D02*
X95790200Y-56442857D01*
X95790200Y-56442857D02*
X95837819Y-56490476D01*
X95837819Y-56490476D02*
X95933057Y-56538095D01*
X95933057Y-56538095D02*
X96028295Y-56538095D01*
X96028295Y-56538095D02*
X96123533Y-56490476D01*
X96123533Y-56490476D02*
X96171152Y-56442857D01*
X96171152Y-56442857D02*
X96218771Y-56347619D01*
X96218771Y-56347619D02*
X96266390Y-56157143D01*
X96266390Y-56157143D02*
X96314009Y-56061905D01*
X96314009Y-56061905D02*
X96361628Y-56014286D01*
X96361628Y-56014286D02*
X96456866Y-55966667D01*
X96456866Y-55966667D02*
X96552104Y-55966667D01*
X96552104Y-55966667D02*
X96647342Y-56014286D01*
X96647342Y-56014286D02*
X96694961Y-56061905D01*
X96694961Y-56061905D02*
X96742580Y-56157143D01*
X96742580Y-56157143D02*
X96742580Y-56395238D01*
X96742580Y-56395238D02*
X96694961Y-56538095D01*
X96742580Y-56871429D02*
X95742580Y-57109524D01*
X95742580Y-57109524D02*
X96456866Y-57300000D01*
X96456866Y-57300000D02*
X95742580Y-57490476D01*
X95742580Y-57490476D02*
X96742580Y-57728572D01*
X95742580Y-58633333D02*
X95742580Y-58061905D01*
X95742580Y-58347619D02*
X96742580Y-58347619D01*
X96742580Y-58347619D02*
X96599723Y-58252381D01*
X96599723Y-58252381D02*
X96504485Y-58157143D01*
X96504485Y-58157143D02*
X96456866Y-58061905D01*
X116901109Y-48480952D02*
X117305871Y-48480952D01*
X117305871Y-48480952D02*
X117353490Y-48457142D01*
X117353490Y-48457142D02*
X117377300Y-48433333D01*
X117377300Y-48433333D02*
X117401109Y-48385714D01*
X117401109Y-48385714D02*
X117401109Y-48290476D01*
X117401109Y-48290476D02*
X117377300Y-48242857D01*
X117377300Y-48242857D02*
X117353490Y-48219047D01*
X117353490Y-48219047D02*
X117305871Y-48195238D01*
X117305871Y-48195238D02*
X116901109Y-48195238D01*
X116901109Y-48004761D02*
X116901109Y-47695237D01*
X116901109Y-47695237D02*
X117091585Y-47861904D01*
X117091585Y-47861904D02*
X117091585Y-47790475D01*
X117091585Y-47790475D02*
X117115395Y-47742856D01*
X117115395Y-47742856D02*
X117139204Y-47719047D01*
X117139204Y-47719047D02*
X117186823Y-47695237D01*
X117186823Y-47695237D02*
X117305871Y-47695237D01*
X117305871Y-47695237D02*
X117353490Y-47719047D01*
X117353490Y-47719047D02*
X117377300Y-47742856D01*
X117377300Y-47742856D02*
X117401109Y-47790475D01*
X117401109Y-47790475D02*
X117401109Y-47933332D01*
X117401109Y-47933332D02*
X117377300Y-47980951D01*
X117377300Y-47980951D02*
X117353490Y-48004761D01*
D10*
X109738095Y-59354819D02*
X109738095Y-60164342D01*
X109738095Y-60164342D02*
X109785714Y-60259580D01*
X109785714Y-60259580D02*
X109833333Y-60307200D01*
X109833333Y-60307200D02*
X109928571Y-60354819D01*
X109928571Y-60354819D02*
X110119047Y-60354819D01*
X110119047Y-60354819D02*
X110214285Y-60307200D01*
X110214285Y-60307200D02*
X110261904Y-60259580D01*
X110261904Y-60259580D02*
X110309523Y-60164342D01*
X110309523Y-60164342D02*
X110309523Y-59354819D01*
X111309523Y-60354819D02*
X110738095Y-60354819D01*
X111023809Y-60354819D02*
X111023809Y-59354819D01*
X111023809Y-59354819D02*
X110928571Y-59497676D01*
X110928571Y-59497676D02*
X110833333Y-59592914D01*
X110833333Y-59592914D02*
X110738095Y-59640533D01*
D12*
%TO.C,R4*%
X117365000Y-54927064D02*
X117365000Y-54472936D01*
X118835000Y-54927064D02*
X118835000Y-54472936D01*
%TO.C,C8*%
X113661252Y-49965000D02*
X113138748Y-49965000D01*
X113661252Y-51435000D02*
X113138748Y-51435000D01*
%TO.C,BT2*%
X89880000Y-42080000D02*
X89880000Y-42670000D01*
X89880000Y-44730000D02*
X89880000Y-45210000D01*
X89880000Y-47270000D02*
X89880000Y-47860000D01*
X90500000Y-42080000D02*
X90500000Y-42670000D01*
X90500000Y-44730000D02*
X90500000Y-45210000D01*
X90500000Y-47270000D02*
X90500000Y-47860000D01*
X95800000Y-42080000D02*
X95800000Y-47860000D01*
X96320000Y-42080000D02*
X89880000Y-42080000D01*
X96320000Y-42080000D02*
X96320000Y-47860000D01*
X96320000Y-47860000D02*
X89880000Y-47860000D01*
X89530000Y-43700000D02*
X88920000Y-44140000D01*
X88920000Y-43260000D01*
X89530000Y-43700000D01*
G36*
X89530000Y-43700000D02*
G01*
X88920000Y-44140000D01*
X88920000Y-43260000D01*
X89530000Y-43700000D01*
G37*
%TO.C,R9*%
X105727064Y-69865000D02*
X105272936Y-69865000D01*
X105727064Y-71335000D02*
X105272936Y-71335000D01*
%TO.C,R12*%
X101865000Y-80872936D02*
X101865000Y-81327064D01*
X103335000Y-80872936D02*
X103335000Y-81327064D01*
%TO.C,SGP41*%
X118700000Y-52780000D02*
X118700000Y-52300000D01*
X119180000Y-52300000D01*
X118700000Y-52780000D01*
G36*
X118700000Y-52780000D02*
G01*
X118700000Y-52300000D01*
X119180000Y-52300000D01*
X118700000Y-52780000D01*
G37*
%TO.C,R11*%
X129872936Y-82865000D02*
X130327064Y-82865000D01*
X129872936Y-84335000D02*
X130327064Y-84335000D01*
%TO.C,R10*%
X123527064Y-82865000D02*
X123072936Y-82865000D01*
X123527064Y-84335000D02*
X123072936Y-84335000D01*
%TO.C,U2*%
X119140000Y-35340000D02*
X119140000Y-35595000D01*
X119140000Y-45860000D02*
X119140000Y-45605000D01*
X123000000Y-35340000D02*
X119140000Y-35340000D01*
X123000000Y-35340000D02*
X126860000Y-35340000D01*
X123000000Y-45860000D02*
X119140000Y-45860000D01*
X123000000Y-45860000D02*
X126860000Y-45860000D01*
X126860000Y-35340000D02*
X126860000Y-35595000D01*
X126860000Y-45860000D02*
X126860000Y-45605000D01*
X128052500Y-46075000D02*
X127372500Y-46075000D01*
X127712500Y-45605000D01*
X128052500Y-46075000D01*
G36*
X128052500Y-46075000D02*
G01*
X127372500Y-46075000D01*
X127712500Y-45605000D01*
X128052500Y-46075000D01*
G37*
%TO.C,D1*%
X130040000Y-89200000D02*
X130040000Y-92060000D01*
X130040000Y-92060000D02*
X131960000Y-92060000D01*
X131960000Y-92060000D02*
X131960000Y-89200000D01*
%TO.C,R1*%
X100265000Y-76027064D02*
X100265000Y-75572936D01*
X101735000Y-76027064D02*
X101735000Y-75572936D01*
%TO.C,C4*%
X103565000Y-64776248D02*
X103565000Y-65298752D01*
X105035000Y-64776248D02*
X105035000Y-65298752D01*
%TO.C,SW2*%
X91850000Y-83100000D02*
X91850000Y-84600000D01*
X93100000Y-87100000D02*
X97600000Y-87100000D01*
X97600000Y-80600000D02*
X93100000Y-80600000D01*
X98850000Y-84600000D02*
X98850000Y-83100000D01*
%TO.C,R7*%
X100665000Y-90127064D02*
X100665000Y-89672936D01*
X102135000Y-90127064D02*
X102135000Y-89672936D01*
%TO.C,C2*%
X100238748Y-67875000D02*
X100761252Y-67875000D01*
X100238748Y-69345000D02*
X100761252Y-69345000D01*
%TO.C,C1*%
X100238748Y-65665000D02*
X100761252Y-65665000D01*
X100238748Y-67135000D02*
X100761252Y-67135000D01*
%TO.C,C10*%
X105765000Y-78738748D02*
X105765000Y-79261252D01*
X107235000Y-78738748D02*
X107235000Y-79261252D01*
D13*
%TO.C,J2*%
X89336950Y-66512600D02*
X89336950Y-75707400D01*
X89336950Y-75707400D02*
X90822554Y-75707400D01*
X90822554Y-66512600D02*
X89336950Y-66512600D01*
X93304546Y-75707400D02*
X94820164Y-75707400D01*
X94820164Y-66512600D02*
X93304546Y-66512600D01*
D12*
%TO.C,R8*%
X105727064Y-71865000D02*
X105272936Y-71865000D01*
X105727064Y-73335000D02*
X105272936Y-73335000D01*
%TO.C,C9*%
X108065000Y-78738748D02*
X108065000Y-79261252D01*
X109535000Y-78738748D02*
X109535000Y-79261252D01*
%TO.C,C12*%
X111938748Y-52665000D02*
X112461252Y-52665000D01*
X111938748Y-54135000D02*
X112461252Y-54135000D01*
%TO.C,R2*%
X98215000Y-76027064D02*
X98215000Y-75572936D01*
X99685000Y-76027064D02*
X99685000Y-75572936D01*
%TO.C,U5*%
X101490000Y-61062500D02*
X101490000Y-60262500D01*
X101490000Y-61062500D02*
X101490000Y-61862500D01*
X104610000Y-61062500D02*
X104610000Y-60262500D01*
X104610000Y-61062500D02*
X104610000Y-61862500D01*
X104890000Y-60002500D02*
X104560000Y-59762500D01*
X104890000Y-59522500D01*
X104890000Y-60002500D01*
G36*
X104890000Y-60002500D02*
G01*
X104560000Y-59762500D01*
X104890000Y-59522500D01*
X104890000Y-60002500D01*
G37*
%TO.C,D2*%
X123240000Y-89200000D02*
X123240000Y-92060000D01*
X123240000Y-92060000D02*
X125160000Y-92060000D01*
X125160000Y-92060000D02*
X125160000Y-89200000D01*
%TO.C,R5*%
X119865000Y-53127064D02*
X119865000Y-52672936D01*
X121335000Y-53127064D02*
X121335000Y-52672936D01*
%TO.C,SW1*%
D11*
X97700000Y-49800000D02*
X88700000Y-49800000D01*
X88700000Y-64800000D01*
X97700000Y-64800000D01*
X97700000Y-49800000D01*
D12*
%TO.C,U3*%
X116175000Y-46990000D02*
X118175000Y-46990000D01*
X116175000Y-49210000D02*
X118175000Y-49210000D01*
X115825000Y-47280000D02*
X115545000Y-47280000D01*
X115825000Y-47000000D01*
X115825000Y-47280000D01*
G36*
X115825000Y-47280000D02*
G01*
X115545000Y-47280000D01*
X115825000Y-47000000D01*
X115825000Y-47280000D01*
G37*
%TO.C,C5*%
X129365000Y-42438748D02*
X129365000Y-42961252D01*
X130835000Y-42438748D02*
X130835000Y-42961252D01*
%TO.C,U4*%
X100669800Y-69990000D02*
X99869800Y-69990000D01*
X100669800Y-69990000D02*
X101469800Y-69990000D01*
X100669800Y-73110000D02*
X99869800Y-73110000D01*
X100669800Y-73110000D02*
X101469800Y-73110000D01*
X99369800Y-70040000D02*
X99129800Y-69710000D01*
X99609800Y-69710000D01*
X99369800Y-70040000D01*
G36*
X99369800Y-70040000D02*
G01*
X99129800Y-69710000D01*
X99609800Y-69710000D01*
X99369800Y-70040000D01*
G37*
%TO.C,C3*%
X102976248Y-56565000D02*
X103498752Y-56565000D01*
X102976248Y-58035000D02*
X103498752Y-58035000D01*
%TO.C,C7*%
X120538748Y-49265000D02*
X121061252Y-49265000D01*
X120538748Y-50735000D02*
X121061252Y-50735000D01*
%TO.C,C11*%
X111938748Y-54765000D02*
X112461252Y-54765000D01*
X111938748Y-56235000D02*
X112461252Y-56235000D01*
%TO.C,C6*%
X113761252Y-47265000D02*
X113238748Y-47265000D01*
X113761252Y-48735000D02*
X113238748Y-48735000D01*
%TO.C,R3*%
X115265000Y-54927064D02*
X115265000Y-54472936D01*
X116735000Y-54927064D02*
X116735000Y-54472936D01*
%TO.C,U1*%
X107840000Y-57540000D02*
X107840000Y-75760000D01*
X108140000Y-57540000D02*
X107840000Y-57540000D01*
X108140000Y-75760000D02*
X107840000Y-75760000D01*
X128060000Y-57540000D02*
X122250000Y-57540000D01*
X128060000Y-57540000D02*
X128060000Y-75760000D01*
X128060000Y-75760000D02*
X121560000Y-75760000D01*
X122050000Y-57550000D02*
X121550000Y-57550000D01*
X121550000Y-57050000D01*
X122050000Y-57550000D01*
G36*
X122050000Y-57550000D02*
G01*
X121550000Y-57550000D01*
X121550000Y-57050000D01*
X122050000Y-57550000D01*
G37*
%TO.C,SW3*%
X91600000Y-92550000D02*
X91600000Y-94050000D01*
X92850000Y-96550000D02*
X97350000Y-96550000D01*
X97350000Y-90050000D02*
X92850000Y-90050000D01*
X98600000Y-94050000D02*
X98600000Y-92550000D01*
%TO.C,R6*%
X93072936Y-77965000D02*
X93527064Y-77965000D01*
X93072936Y-79435000D02*
X93527064Y-79435000D01*
%TD*%
M02*
