%TF.GenerationSoftware,KiCad,Pcbnew,9.0.1*%
%TF.CreationDate,2026-09-25T23:59:12+03:00*%
%TF.ProjectId,weather-station,77656174-6865-4722-9d73-746174696f6e,rev?*%
%TF.SameCoordinates,Original*%
%TF.FileFunction,Copper,L1,Top*%
%TF.FilePolarity,Positive*%
%FSLAX46Y46*%
G04 Gerber Fmt 4.6, Leading zero omitted, Abs format (unit mm)*
G04 Created by KiCad (PCBNEW 9.0.1) date 2026-09-25 23:59:12*
%MOMM*%
%LPD*%
G01*
G04 APERTURE LIST*
G04 Aperture macros list*
%AMRoundRect*
0 Rectangle with rounded corners*
0 $1 Rounding radius*
0 $2 $3 $4 $5 $6 $7 $8 $9 X,Y pos of 4 corners*
0 Add a 4 corners polygon primitive as box body*
4,1,4,$2,$3,$4,$5,$6,$7,$8,$9,$2,$3,0*
0 Add four circle primitives for the rounded corners*
1,1,$1+$1,$2,$3*
1,1,$1+$1,$4,$5*
1,1,$1+$1,$6,$7*
1,1,$1+$1,$8,$9*
0 Add four rect primitives between the rounded corners*
20,1,$1+$1,$2,$3,$4,$5,0*
20,1,$1+$1,$4,$5,$6,$7,0*
20,1,$1+$1,$6,$7,$8,$9,0*
20,1,$1+$1,$8,$9,$2,$3,0*%
%AMOutline5P*
0 Free polygon, 5 corners , with rotation*
0 The origin of the aperture is its center*
0 number of corners: always 5*
0 $1 to $10 corner X, Y*
0 $11 Rotation angle, in degrees counterclockwise*
0 create outline with 5 corners*
4,1,5,$1,$2,$3,$4,$5,$6,$7,$8,$9,$10,$1,$2,$11*%
%AMOutline6P*
0 Free polygon, 6 corners , with rotation*
0 The origin of the aperture is its center*
0 number of corners: always 6*
0 $1 to $12 corner X, Y*
0 $13 Rotation angle, in degrees counterclockwise*
0 create outline with 6 corners*
4,1,6,$1,$2,$3,$4,$5,$6,$7,$8,$9,$10,$11,$12,$1,$2,$13*%
%AMOutline7P*
0 Free polygon, 7 corners , with rotation*
0 The origin of the aperture is its center*
0 number of corners: always 7*
0 $1 to $14 corner X, Y*
0 $15 Rotation angle, in degrees counterclockwise*
0 create outline with 7 corners*
4,1,7,$1,$2,$3,$4,$5,$6,$7,$8,$9,$10,$11,$12,$13,$14,$1,$2,$15*%
%AMOutline8P*
0 Free polygon, 8 corners , with rotation*
0 The origin of the aperture is its center*
0 number of corners: always 8*
0 $1 to $16 corner X, Y*
0 $17 Rotation angle, in degrees counterclockwise*
0 create outline with 8 corners*
4,1,8,$1,$2,$3,$4,$5,$6,$7,$8,$9,$10,$11,$12,$13,$14,$15,$16,$1,$2,$17*%
G04 Aperture macros list end*
%TA.AperFunction,EtchedComponent*%
%ADD10C,0.000000*%
%TD*%
%TA.AperFunction,SMDPad,CuDef*%
%ADD11RoundRect,0.250000X0.450000X-0.350000X0.450000X0.350000X-0.450000X0.350000X-0.450000X-0.350000X0*%
%TD*%
%TA.AperFunction,SMDPad,CuDef*%
%ADD12RoundRect,0.250000X0.337500X0.475000X-0.337500X0.475000X-0.337500X-0.475000X0.337500X-0.475000X0*%
%TD*%
%TA.AperFunction,ComponentPad*%
%ADD13RoundRect,0.249999X-0.850001X0.850001X-0.850001X-0.850001X0.850001X-0.850001X0.850001X0.850001X0*%
%TD*%
%TA.AperFunction,ComponentPad*%
%ADD14C,2.200000*%
%TD*%
%TA.AperFunction,SMDPad,CuDef*%
%ADD15RoundRect,0.250000X0.350000X0.450000X-0.350000X0.450000X-0.350000X-0.450000X0.350000X-0.450000X0*%
%TD*%
%TA.AperFunction,SMDPad,CuDef*%
%ADD16RoundRect,0.250000X-0.450000X0.350000X-0.450000X-0.350000X0.450000X-0.350000X0.450000X0.350000X0*%
%TD*%
%TA.AperFunction,SMDPad,CuDef*%
%ADD17R,0.550000X0.400000*%
%TD*%
%TA.AperFunction,SMDPad,CuDef*%
%ADD18Outline5P,-0.625000X0.475000X-0.250000X0.850000X0.625000X0.850000X0.625000X-0.850000X-0.625000X-0.850000X180.000000*%
%TD*%
%TA.AperFunction,SMDPad,CuDef*%
%ADD19RoundRect,0.250000X-0.350000X-0.450000X0.350000X-0.450000X0.350000X0.450000X-0.350000X0.450000X0*%
%TD*%
%TA.AperFunction,SMDPad,CuDef*%
%ADD20RoundRect,0.150000X0.875000X0.150000X-0.875000X0.150000X-0.875000X-0.150000X0.875000X-0.150000X0*%
%TD*%
%TA.AperFunction,SMDPad,CuDef*%
%ADD21RoundRect,0.250000X0.450000X-0.325000X0.450000X0.325000X-0.450000X0.325000X-0.450000X-0.325000X0*%
%TD*%
%TA.AperFunction,SMDPad,CuDef*%
%ADD22RoundRect,0.250000X-0.475000X0.337500X-0.475000X-0.337500X0.475000X-0.337500X0.475000X0.337500X0*%
%TD*%
%TA.AperFunction,ComponentPad*%
%ADD23C,2.000000*%
%TD*%
%TA.AperFunction,SMDPad,CuDef*%
%ADD24RoundRect,0.250000X-0.337500X-0.475000X0.337500X-0.475000X0.337500X0.475000X-0.337500X0.475000X0*%
%TD*%
%TA.AperFunction,SMDPad,CuDef*%
%ADD25R,0.127000X0.127000*%
%TD*%
%TA.AperFunction,SMDPad,CuDef*%
%ADD26R,1.143000X0.304800*%
%TD*%
%TA.AperFunction,ComponentPad*%
%ADD27O,2.209800X1.117600*%
%TD*%
%TA.AperFunction,ComponentPad*%
%ADD28O,1.905000X1.117600*%
%TD*%
%TA.AperFunction,SMDPad,CuDef*%
%ADD29RoundRect,0.150000X-0.150000X0.512500X-0.150000X-0.512500X0.150000X-0.512500X0.150000X0.512500X0*%
%TD*%
%TA.AperFunction,ComponentPad*%
%ADD30C,3.000000*%
%TD*%
%TA.AperFunction,SMDPad,CuDef*%
%ADD31RoundRect,0.087500X-0.187500X-0.087500X0.187500X-0.087500X0.187500X0.087500X-0.187500X0.087500X0*%
%TD*%
%TA.AperFunction,SMDPad,CuDef*%
%ADD32RoundRect,0.175000X-0.175000X-0.625000X0.175000X-0.625000X0.175000X0.625000X-0.175000X0.625000X0*%
%TD*%
%TA.AperFunction,SMDPad,CuDef*%
%ADD33RoundRect,0.150000X-0.512500X-0.150000X0.512500X-0.150000X0.512500X0.150000X-0.512500X0.150000X0*%
%TD*%
%TA.AperFunction,SMDPad,CuDef*%
%ADD34RoundRect,0.105000X-0.245000X-0.445000X0.245000X-0.445000X0.245000X0.445000X-0.245000X0.445000X0*%
%TD*%
%TA.AperFunction,SMDPad,CuDef*%
%ADD35RoundRect,0.117000X-0.408000X-0.273000X0.408000X-0.273000X0.408000X0.273000X-0.408000X0.273000X0*%
%TD*%
%TA.AperFunction,SMDPad,CuDef*%
%ADD36RoundRect,0.135000X-0.315000X-0.330000X0.315000X-0.330000X0.315000X0.330000X-0.315000X0.330000X0*%
%TD*%
%TA.AperFunction,SMDPad,CuDef*%
%ADD37RoundRect,0.171000X-0.399000X-0.744000X0.399000X-0.744000X0.399000X0.744000X-0.399000X0.744000X0*%
%TD*%
%TA.AperFunction,SMDPad,CuDef*%
%ADD38RoundRect,0.105000X-0.245000X-1.560000X0.245000X-1.560000X0.245000X1.560000X-0.245000X1.560000X0*%
%TD*%
%TA.AperFunction,SMDPad,CuDef*%
%ADD39RoundRect,0.129000X-0.301000X-1.271000X0.301000X-1.271000X0.301000X1.271000X-0.301000X1.271000X0*%
%TD*%
%TA.AperFunction,SMDPad,CuDef*%
%ADD40R,0.900000X1.500000*%
%TD*%
%TA.AperFunction,HeatsinkPad*%
%ADD41C,0.600000*%
%TD*%
%TA.AperFunction,HeatsinkPad*%
%ADD42R,2.900000X2.900000*%
%TD*%
%TA.AperFunction,ComponentPad*%
%ADD43C,2.300000*%
%TD*%
%TA.AperFunction,SMDPad,CuDef*%
%ADD44C,17.800000*%
%TD*%
%TA.AperFunction,ViaPad*%
%ADD45C,0.600000*%
%TD*%
%TA.AperFunction,Conductor*%
%ADD46C,1.000000*%
%TD*%
%TA.AperFunction,Conductor*%
%ADD47C,0.200000*%
%TD*%
%TA.AperFunction,Conductor*%
%ADD48C,0.500000*%
%TD*%
G04 APERTURE END LIST*
D10*
%TA.AperFunction,EtchedComponent*%
%TO.C,J2*%
G36*
X97376050Y-68206907D02*
G01*
X96233050Y-68206907D01*
X96233050Y-67597307D01*
X97376050Y-67597307D01*
X97376050Y-68206907D01*
G37*
%TD.AperFunction*%
%TA.AperFunction,EtchedComponent*%
G36*
X97376050Y-69011833D02*
G01*
X96233050Y-69011833D01*
X96233050Y-68402233D01*
X97376050Y-68402233D01*
X97376050Y-69011833D01*
G37*
%TD.AperFunction*%
%TA.AperFunction,EtchedComponent*%
G36*
X97376050Y-73817767D02*
G01*
X96233050Y-73817767D01*
X96233050Y-73208167D01*
X97376050Y-73208167D01*
X97376050Y-73817767D01*
G37*
%TD.AperFunction*%
%TA.AperFunction,EtchedComponent*%
G36*
X97376050Y-74622693D02*
G01*
X96233050Y-74622693D01*
X96233050Y-74013093D01*
X97376050Y-74013093D01*
X97376050Y-74622693D01*
G37*
%TD.AperFunction*%
%TD*%
D11*
%TO.P,R4,1*%
%TO.N,SDA*%
X118100000Y-55700000D03*
%TO.P,R4,2*%
%TO.N,+3V3*%
X118100000Y-53700000D03*
%TD*%
D12*
%TO.P,C8,1*%
%TO.N,+3V3*%
X114437500Y-50700000D03*
%TO.P,C8,2*%
%TO.N,Earth*%
X112362500Y-50700000D03*
%TD*%
D13*
%TO.P,BT2,1,+*%
%TO.N,Battery +*%
X93100000Y-43700000D03*
D14*
%TO.P,BT2,2,-*%
%TO.N,Earth*%
X93100000Y-46240000D03*
%TD*%
D15*
%TO.P,R9,1*%
%TO.N,DIO+*%
X106500000Y-70600000D03*
%TO.P,R9,2*%
%TO.N,D+*%
X104500000Y-70600000D03*
%TD*%
D16*
%TO.P,R12,1*%
%TO.N,+3V3*%
X102600000Y-80100000D03*
%TO.P,R12,2*%
%TO.N,SD card detect*%
X102600000Y-82100000D03*
%TD*%
D17*
%TO.P,SGP41,1,VDD*%
%TO.N,Net-(SGP41-VDD)*%
X118200000Y-50300000D03*
%TO.P,SGP41,2,VSS*%
%TO.N,Earth*%
X118200000Y-51100000D03*
D18*
X117050000Y-51100000D03*
D17*
%TO.P,SGP41,3,SDA*%
%TO.N,SDA*%
X118200000Y-51900000D03*
%TO.P,SGP41,4,NC*%
%TO.N,Earth*%
X115900000Y-50300000D03*
%TO.P,SGP41,5,VDDH*%
%TO.N,+3V3*%
X115900000Y-51100000D03*
%TO.P,SGP41,6,SCL*%
%TO.N,SCL*%
X115900000Y-51900000D03*
%TD*%
D19*
%TO.P,R11,1*%
%TO.N,+3V3*%
X129100000Y-83600000D03*
%TO.P,R11,2*%
%TO.N,Net-(D1-A)*%
X131100000Y-83600000D03*
%TD*%
D15*
%TO.P,R10,1*%
%TO.N,Net-(D2-A)*%
X124300000Y-83600000D03*
%TO.P,R10,2*%
%TO.N,Net-(U1-IO0)*%
X122300000Y-83600000D03*
%TD*%
D20*
%TO.P,U2,1,32KHZ*%
%TO.N,unconnected-(U2-32KHZ-Pad1)*%
X127650000Y-45045000D03*
%TO.P,U2,2,VCC*%
%TO.N,+3V3*%
X127650000Y-43775000D03*
%TO.P,U2,3,~{INT}/SQW*%
%TO.N,unconnected-(U2-~{INT}{slash}SQW-Pad3)*%
X127650000Y-42505000D03*
%TO.P,U2,4,~{RST}*%
%TO.N,unconnected-(U2-~{RST}-Pad4)*%
X127650000Y-41235000D03*
%TO.P,U2,5,GND*%
%TO.N,Earth*%
X127650000Y-39965000D03*
%TO.P,U2,6,GND*%
X127650000Y-38695000D03*
%TO.P,U2,7,GND*%
X127650000Y-37425000D03*
%TO.P,U2,8,GND*%
X127650000Y-36155000D03*
%TO.P,U2,9,GND*%
X118350000Y-36155000D03*
%TO.P,U2,10,GND*%
X118350000Y-37425000D03*
%TO.P,U2,11,GND*%
X118350000Y-38695000D03*
%TO.P,U2,12,GND*%
X118350000Y-39965000D03*
%TO.P,U2,13,GND*%
X118350000Y-41235000D03*
%TO.P,U2,14,VBAT*%
%TO.N,Coin Cell +*%
X118350000Y-42505000D03*
%TO.P,U2,15,SDA*%
%TO.N,SDA*%
X118350000Y-43775000D03*
%TO.P,U2,16,SCL*%
%TO.N,SCL*%
X118350000Y-45045000D03*
%TD*%
D21*
%TO.P,D1,1,K*%
%TO.N,Earth*%
X131000000Y-91225000D03*
%TO.P,D1,2,A*%
%TO.N,Net-(D1-A)*%
X131000000Y-89175000D03*
%TD*%
D11*
%TO.P,R1,1*%
%TO.N,Net-(J2-CC1)*%
X101000000Y-76800000D03*
%TO.P,R1,2*%
%TO.N,Earth*%
X101000000Y-74800000D03*
%TD*%
D22*
%TO.P,C4,1*%
%TO.N,+3V3*%
X104300000Y-64000000D03*
%TO.P,C4,2*%
%TO.N,Earth*%
X104300000Y-66075000D03*
%TD*%
D23*
%TO.P,SW2,1,1*%
%TO.N,Earth*%
X98600000Y-86100000D03*
X92100000Y-86100000D03*
%TO.P,SW2,2,2*%
%TO.N,Net-(U1-EN)*%
X98600000Y-81600000D03*
X92100000Y-81600000D03*
%TD*%
D11*
%TO.P,R7,1*%
%TO.N,Net-(U1-IO9)*%
X101400000Y-90900000D03*
%TO.P,R7,2*%
%TO.N,+3V3*%
X101400000Y-88900000D03*
%TD*%
D24*
%TO.P,C2,1*%
%TO.N,USB +*%
X99462500Y-68610000D03*
%TO.P,C2,2*%
%TO.N,Earth*%
X101537500Y-68610000D03*
%TD*%
%TO.P,C1,1*%
%TO.N,USB +*%
X99462500Y-66400000D03*
%TO.P,C1,2*%
%TO.N,Earth*%
X101537500Y-66400000D03*
%TD*%
D22*
%TO.P,C10,1*%
%TO.N,Earth*%
X106500000Y-77962500D03*
%TO.P,C10,2*%
%TO.N,+3V3*%
X106500000Y-80037500D03*
%TD*%
D25*
%TO.P,J2,A1,GND*%
%TO.N,Earth*%
X96804550Y-67749707D03*
%TO.P,J2,A4,VBUS*%
%TO.N,USB +*%
X96804550Y-68554633D03*
D26*
%TO.P,J2,A5,CC1*%
%TO.N,Net-(J2-CC1)*%
X96804550Y-69859685D03*
%TO.P,J2,A6,DP1*%
%TO.N,Draw+*%
X96804550Y-70859937D03*
%TO.P,J2,A7,DN1*%
%TO.N,Draw-*%
X96804550Y-71360063D03*
D25*
%TO.P,J2,A9,VBUS*%
%TO.N,USB +*%
X96804550Y-73665367D03*
%TO.P,J2,A12,GND*%
%TO.N,Earth*%
X96804550Y-74470293D03*
%TO.P,J2,B1,GND*%
X96804550Y-74165493D03*
%TO.P,J2,B4,VBUS*%
%TO.N,USB +*%
X96804550Y-73360567D03*
D26*
%TO.P,J2,B5,CC2*%
%TO.N,Net-(J2-CC2)*%
X96804550Y-72860441D03*
%TO.P,J2,B6,DP2*%
%TO.N,Draw+*%
X96804550Y-71860189D03*
%TO.P,J2,B7,DN2*%
%TO.N,Draw-*%
X96804550Y-70359811D03*
D25*
%TO.P,J2,B9,VBUS*%
%TO.N,USB +*%
X96804550Y-68859433D03*
%TO.P,J2,B12,GND*%
%TO.N,Earth*%
X96804550Y-68054507D03*
D27*
%TO.P,J2,S1,SHELL_GND*%
X96213550Y-66789998D03*
D28*
%TO.P,J2,S2,SHELL_GND*%
X92063550Y-66789968D03*
%TO.P,J2,S3,SHELL_GND*%
X92063550Y-75430032D03*
D27*
%TO.P,J2,S4,SHELL_GND*%
X96213550Y-75430002D03*
%TD*%
D15*
%TO.P,R8,1*%
%TO.N,DIO-*%
X106500000Y-72600000D03*
%TO.P,R8,2*%
%TO.N,D-*%
X104500000Y-72600000D03*
%TD*%
D22*
%TO.P,C9,1*%
%TO.N,Earth*%
X108800000Y-77962500D03*
%TO.P,C9,2*%
%TO.N,+3V3*%
X108800000Y-80037500D03*
%TD*%
D24*
%TO.P,C12,1*%
%TO.N,Earth*%
X111162500Y-53400000D03*
%TO.P,C12,2*%
%TO.N,+3V3*%
X113237500Y-53400000D03*
%TD*%
D11*
%TO.P,R2,1*%
%TO.N,Net-(J2-CC2)*%
X98950000Y-76800000D03*
%TO.P,R2,2*%
%TO.N,Earth*%
X98950000Y-74800000D03*
%TD*%
D29*
%TO.P,U5,1,IN*%
%TO.N,Net-(SW1-3)*%
X104000000Y-59925000D03*
%TO.P,U5,2,GND*%
%TO.N,Earth*%
X103050000Y-59925000D03*
%TO.P,U5,3,EN*%
%TO.N,Net-(SW1-3)*%
X102100000Y-59925000D03*
%TO.P,U5,4,NC*%
%TO.N,unconnected-(U5-NC-Pad4)*%
X102100000Y-62200000D03*
%TO.P,U5,5,OUT*%
%TO.N,+3V3*%
X104000000Y-62200000D03*
%TD*%
D21*
%TO.P,D2,1,K*%
%TO.N,Earth*%
X124200000Y-91225000D03*
%TO.P,D2,2,A*%
%TO.N,Net-(D2-A)*%
X124200000Y-89175000D03*
%TD*%
D11*
%TO.P,R5,1*%
%TO.N,+3V3*%
X120600000Y-53900000D03*
%TO.P,R5,2*%
%TO.N,Net-(SGP41-VDD)*%
X120600000Y-51900000D03*
%TD*%
D30*
%TO.P,SW1,1,1*%
%TO.N,Battery +*%
X93200000Y-52600000D03*
%TO.P,SW1,2,3*%
%TO.N,Net-(SW1-3)*%
X93200000Y-57300000D03*
%TO.P,SW1,3,4*%
%TO.N,USB +*%
X93200000Y-62000000D03*
%TD*%
D31*
%TO.P,U3,1,VDD*%
%TO.N,+3V3*%
X116250000Y-47600000D03*
%TO.P,U3,2,SCL*%
%TO.N,SCL*%
X116250000Y-48600000D03*
%TO.P,U3,3,SDA*%
%TO.N,SDA*%
X118100000Y-48600000D03*
%TO.P,U3,4,VSS*%
%TO.N,Earth*%
X118100000Y-47600000D03*
D32*
%TO.P,U3,5,NC*%
%TO.N,unconnected-(U3-NC-Pad5)*%
X117175000Y-48100000D03*
%TD*%
D22*
%TO.P,C5,1*%
%TO.N,Earth*%
X130100000Y-41662500D03*
%TO.P,C5,2*%
%TO.N,+3V3*%
X130100000Y-43737500D03*
%TD*%
D33*
%TO.P,U4,1,I/O1*%
%TO.N,Draw+*%
X99532300Y-70600000D03*
%TO.P,U4,2,GND*%
%TO.N,Earth*%
X99532300Y-71550000D03*
%TO.P,U4,3,I/O2*%
%TO.N,Draw-*%
X99532300Y-72500000D03*
%TO.P,U4,4,I/O2*%
%TO.N,D-*%
X101807300Y-72500000D03*
%TO.P,U4,5,VBUS*%
%TO.N,USB +*%
X101807300Y-71550000D03*
%TO.P,U4,6,I/O1*%
%TO.N,D+*%
X101807300Y-70600000D03*
%TD*%
D24*
%TO.P,C3,1*%
%TO.N,Net-(SW1-3)*%
X102200000Y-57300000D03*
%TO.P,C3,2*%
%TO.N,Earth*%
X104275000Y-57300000D03*
%TD*%
%TO.P,C7,1*%
%TO.N,Net-(SGP41-VDD)*%
X119762500Y-50000000D03*
%TO.P,C7,2*%
%TO.N,Earth*%
X121837500Y-50000000D03*
%TD*%
%TO.P,C11,1*%
%TO.N,Earth*%
X111162500Y-55500000D03*
%TO.P,C11,2*%
%TO.N,+3V3*%
X113237500Y-55500000D03*
%TD*%
D12*
%TO.P,C6,1*%
%TO.N,+3V3*%
X114537500Y-48000000D03*
%TO.P,C6,2*%
%TO.N,Earth*%
X112462500Y-48000000D03*
%TD*%
D11*
%TO.P,R3,1*%
%TO.N,SCL*%
X116000000Y-55700000D03*
%TO.P,R3,2*%
%TO.N,+3V3*%
X116000000Y-53700000D03*
%TD*%
D34*
%TO.P,J1,1,DAT2*%
%TO.N,unconnected-(J1-DAT2-Pad1)*%
X109895000Y-82410000D03*
%TO.P,J1,2,DAT3/CD*%
%TO.N,SD chip select*%
X110995000Y-82410000D03*
%TO.P,J1,3,CMD*%
%TO.N,SD MOSI*%
X112095000Y-82410000D03*
%TO.P,J1,4,VDD*%
%TO.N,+3V3*%
X113195000Y-82410000D03*
%TO.P,J1,5,CLK*%
%TO.N,SD clock*%
X114295000Y-82410000D03*
%TO.P,J1,6,VSS*%
%TO.N,Earth*%
X115395000Y-82410000D03*
%TO.P,J1,7,DAT0*%
%TO.N,SD MISO*%
X116495000Y-82410000D03*
%TO.P,J1,8,DAT1*%
%TO.N,unconnected-(J1-DAT1-Pad8)*%
X117595000Y-82410000D03*
D35*
%TO.P,J1,9,DSW2*%
%TO.N,SD card detect*%
X112295000Y-95300000D03*
D36*
%TO.P,J1,10,DSW1*%
%TO.N,Earth*%
X107755000Y-95225000D03*
D37*
%TO.P,J1,11,SHIELD*%
X105445000Y-82425000D03*
D38*
X105445000Y-94025000D03*
D39*
X118695000Y-82910000D03*
D38*
X118695000Y-94025000D03*
%TD*%
D40*
%TO.P,U1,1,3V3*%
%TO.N,+3V3*%
X120850000Y-57900000D03*
%TO.P,U1,2,EN*%
%TO.N,Net-(U1-EN)*%
X119350000Y-57900000D03*
%TO.P,U1,3,IO4*%
%TO.N,SDA*%
X117850000Y-57900000D03*
%TO.P,U1,4,IO5*%
%TO.N,SCL*%
X116350000Y-57900000D03*
%TO.P,U1,5,IO6*%
%TO.N,SD clock*%
X114850000Y-57900000D03*
%TO.P,U1,6,IO7*%
%TO.N,SD MOSI*%
X113350000Y-57900000D03*
%TO.P,U1,7,IO8*%
%TO.N,unconnected-(U1-IO8-Pad7)*%
X111850000Y-57900000D03*
%TO.P,U1,8,IO9*%
%TO.N,Net-(U1-IO9)*%
X110350000Y-57900000D03*
%TO.P,U1,9,GND*%
%TO.N,Earth*%
X108850000Y-57900000D03*
%TO.P,U1,10,IO10*%
%TO.N,SD MISO*%
X108850000Y-75400000D03*
%TO.P,U1,11,IO20/RXD*%
%TO.N,unconnected-(U1-IO20{slash}RXD-Pad11)*%
X110350000Y-75400000D03*
%TO.P,U1,12,IO21/TXD*%
%TO.N,unconnected-(U1-IO21{slash}TXD-Pad12)*%
X111850000Y-75400000D03*
%TO.P,U1,13,IO18*%
%TO.N,DIO-*%
X113350000Y-75400000D03*
%TO.P,U1,14,IO19*%
%TO.N,DIO+*%
X114850000Y-75400000D03*
%TO.P,U1,15,IO3*%
%TO.N,SD chip select*%
X116350000Y-75400000D03*
%TO.P,U1,16,IO2*%
%TO.N,unconnected-(U1-IO2-Pad16)*%
X117850000Y-75400000D03*
%TO.P,U1,17,IO1*%
%TO.N,SD card detect*%
X119350000Y-75400000D03*
%TO.P,U1,18,IO0*%
%TO.N,Net-(U1-IO0)*%
X120850000Y-75400000D03*
D41*
%TO.P,U1,19,GND*%
%TO.N,Earth*%
X115200000Y-66510000D03*
X114100000Y-66510000D03*
X115750000Y-67060000D03*
X114650000Y-67060000D03*
X113550000Y-67060000D03*
X115200000Y-67610000D03*
D42*
X114650000Y-67610000D03*
D41*
X114100000Y-67610000D03*
X115750000Y-68160000D03*
X114650000Y-68160000D03*
X113550000Y-68160000D03*
X115200000Y-68710000D03*
X114100000Y-68710000D03*
%TD*%
D23*
%TO.P,SW3,1,1*%
%TO.N,Earth*%
X98350000Y-95550000D03*
X91850000Y-95550000D03*
%TO.P,SW3,2,2*%
%TO.N,Net-(U1-IO9)*%
X98350000Y-91050000D03*
X91850000Y-91050000D03*
%TD*%
D19*
%TO.P,R6,1*%
%TO.N,Net-(U1-EN)*%
X92300000Y-78700000D03*
%TO.P,R6,2*%
%TO.N,+3V3*%
X94300000Y-78700000D03*
%TD*%
D43*
%TO.P,BT1,1,+*%
%TO.N,Coin Cell +*%
X104300000Y-48300000D03*
X107400000Y-48300000D03*
X104300000Y-27500000D03*
X107400000Y-27500000D03*
D44*
%TO.P,BT1,2,-*%
%TO.N,Earth*%
X105800000Y-37900000D03*
%TD*%
D45*
%TO.N,Earth*%
X111100000Y-48000000D03*
X116700000Y-38700000D03*
X116700000Y-40000000D03*
X117600000Y-94000000D03*
X116700000Y-36200000D03*
X117600000Y-83600000D03*
X107800000Y-94000000D03*
X108706238Y-76733639D03*
X117000000Y-52500000D03*
X119000000Y-47200000D03*
X111100000Y-50700000D03*
X98300000Y-71500000D03*
X117100000Y-49700000D03*
X102238419Y-58561581D03*
X123100000Y-50000000D03*
X102800000Y-66400000D03*
X129300000Y-40000000D03*
X115400000Y-83600000D03*
X129300000Y-37400000D03*
X116700000Y-41300000D03*
X108800000Y-56400000D03*
X129300000Y-36100000D03*
X106400000Y-76700000D03*
X102800000Y-68600000D03*
X116700000Y-37400000D03*
X129300000Y-38800000D03*
X104300000Y-94100000D03*
X105400000Y-57400000D03*
X104200000Y-82500000D03*
X93100000Y-48600000D03*
%TO.N,SD chip select*%
X110995000Y-81010000D03*
X116300000Y-77000000D03*
%TO.N,SD clock*%
X114900000Y-59400000D03*
X114295000Y-81010000D03*
%TO.N,SD MOSI*%
X113400000Y-59400000D03*
X112095000Y-81010000D03*
%TO.N,SCL*%
X115700000Y-49000000D03*
X115100000Y-52000000D03*
X114600000Y-55700000D03*
X120000000Y-45100000D03*
%TO.N,SDA*%
X119000000Y-52000000D03*
X119000000Y-48600000D03*
X119500000Y-55700000D03*
X120000000Y-43800000D03*
%TO.N,Net-(U1-EN)*%
X110400000Y-61000000D03*
%TO.N,+3V3*%
X117400000Y-84700000D03*
X128900000Y-84700000D03*
X99400000Y-64100000D03*
X93800000Y-77300000D03*
%TD*%
D46*
%TO.N,Coin Cell +*%
X115179372Y-42505000D02*
X118350000Y-42505000D01*
X107400000Y-48300000D02*
X109384372Y-48300000D01*
X109384372Y-48300000D02*
X115179372Y-42505000D01*
X104300000Y-48300000D02*
X107400000Y-48300000D01*
X104300000Y-27500000D02*
X107400000Y-27500000D01*
D47*
%TO.N,Earth*%
X98350000Y-71550000D02*
X98300000Y-71500000D01*
X96804550Y-67902107D02*
X96804550Y-67380998D01*
X96804550Y-67380998D02*
X96213550Y-66789998D01*
X96213550Y-66789998D02*
X96213550Y-67158707D01*
X103050000Y-59925000D02*
X103050000Y-59450000D01*
X96804550Y-67749707D02*
X96804550Y-68054507D01*
X92100000Y-86100000D02*
X98600000Y-86100000D01*
X96804550Y-74317893D02*
X96804550Y-74839002D01*
X96804550Y-74165493D02*
X96804550Y-74470293D01*
X96804550Y-74839002D02*
X96213550Y-75430002D01*
D48*
%TO.N,Battery +*%
X91500000Y-45300000D02*
X91500000Y-50900000D01*
X91500000Y-50900000D02*
X93200000Y-52600000D01*
X93100000Y-43700000D02*
X91500000Y-45300000D01*
%TO.N,USB +*%
X99326833Y-68707033D02*
X96512967Y-68707033D01*
X100639800Y-70020000D02*
X99326833Y-68707033D01*
X100639800Y-71370000D02*
X100639800Y-70020000D01*
X100645800Y-71003100D02*
X100645800Y-70720000D01*
X100819800Y-71550000D02*
X100639800Y-71370000D01*
X101192700Y-71550000D02*
X100645800Y-71003100D01*
X100386833Y-73512967D02*
X100639800Y-73260000D01*
X95321320Y-62000000D02*
X93200000Y-62000000D01*
X101192700Y-71550000D02*
X100645800Y-72096900D01*
X100639800Y-73260000D02*
X100639800Y-71370000D01*
X96804550Y-73512967D02*
X100386833Y-73512967D01*
D47*
X96804550Y-73665367D02*
X96804550Y-73360567D01*
D48*
X101807300Y-71550000D02*
X100819800Y-71550000D01*
X99326833Y-68707033D02*
X99326833Y-66005513D01*
X99326833Y-66005513D02*
X95321320Y-62000000D01*
X101807300Y-71550000D02*
X101192700Y-71550000D01*
D47*
X96804550Y-68554633D02*
X96804550Y-68859433D01*
D48*
X100645800Y-72096900D02*
X100645800Y-72600000D01*
D47*
%TO.N,Net-(SW1-3)*%
X104000000Y-59262501D02*
X104000000Y-59925000D01*
D48*
X99537500Y-57362500D02*
X102100000Y-59925000D01*
D47*
X99475000Y-57300000D02*
X99537500Y-57362500D01*
D48*
X99475000Y-57300000D02*
X102037499Y-57300000D01*
X102037499Y-57300000D02*
X104000000Y-59262501D01*
X93200000Y-57300000D02*
X99475000Y-57300000D01*
%TO.N,Net-(SGP41-VDD)*%
X120600000Y-50837500D02*
X119762500Y-50000000D01*
D47*
X119462500Y-50300000D02*
X119762500Y-50000000D01*
D48*
X120600000Y-51900000D02*
X120600000Y-50837500D01*
X118200000Y-50300000D02*
X119462500Y-50300000D01*
D47*
%TO.N,Net-(D1-A)*%
X131000000Y-83700000D02*
X131100000Y-83600000D01*
X131000000Y-89175000D02*
X131000000Y-83700000D01*
%TO.N,Net-(D2-A)*%
X124200000Y-83700000D02*
X124300000Y-83600000D01*
X124200000Y-89175000D02*
X124200000Y-83700000D01*
%TO.N,SD MISO*%
X115200000Y-78900000D02*
X116495000Y-80195000D01*
X108850000Y-75400000D02*
X108850000Y-75702000D01*
X108850000Y-75400000D02*
X108850000Y-75700000D01*
X116495000Y-80195000D02*
X116495000Y-82410000D01*
X112050000Y-78900000D02*
X115200000Y-78900000D01*
X108850000Y-75700000D02*
X112050000Y-78900000D01*
%TO.N,SD chip select*%
X116350000Y-75400000D02*
X116350000Y-76950000D01*
X116350000Y-76950000D02*
X116300000Y-77000000D01*
X110995000Y-81110000D02*
X110995000Y-82410000D01*
%TO.N,SD clock*%
X114850000Y-57900000D02*
X114850000Y-59350000D01*
X114850000Y-59350000D02*
X114900000Y-59400000D01*
X114295000Y-81010000D02*
X114295000Y-82410000D01*
%TO.N,SD card detect*%
X102600000Y-85605000D02*
X112295000Y-95300000D01*
X119431000Y-75481000D02*
X119350000Y-75400000D01*
X102600000Y-82100000D02*
X102600000Y-85605000D01*
X113600000Y-96200000D02*
X113195000Y-96200000D01*
X119426000Y-75476000D02*
X119350000Y-75400000D01*
X119700000Y-75750000D02*
X119700000Y-96200000D01*
X119700000Y-96200000D02*
X113600000Y-96200000D01*
X113195000Y-96200000D02*
X112295000Y-95300000D01*
X119350000Y-75400000D02*
X119700000Y-75750000D01*
%TO.N,SD MOSI*%
X113350000Y-57900000D02*
X113350000Y-59350000D01*
X112095000Y-81010000D02*
X112095000Y-82410000D01*
X113350000Y-59350000D02*
X113400000Y-59400000D01*
%TO.N,Draw+*%
X97677050Y-71813463D02*
X97630324Y-71860189D01*
X96804550Y-70859937D02*
X97630324Y-70859937D01*
X99532300Y-70600000D02*
X97890261Y-70600000D01*
X97677050Y-70906663D02*
X97677050Y-71813463D01*
X96804550Y-71860189D02*
X97609779Y-71860189D01*
X97630324Y-71860189D02*
X96804550Y-71860189D01*
X97630324Y-70859937D02*
X97890261Y-70600000D01*
X97630324Y-70859937D02*
X97677050Y-70906663D01*
%TO.N,Draw-*%
X95932050Y-71471528D02*
X95932050Y-72313589D01*
X96804550Y-70359811D02*
X95978776Y-70359811D01*
X95932050Y-71248598D02*
X96043515Y-71360063D01*
X95978776Y-70359811D02*
X95932050Y-70406537D01*
X99345889Y-72313589D02*
X99532300Y-72500000D01*
X95932050Y-72313589D02*
X99345889Y-72313589D01*
X96043515Y-71360063D02*
X96804550Y-71360063D01*
X95932050Y-70406537D02*
X95932050Y-71248598D01*
X96043515Y-71360063D02*
X95932050Y-71471528D01*
%TO.N,Net-(J2-CC1)*%
X100099000Y-77701000D02*
X101000000Y-76800000D01*
X95840315Y-69859685D02*
X94406650Y-71293350D01*
X94406650Y-75952243D02*
X96155407Y-77701000D01*
X96155407Y-77701000D02*
X100099000Y-77701000D01*
X96804550Y-69859685D02*
X95840315Y-69859685D01*
X94406650Y-71293350D02*
X94406650Y-75952243D01*
%TO.N,Net-(J2-CC2)*%
X94807650Y-73942537D02*
X94807650Y-75786143D01*
X95889746Y-72860441D02*
X94807650Y-73942537D01*
X95821507Y-76800000D02*
X98950000Y-76800000D01*
X96804550Y-72860441D02*
X95889746Y-72860441D01*
X94807650Y-75786143D02*
X95821507Y-76800000D01*
%TO.N,SCL*%
X115700000Y-49000000D02*
X115850000Y-49000000D01*
X116350000Y-57900000D02*
X116350000Y-56050000D01*
X115800000Y-52000000D02*
X115900000Y-51900000D01*
X115100000Y-52000000D02*
X115800000Y-52000000D01*
X116000000Y-55700000D02*
X114600000Y-55700000D01*
X120000000Y-45100000D02*
X118405000Y-45100000D01*
X116350000Y-56050000D02*
X116000000Y-55700000D01*
X115850000Y-49000000D02*
X116250000Y-48600000D01*
X118405000Y-45100000D02*
X118350000Y-45045000D01*
%TO.N,SDA*%
X118300000Y-52000000D02*
X118200000Y-51900000D01*
X117850000Y-57900000D02*
X117850000Y-57100000D01*
X119000000Y-52000000D02*
X118300000Y-52000000D01*
X118100000Y-55700000D02*
X119500000Y-55700000D01*
X120000000Y-43800000D02*
X118375000Y-43800000D01*
X119000000Y-48600000D02*
X118100000Y-48600000D01*
X117850000Y-55950000D02*
X118100000Y-55700000D01*
X118375000Y-43800000D02*
X118350000Y-43775000D01*
X117850000Y-57100000D02*
X117850000Y-55950000D01*
%TO.N,Net-(U1-EN)*%
X98600000Y-81600000D02*
X92100000Y-81600000D01*
X110400000Y-61000000D02*
X116550000Y-61000000D01*
X92300000Y-81400000D02*
X92100000Y-81600000D01*
X119350000Y-58200000D02*
X119350000Y-57900000D01*
X116550000Y-61000000D02*
X119350000Y-58200000D01*
X92300000Y-78700000D02*
X92300000Y-81400000D01*
%TO.N,Net-(U1-IO9)*%
X108748943Y-55499000D02*
X110350000Y-57100057D01*
X91850000Y-91050000D02*
X90799000Y-89999000D01*
X90799000Y-89999000D02*
X90799000Y-57154001D01*
X98500000Y-90900000D02*
X98350000Y-91050000D01*
X90799000Y-57154001D02*
X92454001Y-55499000D01*
X110350000Y-57100057D02*
X110350000Y-57900000D01*
X92454001Y-55499000D02*
X108748943Y-55499000D01*
X101400000Y-90900000D02*
X98500000Y-90900000D01*
X91850000Y-91050000D02*
X98350000Y-91050000D01*
%TO.N,D+*%
X103775000Y-71325000D02*
X104500000Y-70600000D01*
X101807300Y-70600000D02*
X102801051Y-70600000D01*
X103526051Y-71325000D02*
X103775000Y-71325000D01*
X104400000Y-70600000D02*
X104500000Y-70500000D01*
X102801051Y-70600000D02*
X103526051Y-71325000D01*
%TO.N,Net-(U1-IO0)*%
X120850000Y-82150000D02*
X120850000Y-75400000D01*
X122300000Y-83600000D02*
X120850000Y-82150000D01*
%TO.N,D-*%
X103678364Y-71778364D02*
X104500000Y-72600000D01*
X101807300Y-72500000D02*
X102801051Y-72500000D01*
X103526051Y-71775000D02*
X103678364Y-71775000D01*
X103678364Y-71775000D02*
X103678364Y-71778364D01*
X102801051Y-72500000D02*
X103526051Y-71775000D01*
D48*
%TO.N,+3V3*%
X126625001Y-43775000D02*
X127650000Y-43775000D01*
X93800000Y-78200000D02*
X94300000Y-78700000D01*
X113200000Y-83900000D02*
X112400000Y-84700000D01*
X101000000Y-80100000D02*
X101000000Y-88500000D01*
X93800000Y-77300000D02*
X93800000Y-78200000D01*
X113200000Y-82415000D02*
X113200000Y-83900000D01*
X114349000Y-51688925D02*
X114349000Y-49226001D01*
X115300000Y-53700000D02*
X114349000Y-52749000D01*
X120900000Y-54500000D02*
X120600000Y-54200000D01*
X114537500Y-49037501D02*
X114537500Y-48000000D01*
D47*
X113195000Y-82410000D02*
X113200000Y-82415000D01*
D48*
X104000000Y-63700000D02*
X104300000Y-64000000D01*
D46*
X118400000Y-53700000D02*
X118100000Y-53700000D01*
D48*
X117200000Y-53700000D02*
X118100000Y-53700000D01*
X107700000Y-80037500D02*
X108800000Y-80037500D01*
X107337500Y-80100000D02*
X102600000Y-80100000D01*
X127650000Y-43775000D02*
X130062500Y-43775000D01*
X112400000Y-84700000D02*
X109200000Y-84700000D01*
X112400000Y-84700000D02*
X117400000Y-84700000D01*
X130062500Y-43775000D02*
X130100000Y-43737500D01*
X114349000Y-51688925D02*
X114937925Y-51100000D01*
X114349000Y-49226001D02*
X115975001Y-47600000D01*
X104000000Y-62200000D02*
X104000000Y-63700000D01*
X115575001Y-48000000D02*
X115975001Y-47600000D01*
X114937925Y-51100000D02*
X115900000Y-51100000D01*
X115975001Y-47600000D02*
X116250000Y-47600000D01*
X114349000Y-49226001D02*
X114537500Y-49037501D01*
X114349000Y-52749000D02*
X114349000Y-51688925D01*
X106500000Y-80037500D02*
X107700000Y-80037500D01*
X114349000Y-52749000D02*
X113888500Y-52749000D01*
X120850000Y-57900000D02*
X120850000Y-59150000D01*
D47*
X106437500Y-80100000D02*
X106500000Y-80037500D01*
D48*
X113888500Y-52749000D02*
X113237500Y-53400000D01*
X123951001Y-46449000D02*
X126625001Y-43775000D01*
X116000000Y-53700000D02*
X115300000Y-53700000D01*
X107400000Y-80037500D02*
X107337500Y-80100000D01*
X120850000Y-59150000D02*
X117800000Y-62200000D01*
X104300000Y-64000000D02*
X99500000Y-64000000D01*
X113237500Y-53400000D02*
X113237500Y-55500000D01*
X109200000Y-84700000D02*
X107700000Y-83200000D01*
X117126001Y-46449000D02*
X123951001Y-46449000D01*
X107700000Y-83200000D02*
X107700000Y-80037500D01*
X115975001Y-47600000D02*
X117126001Y-46449000D01*
X120900000Y-57850000D02*
X120850000Y-57900000D01*
X101000000Y-88500000D02*
X101400000Y-88900000D01*
D47*
X117000000Y-53700000D02*
X117100000Y-53800000D01*
D48*
X120100000Y-53700000D02*
X120900000Y-54500000D01*
X116000000Y-53700000D02*
X117000000Y-53700000D01*
X117000000Y-53700000D02*
X117200000Y-53700000D01*
X117200000Y-53700000D02*
X120100000Y-53700000D01*
X107700000Y-80037500D02*
X107400000Y-80037500D01*
X102600000Y-80100000D02*
X101000000Y-80100000D01*
X120900000Y-54500000D02*
X120900000Y-57850000D01*
X117800000Y-62200000D02*
X104000000Y-62200000D01*
X114537500Y-48000000D02*
X115575001Y-48000000D01*
X101000000Y-80100000D02*
X95700000Y-80100000D01*
X128900000Y-83800000D02*
X129100000Y-83600000D01*
X128900000Y-84700000D02*
X128900000Y-83800000D01*
X99500000Y-64000000D02*
X99400000Y-64100000D01*
X95700000Y-80100000D02*
X94300000Y-78700000D01*
D47*
%TO.N,DIO-*%
X108325001Y-71825000D02*
X110638603Y-71825000D01*
X113350000Y-74536397D02*
X113350000Y-75400000D01*
X106500000Y-72600000D02*
X107550001Y-72600000D01*
X107550001Y-72600000D02*
X108325001Y-71825000D01*
X110638603Y-71825000D02*
X113350000Y-74536397D01*
%TO.N,DIO+*%
X108325001Y-71375000D02*
X110825000Y-71375000D01*
X114101000Y-74349000D02*
X114101000Y-74651000D01*
X114101000Y-74651000D02*
X114850000Y-75400000D01*
X106500000Y-70600000D02*
X107550001Y-70600000D01*
X110825000Y-71375000D02*
X113799000Y-74349000D01*
X113799000Y-74349000D02*
X114101000Y-74349000D01*
X107550001Y-70600000D02*
X108325001Y-71375000D01*
%TD*%
%TA.AperFunction,Conductor*%
%TO.N,USB +*%
G36*
X94419192Y-61130403D02*
G01*
X95745512Y-62073894D01*
X95750267Y-62081482D01*
X95748264Y-62090210D01*
X95747003Y-62091701D01*
X95404384Y-62434320D01*
X95401817Y-62436261D01*
X94198216Y-63108575D01*
X94189322Y-63109618D01*
X94183768Y-63106137D01*
X93207912Y-62008983D01*
X93204974Y-62000524D01*
X93208878Y-61992465D01*
X93209808Y-61991718D01*
X94405573Y-61130442D01*
X94414288Y-61128389D01*
X94419192Y-61130403D01*
G37*
%TD.AperFunction*%
%TD*%
%TA.AperFunction,Conductor*%
%TO.N,Draw+*%
G36*
X97392948Y-70713347D02*
G01*
X97520554Y-70757222D01*
X97527264Y-70763152D01*
X97528450Y-70768286D01*
X97528450Y-70951587D01*
X97525023Y-70959860D01*
X97520554Y-70962651D01*
X97392948Y-71006527D01*
X97389144Y-71007163D01*
X97358144Y-71007163D01*
X97355134Y-71006769D01*
X97132021Y-70947376D01*
X96846020Y-70871242D01*
X96838908Y-70865804D01*
X96837725Y-70856927D01*
X96843164Y-70849814D01*
X96846019Y-70848631D01*
X97189405Y-70757222D01*
X97355134Y-70713105D01*
X97358144Y-70712711D01*
X97389144Y-70712711D01*
X97392948Y-70713347D01*
G37*
%TD.AperFunction*%
%TD*%
%TA.AperFunction,Conductor*%
%TO.N,Battery +*%
G36*
X91751184Y-50817243D02*
G01*
X93154155Y-51110934D01*
X93161551Y-51115983D01*
X93163454Y-51122097D01*
X93199680Y-52588080D01*
X93196459Y-52596435D01*
X93188273Y-52600065D01*
X93187113Y-52600037D01*
X91721042Y-52490535D01*
X91713047Y-52486501D01*
X91710638Y-52481989D01*
X91254100Y-50831815D01*
X91255196Y-50822928D01*
X91262256Y-50817420D01*
X91265376Y-50816996D01*
X91748788Y-50816996D01*
X91751184Y-50817243D01*
G37*
%TD.AperFunction*%
%TD*%
%TA.AperFunction,Conductor*%
%TO.N,Net-(SW1-3)*%
G36*
X94310457Y-56303948D02*
G01*
X95681041Y-57046680D01*
X95686683Y-57053635D01*
X95687167Y-57056967D01*
X95687167Y-57543032D01*
X95683740Y-57551305D01*
X95681041Y-57553319D01*
X94310457Y-58296051D01*
X94301551Y-58296980D01*
X94297029Y-58294436D01*
X93208575Y-57308672D01*
X93204743Y-57300579D01*
X93207757Y-57292146D01*
X93208575Y-57291328D01*
X93475043Y-57050000D01*
X94297029Y-56305562D01*
X94305462Y-56302549D01*
X94310457Y-56303948D01*
G37*
%TD.AperFunction*%
%TD*%
%TA.AperFunction,Conductor*%
%TO.N,Draw-*%
G36*
X96253966Y-71213231D02*
G01*
X96763078Y-71348757D01*
X96770191Y-71354196D01*
X96771374Y-71363073D01*
X96765935Y-71370186D01*
X96763078Y-71371369D01*
X96253966Y-71506895D01*
X96250956Y-71507289D01*
X96219956Y-71507289D01*
X96216152Y-71506653D01*
X96088546Y-71462777D01*
X96081836Y-71456847D01*
X96080650Y-71451713D01*
X96080650Y-71268412D01*
X96084077Y-71260139D01*
X96088546Y-71257348D01*
X96216152Y-71213473D01*
X96219956Y-71212837D01*
X96250956Y-71212837D01*
X96253966Y-71213231D01*
G37*
%TD.AperFunction*%
%TD*%
%TA.AperFunction,Conductor*%
%TO.N,Draw+*%
G36*
X97392948Y-71713599D02*
G01*
X97520554Y-71757474D01*
X97527264Y-71763404D01*
X97528450Y-71768538D01*
X97528450Y-71951839D01*
X97525023Y-71960112D01*
X97520554Y-71962903D01*
X97379420Y-72011430D01*
X97372606Y-72011672D01*
X97094692Y-71937691D01*
X96846020Y-71871494D01*
X96838908Y-71866056D01*
X96837725Y-71857179D01*
X96843164Y-71850066D01*
X96846019Y-71848883D01*
X97189405Y-71757474D01*
X97355134Y-71713357D01*
X97358144Y-71712963D01*
X97389144Y-71712963D01*
X97392948Y-71713599D01*
G37*
%TD.AperFunction*%
%TD*%
%TA.AperFunction,Conductor*%
%TO.N,+3V3*%
G36*
X104005902Y-62212091D02*
G01*
X104010102Y-62216291D01*
X104298046Y-62709155D01*
X104299572Y-62716349D01*
X104251156Y-63152092D01*
X104246837Y-63159936D01*
X104239528Y-63162500D01*
X103760472Y-63162500D01*
X103752199Y-63159073D01*
X103748844Y-63152092D01*
X103729477Y-62977794D01*
X103700427Y-62716346D01*
X103701952Y-62709158D01*
X103989898Y-62216290D01*
X103997030Y-62210876D01*
X104005902Y-62212091D01*
G37*
%TD.AperFunction*%
%TD*%
%TA.AperFunction,Conductor*%
%TO.N,+3V3*%
G36*
X104305917Y-61900986D02*
G01*
X104590224Y-61948370D01*
X104597821Y-61953111D01*
X104600000Y-61959911D01*
X104600000Y-62440088D01*
X104596573Y-62448361D01*
X104590223Y-62451629D01*
X104305926Y-62499012D01*
X104297203Y-62496992D01*
X104295744Y-62495758D01*
X104239888Y-62440088D01*
X104007313Y-62208285D01*
X104003873Y-62200019D01*
X104007285Y-62191741D01*
X104295745Y-61904240D01*
X104304022Y-61900828D01*
X104305917Y-61900986D01*
G37*
%TD.AperFunction*%
%TD*%
%TA.AperFunction,Conductor*%
%TO.N,Draw+*%
G36*
X97392948Y-71713599D02*
G01*
X97520554Y-71757474D01*
X97527264Y-71763404D01*
X97528450Y-71768538D01*
X97528450Y-71951839D01*
X97525023Y-71960112D01*
X97520554Y-71962903D01*
X97379420Y-72011430D01*
X97372606Y-72011672D01*
X97094692Y-71937691D01*
X96846020Y-71871494D01*
X96838908Y-71866056D01*
X96837725Y-71857179D01*
X96843164Y-71850066D01*
X96846019Y-71848883D01*
X97189405Y-71757474D01*
X97355134Y-71713357D01*
X97358144Y-71712963D01*
X97389144Y-71712963D01*
X97392948Y-71713599D01*
G37*
%TD.AperFunction*%
%TD*%
%TA.AperFunction,Conductor*%
%TO.N,Net-(SW1-3)*%
G36*
X103969432Y-58885349D02*
G01*
X103971740Y-58888628D01*
X104146478Y-59258877D01*
X104147318Y-59266411D01*
X104002524Y-59917531D01*
X103997383Y-59924863D01*
X103992381Y-59926621D01*
X103711497Y-59957486D01*
X103702899Y-59954983D01*
X103698604Y-59947268D01*
X103611778Y-59232798D01*
X103614182Y-59224173D01*
X103615112Y-59223123D01*
X103952887Y-58885348D01*
X103961159Y-58881922D01*
X103969432Y-58885349D01*
G37*
%TD.AperFunction*%
%TD*%
%TA.AperFunction,Conductor*%
%TO.N,Net-(SW1-3)*%
G36*
X101771773Y-59238887D02*
G01*
X101875908Y-59279714D01*
X101882359Y-59285924D01*
X101882710Y-59286829D01*
X102097152Y-59915290D01*
X102096581Y-59924226D01*
X102090526Y-59929890D01*
X101807878Y-60046026D01*
X101798923Y-60046001D01*
X101794499Y-60042762D01*
X101606075Y-59820079D01*
X101418044Y-59597861D01*
X101415317Y-59589333D01*
X101418703Y-59582033D01*
X101759230Y-59241506D01*
X101767502Y-59238080D01*
X101771773Y-59238887D01*
G37*
%TD.AperFunction*%
%TD*%
%TA.AperFunction,Conductor*%
%TO.N,Draw-*%
G36*
X96253966Y-70212979D02*
G01*
X96763078Y-70348505D01*
X96770191Y-70353944D01*
X96771374Y-70362821D01*
X96765935Y-70369934D01*
X96763078Y-70371117D01*
X96253966Y-70506643D01*
X96250956Y-70507037D01*
X96219956Y-70507037D01*
X96216152Y-70506401D01*
X96088546Y-70462525D01*
X96081836Y-70456595D01*
X96080650Y-70451461D01*
X96080650Y-70268160D01*
X96084077Y-70259887D01*
X96088546Y-70257096D01*
X96216152Y-70213221D01*
X96219956Y-70212585D01*
X96250956Y-70212585D01*
X96253966Y-70212979D01*
G37*
%TD.AperFunction*%
%TD*%
%TA.AperFunction,Conductor*%
%TO.N,Earth*%
G36*
X98688435Y-70920462D02*
G01*
X98720263Y-70949361D01*
X98721872Y-70947753D01*
X98813314Y-71039196D01*
X98813318Y-71039199D01*
X98918405Y-71090573D01*
X98986531Y-71100499D01*
X98986537Y-71100499D01*
X98986540Y-71100500D01*
X98986541Y-71100500D01*
X100040300Y-71100500D01*
X100114800Y-71120462D01*
X100169338Y-71175000D01*
X100189300Y-71249500D01*
X100189300Y-71850500D01*
X100169338Y-71925000D01*
X100114800Y-71979538D01*
X100040300Y-71999500D01*
X98986531Y-71999500D01*
X98906957Y-72011095D01*
X98906748Y-72009663D01*
X98884060Y-72013089D01*
X98126379Y-72013089D01*
X98051879Y-71993127D01*
X97997341Y-71938589D01*
X97977379Y-71864089D01*
X97977550Y-71861480D01*
X97977550Y-71049500D01*
X97997512Y-70975000D01*
X98052050Y-70920462D01*
X98126550Y-70900500D01*
X98613935Y-70900500D01*
X98688435Y-70920462D01*
G37*
%TD.AperFunction*%
%TA.AperFunction,Conductor*%
G36*
X103406924Y-26220462D02*
G01*
X103461462Y-26275000D01*
X103481424Y-26349500D01*
X103461462Y-26424000D01*
X103424126Y-26465467D01*
X103424661Y-26466093D01*
X103420206Y-26469897D01*
X103269897Y-26620206D01*
X103269895Y-26620209D01*
X103144950Y-26792181D01*
X103144950Y-26792182D01*
X103144949Y-26792184D01*
X103048443Y-26981588D01*
X102982754Y-27183757D01*
X102949500Y-27393713D01*
X102949500Y-27606287D01*
X102982754Y-27816243D01*
X103048443Y-28018412D01*
X103141221Y-28200500D01*
X103144950Y-28207817D01*
X103144950Y-28207818D01*
X103184258Y-28261921D01*
X103269896Y-28379792D01*
X103420208Y-28530104D01*
X103592184Y-28655051D01*
X103781588Y-28751557D01*
X103983757Y-28817246D01*
X104193713Y-28850500D01*
X104193718Y-28850500D01*
X104406282Y-28850500D01*
X104406287Y-28850500D01*
X104616243Y-28817246D01*
X104818412Y-28751557D01*
X105007816Y-28655051D01*
X105179792Y-28530104D01*
X105330104Y-28379792D01*
X105415742Y-28261921D01*
X105475682Y-28213382D01*
X105536286Y-28200500D01*
X106163714Y-28200500D01*
X106238214Y-28220462D01*
X106284258Y-28261921D01*
X106369890Y-28379785D01*
X106369895Y-28379791D01*
X106369896Y-28379792D01*
X106520208Y-28530104D01*
X106692184Y-28655051D01*
X106881588Y-28751557D01*
X107083757Y-28817246D01*
X107293713Y-28850500D01*
X107293718Y-28850500D01*
X107506282Y-28850500D01*
X107506287Y-28850500D01*
X107716243Y-28817246D01*
X107918412Y-28751557D01*
X108107816Y-28655051D01*
X108279792Y-28530104D01*
X108430104Y-28379792D01*
X108555051Y-28207816D01*
X108651557Y-28018412D01*
X108717246Y-27816243D01*
X108750500Y-27606287D01*
X108750500Y-27393713D01*
X108717246Y-27183757D01*
X108651557Y-26981588D01*
X108555051Y-26792184D01*
X108430104Y-26620208D01*
X108279792Y-26469896D01*
X108279790Y-26469895D01*
X108275339Y-26466093D01*
X108276086Y-26465217D01*
X108231455Y-26410098D01*
X108219393Y-26333919D01*
X108247036Y-26261915D01*
X108306978Y-26213379D01*
X108367576Y-26200500D01*
X132050500Y-26200500D01*
X132125000Y-26220462D01*
X132179538Y-26275000D01*
X132199500Y-26349500D01*
X132199500Y-52501000D01*
X132179538Y-52575500D01*
X132125000Y-52630038D01*
X132050500Y-52650000D01*
X121950000Y-52650000D01*
X121950000Y-80650000D01*
X132050500Y-80650000D01*
X132125000Y-80669962D01*
X132179538Y-80724500D01*
X132199500Y-80799000D01*
X132199500Y-97150500D01*
X132179538Y-97225000D01*
X132125000Y-97279538D01*
X132050500Y-97299500D01*
X88849500Y-97299500D01*
X88775000Y-97279538D01*
X88720462Y-97225000D01*
X88700500Y-97150500D01*
X88700500Y-57114438D01*
X90498500Y-57114438D01*
X90498500Y-90038562D01*
X90518979Y-90114991D01*
X90530133Y-90134309D01*
X90530134Y-90134310D01*
X90558540Y-90183511D01*
X90737440Y-90362411D01*
X90776004Y-90429206D01*
X90776004Y-90506334D01*
X90764842Y-90535413D01*
X90737456Y-90589161D01*
X90737454Y-90589165D01*
X90737453Y-90589168D01*
X90679060Y-90768882D01*
X90649500Y-90955519D01*
X90649500Y-91144481D01*
X90679060Y-91331118D01*
X90737453Y-91510832D01*
X90823240Y-91679199D01*
X90934310Y-91832073D01*
X91067927Y-91965690D01*
X91220801Y-92076760D01*
X91389168Y-92162547D01*
X91568882Y-92220940D01*
X91755519Y-92250500D01*
X91755524Y-92250500D01*
X91944476Y-92250500D01*
X91944481Y-92250500D01*
X92131118Y-92220940D01*
X92310832Y-92162547D01*
X92479199Y-92076760D01*
X92632073Y-91965690D01*
X92765690Y-91832073D01*
X92876760Y-91679199D01*
X92962547Y-91510832D01*
X92981190Y-91453453D01*
X93023195Y-91388772D01*
X93091916Y-91353756D01*
X93122896Y-91350500D01*
X97077104Y-91350500D01*
X97151604Y-91370462D01*
X97206142Y-91425000D01*
X97218807Y-91453446D01*
X97237453Y-91510832D01*
X97323240Y-91679199D01*
X97434310Y-91832073D01*
X97567927Y-91965690D01*
X97720801Y-92076760D01*
X97889168Y-92162547D01*
X98068882Y-92220940D01*
X98255519Y-92250500D01*
X98255524Y-92250500D01*
X98444476Y-92250500D01*
X98444481Y-92250500D01*
X98631118Y-92220940D01*
X98810832Y-92162547D01*
X98979199Y-92076760D01*
X99132073Y-91965690D01*
X99265690Y-91832073D01*
X99376760Y-91679199D01*
X99462547Y-91510832D01*
X99520940Y-91331118D01*
X99521720Y-91326192D01*
X99553090Y-91255733D01*
X99615487Y-91210397D01*
X99668886Y-91200500D01*
X100354088Y-91200500D01*
X100428588Y-91220462D01*
X100483126Y-91275000D01*
X100499399Y-91326060D01*
X100500418Y-91325838D01*
X100502353Y-91334695D01*
X100502353Y-91334697D01*
X100502354Y-91334699D01*
X100514868Y-91370462D01*
X100547207Y-91462883D01*
X100627848Y-91572148D01*
X100627851Y-91572151D01*
X100737116Y-91652792D01*
X100737117Y-91652792D01*
X100737118Y-91652793D01*
X100865301Y-91697646D01*
X100895734Y-91700500D01*
X100895741Y-91700500D01*
X101904259Y-91700500D01*
X101904266Y-91700500D01*
X101934699Y-91697646D01*
X102062882Y-91652793D01*
X102172150Y-91572150D01*
X102252793Y-91462882D01*
X102297646Y-91334699D01*
X102300500Y-91304266D01*
X102300500Y-90495734D01*
X102297646Y-90465301D01*
X102252793Y-90337118D01*
X102172150Y-90227850D01*
X102172148Y-90227848D01*
X102062883Y-90147207D01*
X102003042Y-90126268D01*
X101934699Y-90102354D01*
X101934697Y-90102353D01*
X101934695Y-90102353D01*
X101904275Y-90099500D01*
X101904266Y-90099500D01*
X100895734Y-90099500D01*
X100895724Y-90099500D01*
X100865304Y-90102353D01*
X100737116Y-90147207D01*
X100627851Y-90227848D01*
X100627848Y-90227851D01*
X100547207Y-90337116D01*
X100502353Y-90465304D01*
X100500418Y-90474162D01*
X100498938Y-90473838D01*
X100475608Y-90536720D01*
X100416217Y-90585929D01*
X100354088Y-90599500D01*
X99559119Y-90599500D01*
X99484619Y-90579538D01*
X99430081Y-90525000D01*
X99426359Y-90518145D01*
X99420341Y-90506334D01*
X99376760Y-90420801D01*
X99265690Y-90267927D01*
X99132073Y-90134310D01*
X98979199Y-90023240D01*
X98810832Y-89937453D01*
X98631118Y-89879060D01*
X98444481Y-89849500D01*
X98255519Y-89849500D01*
X98068882Y-89879060D01*
X97948515Y-89918170D01*
X97889168Y-89937453D01*
X97889163Y-89937455D01*
X97889157Y-89937458D01*
X97720804Y-90023238D01*
X97720799Y-90023241D01*
X97567936Y-90134303D01*
X97567930Y-90134307D01*
X97567929Y-90134309D01*
X97567925Y-90134312D01*
X97434312Y-90267925D01*
X97434303Y-90267936D01*
X97323241Y-90420799D01*
X97323238Y-90420804D01*
X97237458Y-90589157D01*
X97237453Y-90589166D01*
X97237453Y-90589168D01*
X97218809Y-90646546D01*
X97176805Y-90711228D01*
X97108084Y-90746244D01*
X97077104Y-90749500D01*
X93122896Y-90749500D01*
X93048396Y-90729538D01*
X92993858Y-90675000D01*
X92981192Y-90646553D01*
X92962547Y-90589168D01*
X92876760Y-90420801D01*
X92765690Y-90267927D01*
X92632073Y-90134310D01*
X92479199Y-90023240D01*
X92310832Y-89937453D01*
X92131118Y-89879060D01*
X91944481Y-89849500D01*
X91755519Y-89849500D01*
X91568882Y-89879060D01*
X91448515Y-89918170D01*
X91389168Y-89937453D01*
X91389165Y-89937454D01*
X91389161Y-89937456D01*
X91335413Y-89964842D01*
X91319988Y-89968120D01*
X91306334Y-89976004D01*
X91282898Y-89976004D01*
X91259971Y-89980877D01*
X91244974Y-89976004D01*
X91229206Y-89976004D01*
X91208907Y-89964284D01*
X91186618Y-89957042D01*
X91162411Y-89937440D01*
X91143141Y-89918170D01*
X91104577Y-89851375D01*
X91099500Y-89812811D01*
X91099500Y-82649421D01*
X91119462Y-82574921D01*
X91174000Y-82520383D01*
X91248500Y-82500421D01*
X91323000Y-82520383D01*
X91336058Y-82528863D01*
X91470801Y-82626760D01*
X91639168Y-82712547D01*
X91818882Y-82770940D01*
X92005519Y-82800500D01*
X92005524Y-82800500D01*
X92194476Y-82800500D01*
X92194481Y-82800500D01*
X92381118Y-82770940D01*
X92560832Y-82712547D01*
X92729199Y-82626760D01*
X92882073Y-82515690D01*
X93015690Y-82382073D01*
X93126760Y-82229199D01*
X93212547Y-82060832D01*
X93231190Y-82003453D01*
X93273195Y-81938772D01*
X93341916Y-81903756D01*
X93372896Y-81900500D01*
X97327104Y-81900500D01*
X97401604Y-81920462D01*
X97456142Y-81975000D01*
X97468807Y-82003446D01*
X97487453Y-82060832D01*
X97573240Y-82229199D01*
X97684310Y-82382073D01*
X97817927Y-82515690D01*
X97970801Y-82626760D01*
X98139168Y-82712547D01*
X98318882Y-82770940D01*
X98505519Y-82800500D01*
X98505524Y-82800500D01*
X98694476Y-82800500D01*
X98694481Y-82800500D01*
X98881118Y-82770940D01*
X99060832Y-82712547D01*
X99229199Y-82626760D01*
X99382073Y-82515690D01*
X99515690Y-82382073D01*
X99626760Y-82229199D01*
X99712547Y-82060832D01*
X99770940Y-81881118D01*
X99800500Y-81694481D01*
X99800500Y-81505519D01*
X99770940Y-81318882D01*
X99712547Y-81139168D01*
X99626760Y-80970801D01*
X99515690Y-80817927D01*
X99502619Y-80804856D01*
X99464057Y-80738064D01*
X99464057Y-80660936D01*
X99502621Y-80594141D01*
X99569416Y-80555577D01*
X99607980Y-80550500D01*
X100400500Y-80550500D01*
X100475000Y-80570462D01*
X100529538Y-80625000D01*
X100549500Y-80699500D01*
X100549500Y-88305249D01*
X100541139Y-88354458D01*
X100524380Y-88402354D01*
X100502353Y-88465304D01*
X100499500Y-88495724D01*
X100499500Y-89304275D01*
X100502353Y-89334695D01*
X100547207Y-89462883D01*
X100627848Y-89572148D01*
X100627851Y-89572151D01*
X100737116Y-89652792D01*
X100737117Y-89652792D01*
X100737118Y-89652793D01*
X100865301Y-89697646D01*
X100895734Y-89700500D01*
X100895741Y-89700500D01*
X101904259Y-89700500D01*
X101904266Y-89700500D01*
X101934699Y-89697646D01*
X102062882Y-89652793D01*
X102172150Y-89572150D01*
X102252793Y-89462882D01*
X102297646Y-89334699D01*
X102300500Y-89304266D01*
X102300500Y-88495734D01*
X102297646Y-88465301D01*
X102252793Y-88337118D01*
X102188866Y-88250500D01*
X102172151Y-88227851D01*
X102172148Y-88227848D01*
X102062883Y-88147207D01*
X102003042Y-88126268D01*
X101934699Y-88102354D01*
X101934697Y-88102353D01*
X101934695Y-88102353D01*
X101904275Y-88099500D01*
X101904266Y-88099500D01*
X101599500Y-88099500D01*
X101525000Y-88079538D01*
X101470462Y-88025000D01*
X101450500Y-87950500D01*
X101450500Y-82691893D01*
X101470462Y-82617393D01*
X101525000Y-82562855D01*
X101599500Y-82542893D01*
X101674000Y-82562855D01*
X101728538Y-82617393D01*
X101740139Y-82642683D01*
X101747206Y-82662882D01*
X101827848Y-82772148D01*
X101827851Y-82772151D01*
X101937116Y-82852792D01*
X101937117Y-82852792D01*
X101937118Y-82852793D01*
X102065301Y-82897646D01*
X102095734Y-82900500D01*
X102150500Y-82900500D01*
X102225000Y-82920462D01*
X102279538Y-82975000D01*
X102299500Y-83049500D01*
X102299500Y-85644562D01*
X102319979Y-85720989D01*
X102359540Y-85789511D01*
X111525859Y-94955830D01*
X111564423Y-95022625D01*
X111569500Y-95061189D01*
X111569500Y-95610206D01*
X111575587Y-95656443D01*
X111622907Y-95757920D01*
X111702080Y-95837093D01*
X111803557Y-95884413D01*
X111849794Y-95890500D01*
X112398811Y-95890500D01*
X112473311Y-95910462D01*
X112504170Y-95934141D01*
X112954540Y-96384511D01*
X113010489Y-96440460D01*
X113079011Y-96480021D01*
X113155438Y-96500500D01*
X113155443Y-96500500D01*
X119739557Y-96500500D01*
X119739562Y-96500500D01*
X119815989Y-96480021D01*
X119884511Y-96440460D01*
X119940460Y-96384511D01*
X119980021Y-96315989D01*
X120000500Y-96239562D01*
X120000500Y-88795724D01*
X123299500Y-88795724D01*
X123299500Y-89554275D01*
X123302353Y-89584695D01*
X123347207Y-89712883D01*
X123427848Y-89822148D01*
X123427851Y-89822151D01*
X123537116Y-89902792D01*
X123537117Y-89902792D01*
X123537118Y-89902793D01*
X123665301Y-89947646D01*
X123695734Y-89950500D01*
X123695741Y-89950500D01*
X124704259Y-89950500D01*
X124704266Y-89950500D01*
X124734699Y-89947646D01*
X124862882Y-89902793D01*
X124972150Y-89822150D01*
X125052793Y-89712882D01*
X125097646Y-89584699D01*
X125100500Y-89554266D01*
X125100500Y-88795734D01*
X125100499Y-88795724D01*
X130099500Y-88795724D01*
X130099500Y-89554275D01*
X130102353Y-89584695D01*
X130147207Y-89712883D01*
X130227848Y-89822148D01*
X130227851Y-89822151D01*
X130337116Y-89902792D01*
X130337117Y-89902792D01*
X130337118Y-89902793D01*
X130465301Y-89947646D01*
X130495734Y-89950500D01*
X130495741Y-89950500D01*
X131504259Y-89950500D01*
X131504266Y-89950500D01*
X131534699Y-89947646D01*
X131662882Y-89902793D01*
X131772150Y-89822150D01*
X131852793Y-89712882D01*
X131897646Y-89584699D01*
X131900500Y-89554266D01*
X131900500Y-88795734D01*
X131897646Y-88765301D01*
X131852793Y-88637118D01*
X131772150Y-88527850D01*
X131772148Y-88527848D01*
X131662883Y-88447207D01*
X131603042Y-88426268D01*
X131534699Y-88402354D01*
X131534697Y-88402353D01*
X131534695Y-88402353D01*
X131504275Y-88399500D01*
X131504266Y-88399500D01*
X131449500Y-88399500D01*
X131375000Y-88379538D01*
X131320462Y-88325000D01*
X131300500Y-88250500D01*
X131300500Y-84649500D01*
X131320462Y-84575000D01*
X131375000Y-84520462D01*
X131449500Y-84500500D01*
X131504259Y-84500500D01*
X131504266Y-84500500D01*
X131534699Y-84497646D01*
X131662882Y-84452793D01*
X131772150Y-84372150D01*
X131852793Y-84262882D01*
X131897646Y-84134699D01*
X131900500Y-84104266D01*
X131900500Y-83095734D01*
X131897646Y-83065301D01*
X131852793Y-82937118D01*
X131844703Y-82926157D01*
X131772151Y-82827851D01*
X131772148Y-82827848D01*
X131662883Y-82747207D01*
X131603042Y-82726268D01*
X131534699Y-82702354D01*
X131534697Y-82702353D01*
X131534695Y-82702353D01*
X131504275Y-82699500D01*
X131504266Y-82699500D01*
X130695734Y-82699500D01*
X130695724Y-82699500D01*
X130665304Y-82702353D01*
X130537116Y-82747207D01*
X130427851Y-82827848D01*
X130427848Y-82827851D01*
X130347207Y-82937116D01*
X130302353Y-83065304D01*
X130299500Y-83095724D01*
X130299500Y-84104275D01*
X130302353Y-84134695D01*
X130347207Y-84262883D01*
X130427848Y-84372148D01*
X130427851Y-84372151D01*
X130537116Y-84452792D01*
X130537117Y-84452792D01*
X130537118Y-84452793D01*
X130599711Y-84474695D01*
X130663437Y-84518143D01*
X130696902Y-84587633D01*
X130699500Y-84615334D01*
X130699500Y-88250500D01*
X130679538Y-88325000D01*
X130625000Y-88379538D01*
X130550500Y-88399500D01*
X130495724Y-88399500D01*
X130465304Y-88402353D01*
X130337116Y-88447207D01*
X130227851Y-88527848D01*
X130227848Y-88527851D01*
X130147207Y-88637116D01*
X130102353Y-88765304D01*
X130099500Y-88795724D01*
X125100499Y-88795724D01*
X125097646Y-88765301D01*
X125052793Y-88637118D01*
X124972150Y-88527850D01*
X124972148Y-88527848D01*
X124862883Y-88447207D01*
X124803042Y-88426268D01*
X124734699Y-88402354D01*
X124734697Y-88402353D01*
X124734695Y-88402353D01*
X124704275Y-88399500D01*
X124704266Y-88399500D01*
X124649500Y-88399500D01*
X124575000Y-88379538D01*
X124520462Y-88325000D01*
X124500500Y-88250500D01*
X124500500Y-84649500D01*
X124520462Y-84575000D01*
X124575000Y-84520462D01*
X124649500Y-84500500D01*
X124704259Y-84500500D01*
X124704266Y-84500500D01*
X124734699Y-84497646D01*
X124862882Y-84452793D01*
X124972150Y-84372150D01*
X125052793Y-84262882D01*
X125097646Y-84134699D01*
X125100500Y-84104266D01*
X125100500Y-83095734D01*
X125100499Y-83095724D01*
X128299500Y-83095724D01*
X128299500Y-84104275D01*
X128302353Y-84134695D01*
X128347207Y-84262883D01*
X128417279Y-84357827D01*
X128445457Y-84429623D01*
X128435902Y-84497319D01*
X128436136Y-84497382D01*
X128435625Y-84499288D01*
X128435057Y-84503314D01*
X128433610Y-84506806D01*
X128399500Y-84634106D01*
X128399500Y-84634108D01*
X128399500Y-84765892D01*
X128433608Y-84893186D01*
X128433609Y-84893187D01*
X128499497Y-85007310D01*
X128499498Y-85007311D01*
X128499500Y-85007314D01*
X128592686Y-85100500D01*
X128706814Y-85166392D01*
X128834108Y-85200500D01*
X128965892Y-85200500D01*
X129093186Y-85166392D01*
X129207314Y-85100500D01*
X129300500Y-85007314D01*
X129366392Y-84893186D01*
X129400500Y-84765892D01*
X129400500Y-84645912D01*
X129420462Y-84571412D01*
X129475000Y-84516874D01*
X129526060Y-84500600D01*
X129525838Y-84499582D01*
X129534691Y-84497646D01*
X129534699Y-84497646D01*
X129662882Y-84452793D01*
X129772150Y-84372150D01*
X129852793Y-84262882D01*
X129897646Y-84134699D01*
X129900500Y-84104266D01*
X129900500Y-83095734D01*
X129897646Y-83065301D01*
X129852793Y-82937118D01*
X129844703Y-82926157D01*
X129772151Y-82827851D01*
X129772148Y-82827848D01*
X129662883Y-82747207D01*
X129603042Y-82726268D01*
X129534699Y-82702354D01*
X129534697Y-82702353D01*
X129534695Y-82702353D01*
X129504275Y-82699500D01*
X129504266Y-82699500D01*
X128695734Y-82699500D01*
X128695724Y-82699500D01*
X128665304Y-82702353D01*
X128537116Y-82747207D01*
X128427851Y-82827848D01*
X128427848Y-82827851D01*
X128347207Y-82937116D01*
X128302353Y-83065304D01*
X128299500Y-83095724D01*
X125100499Y-83095724D01*
X125097646Y-83065301D01*
X125052793Y-82937118D01*
X125044703Y-82926157D01*
X124972151Y-82827851D01*
X124972148Y-82827848D01*
X124862883Y-82747207D01*
X124803042Y-82726268D01*
X124734699Y-82702354D01*
X124734697Y-82702353D01*
X124734695Y-82702353D01*
X124704275Y-82699500D01*
X124704266Y-82699500D01*
X123895734Y-82699500D01*
X123895724Y-82699500D01*
X123865304Y-82702353D01*
X123737116Y-82747207D01*
X123627851Y-82827848D01*
X123627848Y-82827851D01*
X123547207Y-82937116D01*
X123502353Y-83065304D01*
X123499500Y-83095724D01*
X123499500Y-84104275D01*
X123502353Y-84134695D01*
X123547207Y-84262883D01*
X123627848Y-84372148D01*
X123627851Y-84372151D01*
X123737116Y-84452792D01*
X123737117Y-84452792D01*
X123737118Y-84452793D01*
X123799711Y-84474695D01*
X123863437Y-84518143D01*
X123896902Y-84587633D01*
X123899500Y-84615334D01*
X123899500Y-88250500D01*
X123879538Y-88325000D01*
X123825000Y-88379538D01*
X123750500Y-88399500D01*
X123695724Y-88399500D01*
X123665304Y-88402353D01*
X123537116Y-88447207D01*
X123427851Y-88527848D01*
X123427848Y-88527851D01*
X123347207Y-88637116D01*
X123302353Y-88765304D01*
X123299500Y-88795724D01*
X120000500Y-88795724D01*
X120000500Y-76399321D01*
X120020462Y-76324821D01*
X120075000Y-76270283D01*
X120149500Y-76250321D01*
X120204732Y-76260936D01*
X120243261Y-76276313D01*
X120255448Y-76294552D01*
X120321769Y-76338867D01*
X120380252Y-76350500D01*
X120429136Y-76350500D01*
X120455732Y-76361115D01*
X120464467Y-76367639D01*
X120475000Y-76370462D01*
X120494936Y-76390398D01*
X120517525Y-76407271D01*
X120521827Y-76417289D01*
X120529538Y-76425000D01*
X120536835Y-76452234D01*
X120547961Y-76478140D01*
X120546677Y-76488967D01*
X120549500Y-76499500D01*
X120549500Y-82189562D01*
X120569979Y-82265990D01*
X120586157Y-82294012D01*
X120586158Y-82294012D01*
X120609540Y-82334511D01*
X121455859Y-83180830D01*
X121494423Y-83247625D01*
X121499500Y-83286189D01*
X121499500Y-84104275D01*
X121502353Y-84134695D01*
X121547207Y-84262883D01*
X121627848Y-84372148D01*
X121627851Y-84372151D01*
X121737116Y-84452792D01*
X121737117Y-84452792D01*
X121737118Y-84452793D01*
X121865301Y-84497646D01*
X121895734Y-84500500D01*
X121895741Y-84500500D01*
X122704259Y-84500500D01*
X122704266Y-84500500D01*
X122734699Y-84497646D01*
X122862882Y-84452793D01*
X122972150Y-84372150D01*
X123052793Y-84262882D01*
X123097646Y-84134699D01*
X123100500Y-84104266D01*
X123100500Y-83095734D01*
X123097646Y-83065301D01*
X123052793Y-82937118D01*
X123044703Y-82926157D01*
X122972151Y-82827851D01*
X122972148Y-82827848D01*
X122862883Y-82747207D01*
X122803042Y-82726268D01*
X122734699Y-82702354D01*
X122734697Y-82702353D01*
X122734695Y-82702353D01*
X122704275Y-82699500D01*
X122704266Y-82699500D01*
X121895734Y-82699500D01*
X121895733Y-82699500D01*
X121893426Y-82699608D01*
X121892931Y-82699500D01*
X121892250Y-82699500D01*
X121892250Y-82699351D01*
X121818074Y-82683151D01*
X121781101Y-82656130D01*
X121194141Y-82069170D01*
X121155577Y-82002375D01*
X121150500Y-81963811D01*
X121150500Y-76499500D01*
X121170462Y-76425000D01*
X121225000Y-76370462D01*
X121299500Y-76350500D01*
X121319748Y-76350500D01*
X121378231Y-76338867D01*
X121444552Y-76294552D01*
X121488867Y-76228231D01*
X121500500Y-76169748D01*
X121500500Y-74630252D01*
X121498996Y-74622693D01*
X121488867Y-74571769D01*
X121483986Y-74564464D01*
X121444552Y-74505448D01*
X121378231Y-74461133D01*
X121378230Y-74461132D01*
X121319748Y-74449500D01*
X120380252Y-74449500D01*
X120321769Y-74461132D01*
X120255448Y-74505448D01*
X120255447Y-74505449D01*
X120223887Y-74552681D01*
X120165898Y-74603533D01*
X120090252Y-74618579D01*
X120017217Y-74593785D01*
X119976113Y-74552681D01*
X119956960Y-74524018D01*
X119944552Y-74505448D01*
X119878231Y-74461133D01*
X119878230Y-74461132D01*
X119819748Y-74449500D01*
X118880252Y-74449500D01*
X118821769Y-74461132D01*
X118755448Y-74505448D01*
X118755447Y-74505449D01*
X118723887Y-74552681D01*
X118665898Y-74603533D01*
X118590252Y-74618579D01*
X118517217Y-74593785D01*
X118476113Y-74552681D01*
X118456960Y-74524018D01*
X118444552Y-74505448D01*
X118378231Y-74461133D01*
X118378230Y-74461132D01*
X118319748Y-74449500D01*
X117380252Y-74449500D01*
X117321769Y-74461132D01*
X117255448Y-74505448D01*
X117255447Y-74505449D01*
X117223887Y-74552681D01*
X117165898Y-74603533D01*
X117090252Y-74618579D01*
X117017217Y-74593785D01*
X116976113Y-74552681D01*
X116956960Y-74524018D01*
X116944552Y-74505448D01*
X116878231Y-74461133D01*
X116878230Y-74461132D01*
X116819748Y-74449500D01*
X115880252Y-74449500D01*
X115821769Y-74461132D01*
X115755448Y-74505448D01*
X115755447Y-74505449D01*
X115723887Y-74552681D01*
X115665898Y-74603533D01*
X115590252Y-74618579D01*
X115517217Y-74593785D01*
X115476113Y-74552681D01*
X115456960Y-74524018D01*
X115444552Y-74505448D01*
X115378231Y-74461133D01*
X115378230Y-74461132D01*
X115319748Y-74449500D01*
X114550500Y-74449500D01*
X114476000Y-74429538D01*
X114421462Y-74375000D01*
X114406363Y-74318652D01*
X114402775Y-74319125D01*
X114401500Y-74309444D01*
X114401500Y-74309438D01*
X114381021Y-74233011D01*
X114341460Y-74164489D01*
X114285511Y-74108540D01*
X114216989Y-74068979D01*
X114140562Y-74048500D01*
X113985189Y-74048500D01*
X113910689Y-74028538D01*
X113879830Y-74004859D01*
X111009512Y-71134541D01*
X111009511Y-71134540D01*
X111001999Y-71130203D01*
X111001996Y-71130200D01*
X111001996Y-71130201D01*
X110940991Y-71094979D01*
X110864562Y-71074500D01*
X108511190Y-71074500D01*
X108436690Y-71054538D01*
X108405831Y-71030859D01*
X107734511Y-70359539D01*
X107693176Y-70335675D01*
X107665990Y-70319979D01*
X107665987Y-70319978D01*
X107589563Y-70299500D01*
X107449500Y-70299500D01*
X107375000Y-70279538D01*
X107320462Y-70225000D01*
X107300500Y-70150500D01*
X107300500Y-70095741D01*
X107300499Y-70095724D01*
X107300377Y-70094423D01*
X107297646Y-70065301D01*
X107252793Y-69937118D01*
X107185629Y-69846114D01*
X107172151Y-69827851D01*
X107172148Y-69827848D01*
X107062883Y-69747207D01*
X107003042Y-69726268D01*
X106934699Y-69702354D01*
X106934697Y-69702353D01*
X106934695Y-69702353D01*
X106904275Y-69699500D01*
X106904266Y-69699500D01*
X106095734Y-69699500D01*
X106095724Y-69699500D01*
X106065304Y-69702353D01*
X105937116Y-69747207D01*
X105827851Y-69827848D01*
X105827848Y-69827851D01*
X105747207Y-69937116D01*
X105702353Y-70065304D01*
X105699500Y-70095724D01*
X105699500Y-71104275D01*
X105702353Y-71134695D01*
X105747207Y-71262883D01*
X105827848Y-71372148D01*
X105827851Y-71372151D01*
X105937115Y-71452792D01*
X105937118Y-71452793D01*
X105955889Y-71459361D01*
X106019615Y-71502809D01*
X106053079Y-71572299D01*
X106047316Y-71649212D01*
X106003868Y-71712938D01*
X105955890Y-71740638D01*
X105952492Y-71741827D01*
X105937115Y-71747207D01*
X105827851Y-71827848D01*
X105827848Y-71827851D01*
X105747207Y-71937116D01*
X105702353Y-72065304D01*
X105699500Y-72095724D01*
X105699500Y-73104275D01*
X105702353Y-73134695D01*
X105702353Y-73134697D01*
X105702354Y-73134699D01*
X105726268Y-73203042D01*
X105747207Y-73262883D01*
X105827848Y-73372148D01*
X105827851Y-73372151D01*
X105937116Y-73452792D01*
X105937117Y-73452792D01*
X105937118Y-73452793D01*
X106065301Y-73497646D01*
X106095734Y-73500500D01*
X106095741Y-73500500D01*
X106904259Y-73500500D01*
X106904266Y-73500500D01*
X106934699Y-73497646D01*
X107062882Y-73452793D01*
X107172150Y-73372150D01*
X107252793Y-73262882D01*
X107297646Y-73134699D01*
X107300500Y-73104266D01*
X107300500Y-73049500D01*
X107320462Y-72975000D01*
X107375000Y-72920462D01*
X107449500Y-72900500D01*
X107589558Y-72900500D01*
X107589563Y-72900500D01*
X107665990Y-72880021D01*
X107734512Y-72840460D01*
X107790461Y-72784511D01*
X108405831Y-72169141D01*
X108472626Y-72130577D01*
X108511190Y-72125500D01*
X110452414Y-72125500D01*
X110526914Y-72145462D01*
X110557773Y-72169141D01*
X112724510Y-74335878D01*
X112763074Y-74402673D01*
X112763074Y-74479801D01*
X112743039Y-74524018D01*
X112723888Y-74552679D01*
X112665900Y-74603533D01*
X112590254Y-74618579D01*
X112517219Y-74593786D01*
X112476113Y-74552681D01*
X112456960Y-74524018D01*
X112444552Y-74505448D01*
X112378231Y-74461133D01*
X112378230Y-74461132D01*
X112319748Y-74449500D01*
X111380252Y-74449500D01*
X111321769Y-74461132D01*
X111255448Y-74505448D01*
X111255447Y-74505449D01*
X111223887Y-74552681D01*
X111165898Y-74603533D01*
X111090252Y-74618579D01*
X111017217Y-74593785D01*
X110976113Y-74552681D01*
X110956960Y-74524018D01*
X110944552Y-74505448D01*
X110878231Y-74461133D01*
X110878230Y-74461132D01*
X110819748Y-74449500D01*
X109880252Y-74449500D01*
X109821769Y-74461132D01*
X109755448Y-74505448D01*
X109755447Y-74505449D01*
X109723887Y-74552681D01*
X109665898Y-74603533D01*
X109590252Y-74618579D01*
X109517217Y-74593785D01*
X109476113Y-74552681D01*
X109456960Y-74524018D01*
X109444552Y-74505448D01*
X109378231Y-74461133D01*
X109378230Y-74461132D01*
X109319748Y-74449500D01*
X108380252Y-74449500D01*
X108321769Y-74461132D01*
X108255448Y-74505448D01*
X108211132Y-74571769D01*
X108199500Y-74630251D01*
X108199500Y-76169748D01*
X108211132Y-76228230D01*
X108211133Y-76228231D01*
X108255448Y-76294552D01*
X108321769Y-76338867D01*
X108380252Y-76350500D01*
X109013811Y-76350500D01*
X109088311Y-76370462D01*
X109119170Y-76394141D01*
X111809540Y-79084511D01*
X111865489Y-79140460D01*
X111934011Y-79180021D01*
X112010438Y-79200500D01*
X112089562Y-79200500D01*
X115013811Y-79200500D01*
X115088311Y-79220462D01*
X115119170Y-79244141D01*
X116150859Y-80275830D01*
X116189423Y-80342625D01*
X116194500Y-80381189D01*
X116194500Y-81558461D01*
X116174538Y-81632961D01*
X116120000Y-81687499D01*
X116105687Y-81694764D01*
X116074360Y-81708596D01*
X115993596Y-81789360D01*
X115947463Y-81893842D01*
X115947462Y-81893847D01*
X115944500Y-81919381D01*
X115944500Y-82900618D01*
X115947462Y-82926152D01*
X115947463Y-82926157D01*
X115993596Y-83030639D01*
X115993597Y-83030640D01*
X116074360Y-83111403D01*
X116178844Y-83157537D01*
X116191614Y-83159018D01*
X116204381Y-83160500D01*
X116204384Y-83160500D01*
X116785619Y-83160500D01*
X116796561Y-83159230D01*
X116811156Y-83157537D01*
X116915640Y-83111403D01*
X116939641Y-83087402D01*
X117006436Y-83048838D01*
X117083564Y-83048838D01*
X117150359Y-83087402D01*
X117174360Y-83111403D01*
X117278844Y-83157537D01*
X117291614Y-83159018D01*
X117304381Y-83160500D01*
X117304384Y-83160500D01*
X117885619Y-83160500D01*
X117896561Y-83159230D01*
X117911156Y-83157537D01*
X118015640Y-83111403D01*
X118096403Y-83030640D01*
X118142537Y-82926156D01*
X118145500Y-82900616D01*
X118145500Y-81919384D01*
X118142537Y-81893844D01*
X118096403Y-81789360D01*
X118015640Y-81708597D01*
X118015639Y-81708596D01*
X117911157Y-81662463D01*
X117911152Y-81662462D01*
X117885619Y-81659500D01*
X117885616Y-81659500D01*
X117304384Y-81659500D01*
X117304381Y-81659500D01*
X117278847Y-81662462D01*
X117278842Y-81662463D01*
X117174360Y-81708596D01*
X117150359Y-81732598D01*
X117083564Y-81771162D01*
X117006436Y-81771162D01*
X116960850Y-81750201D01*
X116949425Y-81742382D01*
X116915640Y-81708597D01*
X116871721Y-81689205D01*
X116860350Y-81681423D01*
X116843908Y-81662249D01*
X116824225Y-81646410D01*
X116819198Y-81633434D01*
X116810143Y-81622874D01*
X116805489Y-81598044D01*
X116796365Y-81574489D01*
X116795500Y-81558461D01*
X116795500Y-80155439D01*
X116795499Y-80155435D01*
X116775022Y-80079012D01*
X116735460Y-80010489D01*
X115384511Y-78659540D01*
X115351863Y-78640691D01*
X115351860Y-78640689D01*
X115351859Y-78640688D01*
X115315991Y-78619979D01*
X115239562Y-78599500D01*
X112236189Y-78599500D01*
X112161689Y-78579538D01*
X112130830Y-78555859D01*
X110179830Y-76604859D01*
X110141266Y-76538064D01*
X110141266Y-76460936D01*
X110179830Y-76394141D01*
X110246625Y-76355577D01*
X110285189Y-76350500D01*
X110819748Y-76350500D01*
X110878231Y-76338867D01*
X110944552Y-76294552D01*
X110976113Y-76247317D01*
X111034101Y-76196466D01*
X111109747Y-76181420D01*
X111182782Y-76206213D01*
X111223886Y-76247317D01*
X111255448Y-76294552D01*
X111321769Y-76338867D01*
X111380252Y-76350500D01*
X112319748Y-76350500D01*
X112378231Y-76338867D01*
X112444552Y-76294552D01*
X112476113Y-76247317D01*
X112534101Y-76196466D01*
X112609747Y-76181420D01*
X112682782Y-76206213D01*
X112723886Y-76247317D01*
X112755448Y-76294552D01*
X112821769Y-76338867D01*
X112880252Y-76350500D01*
X113819748Y-76350500D01*
X113878231Y-76338867D01*
X113944552Y-76294552D01*
X113976113Y-76247317D01*
X114034101Y-76196466D01*
X114109747Y-76181420D01*
X114182782Y-76206213D01*
X114223886Y-76247317D01*
X114255448Y-76294552D01*
X114321769Y-76338867D01*
X114380252Y-76350500D01*
X115319748Y-76350500D01*
X115378231Y-76338867D01*
X115444552Y-76294552D01*
X115476113Y-76247317D01*
X115534101Y-76196466D01*
X115609747Y-76181420D01*
X115682782Y-76206213D01*
X115723886Y-76247317D01*
X115755448Y-76294552D01*
X115821769Y-76338867D01*
X115880252Y-76350500D01*
X115881969Y-76350500D01*
X115882969Y-76350768D01*
X115887537Y-76351218D01*
X115887462Y-76351972D01*
X115956469Y-76370462D01*
X116011007Y-76425000D01*
X116030969Y-76499500D01*
X116011007Y-76574000D01*
X115987331Y-76604854D01*
X115936718Y-76655468D01*
X115899498Y-76692688D01*
X115899497Y-76692689D01*
X115837831Y-76799500D01*
X115833608Y-76806814D01*
X115817778Y-76865890D01*
X115799500Y-76934106D01*
X115799500Y-76934108D01*
X115799500Y-77065892D01*
X115833608Y-77193186D01*
X115843856Y-77210936D01*
X115899497Y-77307310D01*
X115899498Y-77307311D01*
X115899500Y-77307314D01*
X115992686Y-77400500D01*
X116106814Y-77466392D01*
X116234108Y-77500500D01*
X116365892Y-77500500D01*
X116493186Y-77466392D01*
X116607314Y-77400500D01*
X116700500Y-77307314D01*
X116766392Y-77193186D01*
X116800500Y-77065892D01*
X116800500Y-76934108D01*
X116766392Y-76806814D01*
X116700500Y-76692686D01*
X116694137Y-76686323D01*
X116684331Y-76669337D01*
X116670462Y-76655468D01*
X116665384Y-76636516D01*
X116655576Y-76619527D01*
X116650500Y-76580968D01*
X116650500Y-76499500D01*
X116670462Y-76425000D01*
X116725000Y-76370462D01*
X116799500Y-76350500D01*
X116819748Y-76350500D01*
X116878231Y-76338867D01*
X116944552Y-76294552D01*
X116976113Y-76247317D01*
X117034101Y-76196466D01*
X117109747Y-76181420D01*
X117182782Y-76206213D01*
X117223886Y-76247317D01*
X117255448Y-76294552D01*
X117321769Y-76338867D01*
X117380252Y-76350500D01*
X118319748Y-76350500D01*
X118378231Y-76338867D01*
X118444552Y-76294552D01*
X118476113Y-76247317D01*
X118534101Y-76196466D01*
X118609747Y-76181420D01*
X118682782Y-76206213D01*
X118723886Y-76247317D01*
X118755448Y-76294552D01*
X118821769Y-76338867D01*
X118880252Y-76350500D01*
X119250500Y-76350500D01*
X119325000Y-76370462D01*
X119379538Y-76425000D01*
X119399500Y-76499500D01*
X119399500Y-95750500D01*
X119379538Y-95825000D01*
X119325000Y-95879538D01*
X119250500Y-95899500D01*
X113381189Y-95899500D01*
X113362241Y-95894423D01*
X113342625Y-95894423D01*
X113325637Y-95884615D01*
X113306689Y-95879538D01*
X113275830Y-95855859D01*
X113064141Y-95644170D01*
X113025577Y-95577375D01*
X113020500Y-95538811D01*
X113020500Y-94989794D01*
X113014413Y-94943557D01*
X112967093Y-94842080D01*
X112887920Y-94762907D01*
X112786443Y-94715587D01*
X112786440Y-94715586D01*
X112786438Y-94715586D01*
X112740208Y-94709500D01*
X112740206Y-94709500D01*
X112191189Y-94709500D01*
X112116689Y-94689538D01*
X112085830Y-94665859D01*
X102944141Y-85524170D01*
X102905577Y-85457375D01*
X102900500Y-85418811D01*
X102900500Y-83049500D01*
X102920462Y-82975000D01*
X102975000Y-82920462D01*
X103049500Y-82900500D01*
X103104259Y-82900500D01*
X103104266Y-82900500D01*
X103134699Y-82897646D01*
X103262882Y-82852793D01*
X103372150Y-82772150D01*
X103452793Y-82662882D01*
X103497646Y-82534699D01*
X103500500Y-82504266D01*
X103500500Y-81695734D01*
X103497646Y-81665301D01*
X103452793Y-81537118D01*
X103451825Y-81535807D01*
X103372151Y-81427851D01*
X103372148Y-81427848D01*
X103262883Y-81347207D01*
X103177452Y-81317314D01*
X103134699Y-81302354D01*
X103134697Y-81302353D01*
X103134695Y-81302353D01*
X103104275Y-81299500D01*
X103104266Y-81299500D01*
X102095734Y-81299500D01*
X102095724Y-81299500D01*
X102065304Y-81302353D01*
X101937116Y-81347207D01*
X101827851Y-81427848D01*
X101827848Y-81427851D01*
X101747207Y-81537116D01*
X101740139Y-81557317D01*
X101696691Y-81621044D01*
X101627201Y-81654508D01*
X101550289Y-81648745D01*
X101486562Y-81605297D01*
X101453098Y-81535807D01*
X101450500Y-81508106D01*
X101450500Y-80699500D01*
X101470462Y-80625000D01*
X101525000Y-80570462D01*
X101599500Y-80550500D01*
X101602161Y-80550500D01*
X101676661Y-80570462D01*
X101731199Y-80625000D01*
X101742799Y-80650286D01*
X101747207Y-80662882D01*
X101827848Y-80772148D01*
X101827851Y-80772151D01*
X101937116Y-80852792D01*
X101937117Y-80852792D01*
X101937118Y-80852793D01*
X102065301Y-80897646D01*
X102095734Y-80900500D01*
X102095741Y-80900500D01*
X103104259Y-80900500D01*
X103104266Y-80900500D01*
X103134699Y-80897646D01*
X103262882Y-80852793D01*
X103372150Y-80772150D01*
X103452793Y-80662882D01*
X103457201Y-80650286D01*
X103500650Y-80586561D01*
X103570141Y-80553097D01*
X103597839Y-80550500D01*
X105519399Y-80550500D01*
X105593899Y-80570462D01*
X105639284Y-80611021D01*
X105702848Y-80697148D01*
X105702851Y-80697151D01*
X105812116Y-80777792D01*
X105812117Y-80777792D01*
X105812118Y-80777793D01*
X105940301Y-80822646D01*
X105970734Y-80825500D01*
X105970741Y-80825500D01*
X107029259Y-80825500D01*
X107029266Y-80825500D01*
X107059699Y-80822646D01*
X107059705Y-80822643D01*
X107068553Y-80820712D01*
X107069337Y-80824304D01*
X107127702Y-80819731D01*
X107197306Y-80852959D01*
X107240970Y-80916537D01*
X107249500Y-80966227D01*
X107249500Y-83259311D01*
X107273667Y-83349502D01*
X107280199Y-83373883D01*
X107280201Y-83373887D01*
X107339508Y-83476610D01*
X107339509Y-83476611D01*
X107339511Y-83476614D01*
X108923386Y-85060489D01*
X108982696Y-85094731D01*
X109026114Y-85119799D01*
X109140691Y-85150500D01*
X112340691Y-85150500D01*
X117139364Y-85150500D01*
X117196483Y-85165805D01*
X117197789Y-85162654D01*
X117206809Y-85166390D01*
X117206811Y-85166390D01*
X117206814Y-85166392D01*
X117334108Y-85200500D01*
X117465892Y-85200500D01*
X117593186Y-85166392D01*
X117707314Y-85100500D01*
X117800500Y-85007314D01*
X117866392Y-84893186D01*
X117900500Y-84765892D01*
X117900500Y-84634108D01*
X117866392Y-84506814D01*
X117800500Y-84392686D01*
X117707314Y-84299500D01*
X117707311Y-84299498D01*
X117707310Y-84299497D01*
X117636514Y-84258623D01*
X117593186Y-84233608D01*
X117465892Y-84199500D01*
X117334108Y-84199500D01*
X117206809Y-84233609D01*
X117197789Y-84237346D01*
X117196483Y-84234193D01*
X117139371Y-84249500D01*
X113766924Y-84249500D01*
X113747978Y-84244423D01*
X113728364Y-84244424D01*
X113711374Y-84234615D01*
X113692424Y-84229538D01*
X113678554Y-84215668D01*
X113661568Y-84205862D01*
X113651758Y-84188872D01*
X113637886Y-84175000D01*
X113632809Y-84156053D01*
X113623002Y-84139068D01*
X113623001Y-84119449D01*
X113617924Y-84100500D01*
X113623000Y-84061940D01*
X113626285Y-84049679D01*
X113626286Y-84049675D01*
X113634734Y-84018144D01*
X113650500Y-83959309D01*
X113650500Y-83240729D01*
X113670462Y-83166229D01*
X113725000Y-83111691D01*
X113799500Y-83091729D01*
X113860711Y-83108130D01*
X113861729Y-83105826D01*
X113874360Y-83111403D01*
X113978844Y-83157537D01*
X113991614Y-83159018D01*
X114004381Y-83160500D01*
X114004384Y-83160500D01*
X114585619Y-83160500D01*
X114596561Y-83159230D01*
X114611156Y-83157537D01*
X114715640Y-83111403D01*
X114796403Y-83030640D01*
X114842537Y-82926156D01*
X114845500Y-82900616D01*
X114845500Y-81919384D01*
X114842537Y-81893844D01*
X114796403Y-81789360D01*
X114715640Y-81708597D01*
X114715639Y-81708596D01*
X114684313Y-81694764D01*
X114677923Y-81689621D01*
X114670000Y-81687499D01*
X114648221Y-81665720D01*
X114624225Y-81646410D01*
X114621262Y-81638761D01*
X114615462Y-81632961D01*
X114607489Y-81603207D01*
X114596365Y-81574489D01*
X114595500Y-81558461D01*
X114595500Y-81479031D01*
X114615462Y-81404531D01*
X114639137Y-81373676D01*
X114695500Y-81317314D01*
X114761392Y-81203186D01*
X114795500Y-81075892D01*
X114795500Y-80944108D01*
X114761392Y-80816814D01*
X114708094Y-80724500D01*
X114695502Y-80702689D01*
X114695501Y-80702688D01*
X114695500Y-80702686D01*
X114602314Y-80609500D01*
X114602311Y-80609498D01*
X114602310Y-80609497D01*
X114527235Y-80566153D01*
X114488186Y-80543608D01*
X114360892Y-80509500D01*
X114229108Y-80509500D01*
X114101814Y-80543608D01*
X114101812Y-80543608D01*
X114101812Y-80543609D01*
X113987689Y-80609497D01*
X113894497Y-80702689D01*
X113842551Y-80792664D01*
X113828608Y-80816814D01*
X113826601Y-80824304D01*
X113794500Y-80944106D01*
X113794500Y-80944108D01*
X113794500Y-81075892D01*
X113828608Y-81203186D01*
X113853623Y-81246514D01*
X113894497Y-81317310D01*
X113894498Y-81317311D01*
X113894500Y-81317314D01*
X113950860Y-81373674D01*
X113960666Y-81390659D01*
X113974538Y-81404531D01*
X113979615Y-81423479D01*
X113989423Y-81440467D01*
X113994500Y-81479031D01*
X113994500Y-81558461D01*
X113974538Y-81632961D01*
X113920000Y-81687499D01*
X113905687Y-81694764D01*
X113874360Y-81708596D01*
X113850359Y-81732598D01*
X113783564Y-81771162D01*
X113706436Y-81771162D01*
X113639641Y-81732598D01*
X113615639Y-81708596D01*
X113511157Y-81662463D01*
X113511152Y-81662462D01*
X113485619Y-81659500D01*
X113485616Y-81659500D01*
X112904384Y-81659500D01*
X112904381Y-81659500D01*
X112878847Y-81662462D01*
X112878842Y-81662463D01*
X112774360Y-81708596D01*
X112750359Y-81732598D01*
X112683564Y-81771162D01*
X112606436Y-81771162D01*
X112560850Y-81750201D01*
X112549425Y-81742382D01*
X112515640Y-81708597D01*
X112471721Y-81689205D01*
X112460350Y-81681423D01*
X112443908Y-81662249D01*
X112424225Y-81646410D01*
X112419198Y-81633434D01*
X112410143Y-81622874D01*
X112405489Y-81598044D01*
X112396365Y-81574489D01*
X112395500Y-81558461D01*
X112395500Y-81479031D01*
X112415462Y-81404531D01*
X112439137Y-81373676D01*
X112495500Y-81317314D01*
X112561392Y-81203186D01*
X112595500Y-81075892D01*
X112595500Y-80944108D01*
X112561392Y-80816814D01*
X112508094Y-80724500D01*
X112495502Y-80702689D01*
X112495501Y-80702688D01*
X112495500Y-80702686D01*
X112402314Y-80609500D01*
X112402311Y-80609498D01*
X112402310Y-80609497D01*
X112327235Y-80566153D01*
X112288186Y-80543608D01*
X112160892Y-80509500D01*
X112029108Y-80509500D01*
X111901814Y-80543608D01*
X111901812Y-80543608D01*
X111901812Y-80543609D01*
X111787689Y-80609497D01*
X111694498Y-80702688D01*
X111694495Y-80702692D01*
X111674037Y-80738127D01*
X111619499Y-80792664D01*
X111544999Y-80812626D01*
X111470499Y-80792663D01*
X111415963Y-80738127D01*
X111395504Y-80702692D01*
X111395501Y-80702688D01*
X111395500Y-80702686D01*
X111302314Y-80609500D01*
X111302311Y-80609498D01*
X111302310Y-80609497D01*
X111227235Y-80566153D01*
X111188186Y-80543608D01*
X111060892Y-80509500D01*
X110929108Y-80509500D01*
X110801814Y-80543608D01*
X110801812Y-80543608D01*
X110801812Y-80543609D01*
X110687689Y-80609497D01*
X110594497Y-80702689D01*
X110542551Y-80792664D01*
X110528608Y-80816814D01*
X110526601Y-80824304D01*
X110494500Y-80944106D01*
X110494500Y-80944108D01*
X110494500Y-81075892D01*
X110528608Y-81203186D01*
X110553623Y-81246514D01*
X110594497Y-81317310D01*
X110594498Y-81317311D01*
X110594500Y-81317314D01*
X110650860Y-81373674D01*
X110660666Y-81390659D01*
X110674538Y-81404531D01*
X110679615Y-81423479D01*
X110689423Y-81440467D01*
X110694500Y-81479031D01*
X110694500Y-81558461D01*
X110674538Y-81632961D01*
X110620000Y-81687499D01*
X110605687Y-81694764D01*
X110574360Y-81708596D01*
X110550359Y-81732598D01*
X110483564Y-81771162D01*
X110406436Y-81771162D01*
X110339641Y-81732598D01*
X110315639Y-81708596D01*
X110211157Y-81662463D01*
X110211152Y-81662462D01*
X110185619Y-81659500D01*
X110185616Y-81659500D01*
X109604384Y-81659500D01*
X109604381Y-81659500D01*
X109578847Y-81662462D01*
X109578842Y-81662463D01*
X109474360Y-81708596D01*
X109393596Y-81789360D01*
X109347463Y-81893842D01*
X109347462Y-81893847D01*
X109344500Y-81919381D01*
X109344500Y-82900618D01*
X109347462Y-82926152D01*
X109347463Y-82926157D01*
X109393596Y-83030639D01*
X109393597Y-83030640D01*
X109474360Y-83111403D01*
X109578844Y-83157537D01*
X109591614Y-83159018D01*
X109604381Y-83160500D01*
X109604384Y-83160500D01*
X110185619Y-83160500D01*
X110196561Y-83159230D01*
X110211156Y-83157537D01*
X110315640Y-83111403D01*
X110339641Y-83087402D01*
X110406436Y-83048838D01*
X110483564Y-83048838D01*
X110550359Y-83087402D01*
X110574360Y-83111403D01*
X110678844Y-83157537D01*
X110691614Y-83159018D01*
X110704381Y-83160500D01*
X110704384Y-83160500D01*
X111285619Y-83160500D01*
X111296561Y-83159230D01*
X111311156Y-83157537D01*
X111415640Y-83111403D01*
X111439641Y-83087402D01*
X111506436Y-83048838D01*
X111583564Y-83048838D01*
X111650359Y-83087402D01*
X111674360Y-83111403D01*
X111778844Y-83157537D01*
X111791614Y-83159018D01*
X111804381Y-83160500D01*
X111804384Y-83160500D01*
X112385619Y-83160500D01*
X112396561Y-83159230D01*
X112411156Y-83157537D01*
X112515640Y-83111403D01*
X112515644Y-83111398D01*
X112516295Y-83110954D01*
X112518088Y-83110321D01*
X112528271Y-83105826D01*
X112528617Y-83106611D01*
X112589039Y-83085320D01*
X112664853Y-83099493D01*
X112723425Y-83149674D01*
X112749059Y-83222418D01*
X112749500Y-83233879D01*
X112749500Y-83651678D01*
X112729538Y-83726178D01*
X112705859Y-83757037D01*
X112257038Y-84205859D01*
X112190243Y-84244423D01*
X112151679Y-84249500D01*
X109448321Y-84249500D01*
X109373821Y-84229538D01*
X109342962Y-84205859D01*
X108194141Y-83057038D01*
X108155577Y-82990243D01*
X108150500Y-82951679D01*
X108150500Y-80974500D01*
X108170462Y-80900000D01*
X108225000Y-80845462D01*
X108299500Y-80825500D01*
X109329259Y-80825500D01*
X109329266Y-80825500D01*
X109359699Y-80822646D01*
X109487882Y-80777793D01*
X109597150Y-80697150D01*
X109677793Y-80587882D01*
X109722646Y-80459699D01*
X109725500Y-80429266D01*
X109725500Y-79645734D01*
X109722646Y-79615301D01*
X109677793Y-79487118D01*
X109666746Y-79472150D01*
X109597151Y-79377851D01*
X109597148Y-79377848D01*
X109487883Y-79297207D01*
X109428042Y-79276268D01*
X109359699Y-79252354D01*
X109359697Y-79252353D01*
X109359695Y-79252353D01*
X109329275Y-79249500D01*
X109329266Y-79249500D01*
X108270734Y-79249500D01*
X108270724Y-79249500D01*
X108240304Y-79252353D01*
X108112116Y-79297207D01*
X108002851Y-79377848D01*
X108002848Y-79377851D01*
X107922206Y-79487117D01*
X107922205Y-79487119D01*
X107922172Y-79487216D01*
X107922095Y-79487328D01*
X107916989Y-79496990D01*
X107915900Y-79496414D01*
X107914224Y-79498871D01*
X107910573Y-79512500D01*
X107892844Y-79530228D01*
X107878722Y-79550941D01*
X107866011Y-79557061D01*
X107856035Y-79567038D01*
X107831818Y-79573526D01*
X107809232Y-79584403D01*
X107781535Y-79587000D01*
X107518465Y-79587000D01*
X107443965Y-79567038D01*
X107389427Y-79512500D01*
X107377828Y-79487216D01*
X107377794Y-79487119D01*
X107377793Y-79487117D01*
X107297151Y-79377851D01*
X107297148Y-79377848D01*
X107187883Y-79297207D01*
X107128042Y-79276268D01*
X107059699Y-79252354D01*
X107059697Y-79252353D01*
X107059695Y-79252353D01*
X107029275Y-79249500D01*
X107029266Y-79249500D01*
X105970734Y-79249500D01*
X105970724Y-79249500D01*
X105940304Y-79252353D01*
X105812116Y-79297207D01*
X105702851Y-79377848D01*
X105702848Y-79377851D01*
X105622207Y-79487116D01*
X105600305Y-79549711D01*
X105556857Y-79613437D01*
X105487367Y-79646902D01*
X105459666Y-79649500D01*
X103597839Y-79649500D01*
X103523339Y-79629538D01*
X103468801Y-79575000D01*
X103457201Y-79549714D01*
X103455312Y-79544317D01*
X103452793Y-79537118D01*
X103372150Y-79427850D01*
X103372148Y-79427848D01*
X103262883Y-79347207D01*
X103203042Y-79326268D01*
X103134699Y-79302354D01*
X103134697Y-79302353D01*
X103134695Y-79302353D01*
X103104275Y-79299500D01*
X103104266Y-79299500D01*
X102095734Y-79299500D01*
X102095724Y-79299500D01*
X102065304Y-79302353D01*
X101937116Y-79347207D01*
X101827851Y-79427848D01*
X101827848Y-79427851D01*
X101747207Y-79537117D01*
X101742799Y-79549714D01*
X101699350Y-79613439D01*
X101629859Y-79646903D01*
X101602161Y-79649500D01*
X95948321Y-79649500D01*
X95873821Y-79629538D01*
X95842962Y-79605859D01*
X95144141Y-78907038D01*
X95105577Y-78840243D01*
X95100500Y-78801679D01*
X95100500Y-78195741D01*
X95100499Y-78195724D01*
X95097646Y-78165304D01*
X95097646Y-78165301D01*
X95052793Y-78037118D01*
X95031381Y-78008106D01*
X94972151Y-77927851D01*
X94972148Y-77927848D01*
X94862883Y-77847207D01*
X94803042Y-77826268D01*
X94734699Y-77802354D01*
X94734697Y-77802353D01*
X94734695Y-77802353D01*
X94704275Y-77799500D01*
X94704266Y-77799500D01*
X94399500Y-77799500D01*
X94325000Y-77779538D01*
X94270462Y-77725000D01*
X94250500Y-77650500D01*
X94250500Y-77560636D01*
X94265804Y-77503517D01*
X94262653Y-77502212D01*
X94266386Y-77493195D01*
X94266392Y-77493186D01*
X94300500Y-77365892D01*
X94300500Y-77234108D01*
X94266392Y-77106814D01*
X94200500Y-76992686D01*
X94107314Y-76899500D01*
X94107311Y-76899498D01*
X94107310Y-76899497D01*
X94036514Y-76858623D01*
X93993186Y-76833608D01*
X93865892Y-76799500D01*
X93734108Y-76799500D01*
X93606814Y-76833608D01*
X93606812Y-76833608D01*
X93606812Y-76833609D01*
X93492689Y-76899497D01*
X93399497Y-76992689D01*
X93337253Y-77100500D01*
X93333608Y-77106814D01*
X93317778Y-77165890D01*
X93299500Y-77234106D01*
X93299500Y-77234108D01*
X93299500Y-77365892D01*
X93333608Y-77493186D01*
X93333609Y-77493187D01*
X93337347Y-77502212D01*
X93334192Y-77503518D01*
X93349500Y-77560616D01*
X93349500Y-78008106D01*
X93329538Y-78082606D01*
X93275000Y-78137144D01*
X93200500Y-78157106D01*
X93126000Y-78137144D01*
X93071462Y-78082606D01*
X93059861Y-78057317D01*
X93052792Y-78037116D01*
X92972151Y-77927851D01*
X92972148Y-77927848D01*
X92862883Y-77847207D01*
X92803042Y-77826268D01*
X92734699Y-77802354D01*
X92734697Y-77802353D01*
X92734695Y-77802353D01*
X92704275Y-77799500D01*
X92704266Y-77799500D01*
X91895734Y-77799500D01*
X91895724Y-77799500D01*
X91865304Y-77802353D01*
X91737116Y-77847207D01*
X91627851Y-77927848D01*
X91627848Y-77927851D01*
X91547207Y-78037116D01*
X91502353Y-78165304D01*
X91499500Y-78195724D01*
X91499500Y-79204275D01*
X91502353Y-79234695D01*
X91502353Y-79234697D01*
X91502354Y-79234699D01*
X91508532Y-79252354D01*
X91547207Y-79362883D01*
X91627848Y-79472148D01*
X91627851Y-79472151D01*
X91737116Y-79552792D01*
X91737117Y-79552792D01*
X91737118Y-79552793D01*
X91865301Y-79597646D01*
X91865306Y-79597646D01*
X91874162Y-79599582D01*
X91873838Y-79601061D01*
X91936720Y-79624392D01*
X91985929Y-79683783D01*
X91999500Y-79745912D01*
X91999500Y-80273194D01*
X91979538Y-80347694D01*
X91925000Y-80402232D01*
X91873810Y-80420359D01*
X91818890Y-80429057D01*
X91818883Y-80429059D01*
X91639174Y-80487451D01*
X91639168Y-80487453D01*
X91639163Y-80487455D01*
X91639157Y-80487458D01*
X91470804Y-80573238D01*
X91470799Y-80573241D01*
X91336080Y-80671121D01*
X91264075Y-80698762D01*
X91187897Y-80686696D01*
X91127957Y-80638158D01*
X91100316Y-80566153D01*
X91099500Y-80550578D01*
X91099500Y-61888537D01*
X91499500Y-61888537D01*
X91499500Y-62111462D01*
X91528593Y-62332447D01*
X91528596Y-62332464D01*
X91586288Y-62547777D01*
X91586288Y-62547778D01*
X91671598Y-62753733D01*
X91783049Y-62946770D01*
X91783051Y-62946773D01*
X91783052Y-62946774D01*
X91918753Y-63123624D01*
X92076376Y-63281247D01*
X92253226Y-63416948D01*
X92253229Y-63416950D01*
X92446266Y-63528401D01*
X92446269Y-63528402D01*
X92446274Y-63528405D01*
X92611030Y-63596649D01*
X92652221Y-63613711D01*
X92726483Y-63633609D01*
X92867537Y-63671404D01*
X93088543Y-63700500D01*
X93311457Y-63700500D01*
X93532463Y-63671404D01*
X93747777Y-63613711D01*
X93747778Y-63613711D01*
X93747779Y-63613710D01*
X93747781Y-63613710D01*
X93953726Y-63528405D01*
X94146774Y-63416948D01*
X94323624Y-63281247D01*
X94325606Y-63279264D01*
X94358306Y-63254536D01*
X95273979Y-62743054D01*
X95348751Y-62724153D01*
X95422960Y-62745170D01*
X95451996Y-62767779D01*
X98630859Y-65946642D01*
X98669423Y-66013437D01*
X98674500Y-66052001D01*
X98674500Y-66929275D01*
X98677353Y-66959695D01*
X98722206Y-67087881D01*
X98734035Y-67103909D01*
X98802850Y-67197150D01*
X98802853Y-67197152D01*
X98815809Y-67206714D01*
X98863899Y-67267014D01*
X98876333Y-67326601D01*
X98876333Y-67683398D01*
X98856371Y-67757898D01*
X98815816Y-67803280D01*
X98802851Y-67812848D01*
X98802846Y-67812853D01*
X98722207Y-67922116D01*
X98677353Y-68050304D01*
X98674500Y-68080724D01*
X98674500Y-68107533D01*
X98654538Y-68182033D01*
X98600000Y-68236571D01*
X98525500Y-68256533D01*
X97730550Y-68256533D01*
X97656050Y-68236571D01*
X97601512Y-68182033D01*
X97581550Y-68107533D01*
X97581550Y-67597306D01*
X97576398Y-67551583D01*
X97576398Y-67551579D01*
X97536716Y-67469180D01*
X97536715Y-67469178D01*
X97465213Y-67412158D01*
X97376051Y-67391807D01*
X97376050Y-67391807D01*
X96233050Y-67391807D01*
X96233049Y-67391807D01*
X96187326Y-67396958D01*
X96187318Y-67396960D01*
X96104923Y-67436640D01*
X96104921Y-67436641D01*
X96047901Y-67508142D01*
X96039246Y-67546064D01*
X96003205Y-67614253D01*
X95937899Y-67655287D01*
X95860824Y-67658170D01*
X95855418Y-67656829D01*
X95790004Y-67639301D01*
X95790001Y-67639301D01*
X95637099Y-67639301D01*
X95489408Y-67678875D01*
X95489406Y-67678875D01*
X95489406Y-67678876D01*
X95356991Y-67755325D01*
X95248874Y-67863442D01*
X95172425Y-67995857D01*
X95132850Y-68143548D01*
X95132850Y-68143550D01*
X95132850Y-68296452D01*
X95172424Y-68444143D01*
X95248874Y-68576559D01*
X95356992Y-68684677D01*
X95489408Y-68761127D01*
X95637099Y-68800701D01*
X95790001Y-68800701D01*
X95790006Y-68800700D01*
X95839984Y-68787308D01*
X95917112Y-68787306D01*
X95983907Y-68825869D01*
X96022472Y-68892664D01*
X96027550Y-68931230D01*
X96027550Y-69011833D01*
X96032701Y-69057556D01*
X96032703Y-69057564D01*
X96072383Y-69139959D01*
X96072384Y-69139961D01*
X96112923Y-69172289D01*
X96143887Y-69196982D01*
X96221195Y-69214627D01*
X96289385Y-69250667D01*
X96330419Y-69315973D01*
X96333303Y-69393047D01*
X96297263Y-69461237D01*
X96238596Y-69500051D01*
X96219927Y-69506785D01*
X96213302Y-69506785D01*
X96154819Y-69518418D01*
X96116272Y-69544174D01*
X96099166Y-69550345D01*
X96078243Y-69552114D01*
X96058357Y-69558866D01*
X96048609Y-69559185D01*
X95800752Y-69559185D01*
X95724323Y-69579664D01*
X95688756Y-69600200D01*
X95688755Y-69600201D01*
X95655803Y-69619225D01*
X94166190Y-71108838D01*
X94126629Y-71177361D01*
X94106150Y-71253787D01*
X94106150Y-75991805D01*
X94126629Y-76068232D01*
X94126630Y-76068234D01*
X94137257Y-76086641D01*
X94137259Y-76086643D01*
X94166190Y-76136754D01*
X95914947Y-77885511D01*
X95970896Y-77941460D01*
X96039418Y-77981021D01*
X96115845Y-78001500D01*
X96115850Y-78001500D01*
X100138557Y-78001500D01*
X100138562Y-78001500D01*
X100214989Y-77981021D01*
X100283511Y-77941460D01*
X100339460Y-77885511D01*
X100580830Y-77644141D01*
X100647625Y-77605577D01*
X100686189Y-77600500D01*
X101504259Y-77600500D01*
X101504266Y-77600500D01*
X101534699Y-77597646D01*
X101662882Y-77552793D01*
X101772150Y-77472150D01*
X101852793Y-77362882D01*
X101897646Y-77234699D01*
X101900500Y-77204266D01*
X101900500Y-76395734D01*
X101897646Y-76365301D01*
X101852793Y-76237118D01*
X101846234Y-76228231D01*
X101772151Y-76127851D01*
X101772148Y-76127848D01*
X101662883Y-76047207D01*
X101603042Y-76026268D01*
X101534699Y-76002354D01*
X101534697Y-76002353D01*
X101534695Y-76002353D01*
X101504275Y-75999500D01*
X101504266Y-75999500D01*
X100495734Y-75999500D01*
X100495724Y-75999500D01*
X100465304Y-76002353D01*
X100337116Y-76047207D01*
X100227851Y-76127848D01*
X100227848Y-76127851D01*
X100147207Y-76237115D01*
X100115639Y-76327335D01*
X100072191Y-76391061D01*
X100002701Y-76424525D01*
X99925788Y-76418762D01*
X99862062Y-76375314D01*
X99834361Y-76327335D01*
X99802792Y-76237115D01*
X99722151Y-76127851D01*
X99722148Y-76127848D01*
X99612883Y-76047207D01*
X99553042Y-76026268D01*
X99484699Y-76002354D01*
X99484697Y-76002353D01*
X99484695Y-76002353D01*
X99454275Y-75999500D01*
X99454266Y-75999500D01*
X98445734Y-75999500D01*
X98445724Y-75999500D01*
X98415304Y-76002353D01*
X98287116Y-76047207D01*
X98177851Y-76127848D01*
X98177848Y-76127851D01*
X98097207Y-76237116D01*
X98052353Y-76365304D01*
X98050418Y-76374162D01*
X98048938Y-76373838D01*
X98025608Y-76436720D01*
X97966217Y-76485929D01*
X97904088Y-76499500D01*
X96007696Y-76499500D01*
X95933196Y-76479538D01*
X95902337Y-76455859D01*
X95151791Y-75705313D01*
X95113227Y-75638518D01*
X95108150Y-75599954D01*
X95108150Y-74575551D01*
X95128112Y-74501051D01*
X95182650Y-74446513D01*
X95257150Y-74426551D01*
X95331650Y-74446513D01*
X95348622Y-74459536D01*
X95349242Y-74458729D01*
X95356987Y-74464671D01*
X95356989Y-74464672D01*
X95356992Y-74464675D01*
X95489408Y-74541125D01*
X95637099Y-74580699D01*
X95790001Y-74580699D01*
X95850590Y-74564463D01*
X95927716Y-74564462D01*
X95994512Y-74603025D01*
X96026596Y-74657411D01*
X96027249Y-74657098D01*
X96030970Y-74664824D01*
X96032330Y-74667130D01*
X96032702Y-74668421D01*
X96072383Y-74750819D01*
X96072384Y-74750821D01*
X96113185Y-74783358D01*
X96143887Y-74807842D01*
X96233050Y-74828193D01*
X96233052Y-74828193D01*
X97376051Y-74828193D01*
X97383671Y-74827334D01*
X97421778Y-74823041D01*
X97504177Y-74783359D01*
X97561199Y-74711856D01*
X97581550Y-74622693D01*
X97581550Y-74112467D01*
X97601512Y-74037967D01*
X97656050Y-73983429D01*
X97730550Y-73963467D01*
X100446139Y-73963467D01*
X100446142Y-73963467D01*
X100536506Y-73939253D01*
X100560720Y-73932766D01*
X100663447Y-73873456D01*
X101000289Y-73536614D01*
X101034531Y-73477304D01*
X101059599Y-73433886D01*
X101090300Y-73319309D01*
X101090300Y-73147833D01*
X101110262Y-73073333D01*
X101164800Y-73018795D01*
X101239300Y-72998833D01*
X101260788Y-73000391D01*
X101261530Y-73000499D01*
X101261538Y-73000499D01*
X101261540Y-73000500D01*
X101261541Y-73000500D01*
X102353059Y-73000500D01*
X102353060Y-73000500D01*
X102353063Y-73000499D01*
X102353068Y-73000499D01*
X102421193Y-72990573D01*
X102421194Y-72990573D01*
X102526281Y-72939199D01*
X102526281Y-72939198D01*
X102526283Y-72939198D01*
X102608998Y-72856483D01*
X102617728Y-72847753D01*
X102620026Y-72850051D01*
X102663933Y-72813890D01*
X102725665Y-72800500D01*
X102840608Y-72800500D01*
X102840613Y-72800500D01*
X102917040Y-72780021D01*
X102985562Y-72740460D01*
X103041511Y-72684511D01*
X103445141Y-72280879D01*
X103511936Y-72242316D01*
X103589064Y-72242316D01*
X103655859Y-72280880D01*
X103694423Y-72347675D01*
X103699500Y-72386239D01*
X103699500Y-73104275D01*
X103702353Y-73134695D01*
X103702353Y-73134697D01*
X103702354Y-73134699D01*
X103726268Y-73203042D01*
X103747207Y-73262883D01*
X103827848Y-73372148D01*
X103827851Y-73372151D01*
X103937116Y-73452792D01*
X103937117Y-73452792D01*
X103937118Y-73452793D01*
X104065301Y-73497646D01*
X104095734Y-73500500D01*
X104095741Y-73500500D01*
X104904259Y-73500500D01*
X104904266Y-73500500D01*
X104934699Y-73497646D01*
X105062882Y-73452793D01*
X105172150Y-73372150D01*
X105252793Y-73262882D01*
X105297646Y-73134699D01*
X105300500Y-73104266D01*
X105300500Y-72095734D01*
X105297646Y-72065301D01*
X105252793Y-71937118D01*
X105230183Y-71906483D01*
X105172151Y-71827851D01*
X105172148Y-71827848D01*
X105062882Y-71747206D01*
X105044112Y-71740639D01*
X104980385Y-71697192D01*
X104946920Y-71627702D01*
X104952683Y-71550790D01*
X104996130Y-71487063D01*
X105044112Y-71459361D01*
X105062882Y-71452793D01*
X105091106Y-71431963D01*
X105172150Y-71372150D01*
X105252793Y-71262882D01*
X105297646Y-71134699D01*
X105300500Y-71104266D01*
X105300500Y-70095734D01*
X105297646Y-70065301D01*
X105252793Y-69937118D01*
X105185629Y-69846114D01*
X105172151Y-69827851D01*
X105172148Y-69827848D01*
X105062883Y-69747207D01*
X105003042Y-69726268D01*
X104934699Y-69702354D01*
X104934697Y-69702353D01*
X104934695Y-69702353D01*
X104904275Y-69699500D01*
X104904266Y-69699500D01*
X104095734Y-69699500D01*
X104095724Y-69699500D01*
X104065304Y-69702353D01*
X103937116Y-69747207D01*
X103827851Y-69827848D01*
X103827848Y-69827851D01*
X103747207Y-69937116D01*
X103702353Y-70065304D01*
X103699500Y-70095724D01*
X103699500Y-70713760D01*
X103679538Y-70788260D01*
X103625000Y-70842798D01*
X103550500Y-70862760D01*
X103476000Y-70842798D01*
X103445141Y-70819119D01*
X102985561Y-70359539D01*
X102965999Y-70348245D01*
X102965997Y-70348244D01*
X102944226Y-70335675D01*
X102917040Y-70319979D01*
X102840613Y-70299500D01*
X102711525Y-70299500D01*
X102697633Y-70296839D01*
X102675221Y-70285983D01*
X102651165Y-70279538D01*
X102638874Y-70268379D01*
X102628219Y-70263218D01*
X102620243Y-70251462D01*
X102619336Y-70250638D01*
X102617728Y-70252247D01*
X102526285Y-70160803D01*
X102526281Y-70160800D01*
X102421194Y-70109426D01*
X102353068Y-70099500D01*
X102353060Y-70099500D01*
X101261540Y-70099500D01*
X101261539Y-70099500D01*
X101261527Y-70099501D01*
X101260765Y-70099612D01*
X101260471Y-70099577D01*
X101256157Y-70099890D01*
X101256097Y-70099062D01*
X101184166Y-70090590D01*
X101122341Y-70044478D01*
X101094661Y-69987950D01*
X101090300Y-69970322D01*
X101090300Y-69960691D01*
X101059599Y-69846114D01*
X101059599Y-69846113D01*
X101000290Y-69743386D01*
X100294141Y-69037237D01*
X100255577Y-68970442D01*
X100250500Y-68931878D01*
X100250500Y-68080741D01*
X100250499Y-68080724D01*
X100247646Y-68050304D01*
X100247646Y-68050301D01*
X100202793Y-67922118D01*
X100159488Y-67863442D01*
X100122151Y-67812851D01*
X100122148Y-67812848D01*
X100012882Y-67732206D01*
X100012880Y-67732205D01*
X99877121Y-67684701D01*
X99865463Y-67676753D01*
X99851833Y-67673101D01*
X99834106Y-67655374D01*
X99813395Y-67641254D01*
X99807272Y-67628540D01*
X99797295Y-67618563D01*
X99790806Y-67594346D01*
X99779931Y-67571763D01*
X99777333Y-67544063D01*
X99777333Y-67465936D01*
X99797295Y-67391436D01*
X99851833Y-67336898D01*
X99877122Y-67325297D01*
X99884697Y-67322646D01*
X99884699Y-67322646D01*
X100012882Y-67277793D01*
X100122150Y-67197150D01*
X100202793Y-67087882D01*
X100247646Y-66959699D01*
X100250500Y-66929266D01*
X100250500Y-65870734D01*
X100247646Y-65840301D01*
X100202793Y-65712118D01*
X100122150Y-65602850D01*
X100122148Y-65602848D01*
X100012883Y-65522207D01*
X99953042Y-65501268D01*
X99884699Y-65477354D01*
X99884697Y-65477353D01*
X99884695Y-65477353D01*
X99854275Y-65474500D01*
X99854266Y-65474500D01*
X99494642Y-65474500D01*
X99420142Y-65454538D01*
X99389283Y-65430859D01*
X98483424Y-64525000D01*
X95612654Y-61654231D01*
X101599500Y-61654231D01*
X101599500Y-62745768D01*
X101609426Y-62813893D01*
X101609426Y-62813894D01*
X101660800Y-62918981D01*
X101743518Y-63001699D01*
X101848605Y-63053073D01*
X101916731Y-63062999D01*
X101916737Y-63062999D01*
X101916740Y-63063000D01*
X101916741Y-63063000D01*
X102283259Y-63063000D01*
X102283260Y-63063000D01*
X102283263Y-63062999D01*
X102283268Y-63062999D01*
X102351393Y-63053073D01*
X102351394Y-63053073D01*
X102456481Y-63001699D01*
X102456481Y-63001698D01*
X102456483Y-63001698D01*
X102539198Y-62918983D01*
X102590573Y-62813893D01*
X102600500Y-62745760D01*
X102600500Y-61654240D01*
X102599658Y-61648464D01*
X102590573Y-61586106D01*
X102590573Y-61586105D01*
X102539199Y-61481018D01*
X102456481Y-61398300D01*
X102351394Y-61346926D01*
X102283268Y-61337000D01*
X102283260Y-61337000D01*
X101916740Y-61337000D01*
X101916731Y-61337000D01*
X101848606Y-61346926D01*
X101848605Y-61346926D01*
X101743518Y-61398300D01*
X101660800Y-61481018D01*
X101609426Y-61586105D01*
X101609426Y-61586106D01*
X101599500Y-61654231D01*
X95612654Y-61654231D01*
X95597934Y-61639511D01*
X95597931Y-61639509D01*
X95597927Y-61639506D01*
X95495210Y-61580202D01*
X95495207Y-61580201D01*
X95470993Y-61573713D01*
X95405607Y-61556193D01*
X95378051Y-61548809D01*
X95330247Y-61526300D01*
X95329825Y-61526000D01*
X95013858Y-61301233D01*
X94577156Y-60990580D01*
X94545316Y-60959872D01*
X94481246Y-60876375D01*
X94323625Y-60718754D01*
X94289656Y-60692689D01*
X94146774Y-60583052D01*
X94146773Y-60583051D01*
X94146770Y-60583049D01*
X93953733Y-60471598D01*
X93747778Y-60386288D01*
X93532464Y-60328596D01*
X93532447Y-60328593D01*
X93311462Y-60299500D01*
X93311457Y-60299500D01*
X93088543Y-60299500D01*
X93088537Y-60299500D01*
X92867552Y-60328593D01*
X92867535Y-60328596D01*
X92652222Y-60386288D01*
X92652221Y-60386288D01*
X92446266Y-60471598D01*
X92253229Y-60583049D01*
X92076374Y-60718754D01*
X91918754Y-60876374D01*
X91783049Y-61053229D01*
X91671598Y-61246266D01*
X91586288Y-61452221D01*
X91586288Y-61452222D01*
X91528596Y-61667535D01*
X91528593Y-61667552D01*
X91499500Y-61888537D01*
X91099500Y-61888537D01*
X91099500Y-57340189D01*
X91119462Y-57265689D01*
X91143138Y-57234833D01*
X91245142Y-57132829D01*
X91311936Y-57094266D01*
X91389064Y-57094266D01*
X91455859Y-57132830D01*
X91494423Y-57199625D01*
X91499500Y-57238189D01*
X91499500Y-57411462D01*
X91528593Y-57632447D01*
X91528596Y-57632464D01*
X91586288Y-57847777D01*
X91586288Y-57847778D01*
X91671598Y-58053733D01*
X91783049Y-58246770D01*
X91783051Y-58246773D01*
X91783052Y-58246774D01*
X91918753Y-58423624D01*
X92076376Y-58581247D01*
X92248627Y-58713419D01*
X92253229Y-58716950D01*
X92446266Y-58828401D01*
X92446269Y-58828402D01*
X92446274Y-58828405D01*
X92571485Y-58880269D01*
X92652221Y-58913711D01*
X92759878Y-58942557D01*
X92867537Y-58971404D01*
X93088543Y-59000500D01*
X93311457Y-59000500D01*
X93532463Y-58971404D01*
X93747777Y-58913711D01*
X93747778Y-58913711D01*
X93747779Y-58913710D01*
X93747781Y-58913710D01*
X93953726Y-58828405D01*
X94146774Y-58716948D01*
X94323624Y-58581247D01*
X94436224Y-58468645D01*
X94470581Y-58443011D01*
X95715280Y-57768499D01*
X95786271Y-57750500D01*
X99226679Y-57750500D01*
X99301179Y-57770462D01*
X99332038Y-57794141D01*
X101237241Y-59699344D01*
X101256509Y-59724919D01*
X101257008Y-59724575D01*
X101261164Y-59730597D01*
X101261167Y-59730601D01*
X101261168Y-59730602D01*
X101564244Y-60088783D01*
X101597128Y-60158548D01*
X101599500Y-60185027D01*
X101599500Y-60470768D01*
X101609426Y-60538893D01*
X101609426Y-60538894D01*
X101660800Y-60643981D01*
X101743518Y-60726699D01*
X101848605Y-60778073D01*
X101916731Y-60787999D01*
X101916737Y-60787999D01*
X101916740Y-60788000D01*
X101916741Y-60788000D01*
X102283259Y-60788000D01*
X102283260Y-60788000D01*
X102283263Y-60787999D01*
X102283268Y-60787999D01*
X102351393Y-60778073D01*
X102351394Y-60778073D01*
X102456481Y-60726699D01*
X102456481Y-60726698D01*
X102456483Y-60726698D01*
X102539198Y-60643983D01*
X102590573Y-60538893D01*
X102600378Y-60471598D01*
X102600499Y-60470768D01*
X102600500Y-60470758D01*
X102600500Y-59379241D01*
X102600499Y-59379231D01*
X102590573Y-59311106D01*
X102590573Y-59311105D01*
X102539199Y-59206018D01*
X102456481Y-59123300D01*
X102351394Y-59071926D01*
X102283268Y-59062000D01*
X102283260Y-59062000D01*
X101935821Y-59062000D01*
X101861321Y-59042038D01*
X101830462Y-59018359D01*
X100816962Y-58004859D01*
X100778398Y-57938064D01*
X100778398Y-57860936D01*
X100816962Y-57794141D01*
X100883757Y-57755577D01*
X100922321Y-57750500D01*
X101271035Y-57750500D01*
X101345535Y-57770462D01*
X101400073Y-57825000D01*
X101410386Y-57851657D01*
X101411860Y-57851142D01*
X101459707Y-57987883D01*
X101540348Y-58097148D01*
X101540351Y-58097151D01*
X101649616Y-58177792D01*
X101649617Y-58177792D01*
X101649618Y-58177793D01*
X101777801Y-58222646D01*
X101808234Y-58225500D01*
X102264178Y-58225500D01*
X102338678Y-58245462D01*
X102369537Y-58269141D01*
X103378315Y-59277919D01*
X103416879Y-59344714D01*
X103420868Y-59365303D01*
X103494605Y-59972059D01*
X103495984Y-59978291D01*
X103499500Y-60010470D01*
X103499500Y-60470768D01*
X103509426Y-60538893D01*
X103509426Y-60538894D01*
X103560800Y-60643981D01*
X103643518Y-60726699D01*
X103748605Y-60778073D01*
X103816731Y-60787999D01*
X103816737Y-60787999D01*
X103816740Y-60788000D01*
X103816741Y-60788000D01*
X104183259Y-60788000D01*
X104183260Y-60788000D01*
X104183263Y-60787999D01*
X104183268Y-60787999D01*
X104251393Y-60778073D01*
X104251394Y-60778073D01*
X104356481Y-60726699D01*
X104356481Y-60726698D01*
X104356483Y-60726698D01*
X104439198Y-60643983D01*
X104490573Y-60538893D01*
X104500378Y-60471598D01*
X104500499Y-60470768D01*
X104500500Y-60470758D01*
X104500500Y-59379241D01*
X104500499Y-59379231D01*
X104490573Y-59311107D01*
X104465638Y-59260100D01*
X104454625Y-59212496D01*
X104451773Y-59212872D01*
X104450498Y-59203186D01*
X104419800Y-59088617D01*
X104419799Y-59088616D01*
X104419799Y-59088615D01*
X104360490Y-58985888D01*
X103031641Y-57657039D01*
X102993077Y-57590244D01*
X102988000Y-57551680D01*
X102988000Y-56770741D01*
X102987999Y-56770724D01*
X102985146Y-56740304D01*
X102985146Y-56740301D01*
X102940293Y-56612118D01*
X102884964Y-56537150D01*
X102859651Y-56502851D01*
X102859648Y-56502848D01*
X102750383Y-56422207D01*
X102690542Y-56401268D01*
X102622199Y-56377354D01*
X102622197Y-56377353D01*
X102622195Y-56377353D01*
X102591775Y-56374500D01*
X102591766Y-56374500D01*
X101808234Y-56374500D01*
X101808224Y-56374500D01*
X101777804Y-56377353D01*
X101777801Y-56377353D01*
X101777801Y-56377354D01*
X101769297Y-56380329D01*
X101649616Y-56422207D01*
X101540351Y-56502848D01*
X101540348Y-56502851D01*
X101459707Y-56612116D01*
X101411860Y-56748858D01*
X101408623Y-56747725D01*
X101381238Y-56800781D01*
X101316333Y-56842447D01*
X101271035Y-56849500D01*
X95786273Y-56849500D01*
X95715282Y-56831501D01*
X94470585Y-56156988D01*
X94436217Y-56131346D01*
X94358730Y-56053859D01*
X94320166Y-55987064D01*
X94320166Y-55909936D01*
X94358730Y-55843141D01*
X94425525Y-55804577D01*
X94464089Y-55799500D01*
X108562754Y-55799500D01*
X108637254Y-55819462D01*
X108668113Y-55843141D01*
X109699011Y-56874039D01*
X109737575Y-56940834D01*
X109737575Y-57017962D01*
X109717541Y-57062178D01*
X109711133Y-57071768D01*
X109699500Y-57130251D01*
X109699500Y-58669748D01*
X109711132Y-58728230D01*
X109711133Y-58728231D01*
X109755448Y-58794552D01*
X109821769Y-58838867D01*
X109880252Y-58850500D01*
X110819748Y-58850500D01*
X110878231Y-58838867D01*
X110944552Y-58794552D01*
X110976113Y-58747317D01*
X111034101Y-58696466D01*
X111109747Y-58681420D01*
X111182782Y-58706213D01*
X111223886Y-58747317D01*
X111255448Y-58794552D01*
X111321769Y-58838867D01*
X111380252Y-58850500D01*
X112319748Y-58850500D01*
X112378231Y-58838867D01*
X112444552Y-58794552D01*
X112476113Y-58747317D01*
X112534101Y-58696466D01*
X112609747Y-58681420D01*
X112682782Y-58706213D01*
X112723886Y-58747317D01*
X112755448Y-58794552D01*
X112821769Y-58838867D01*
X112880252Y-58850500D01*
X112883194Y-58850500D01*
X112884906Y-58850958D01*
X112887537Y-58851218D01*
X112887494Y-58851652D01*
X112957694Y-58870462D01*
X113012232Y-58925000D01*
X113032194Y-58999500D01*
X113012232Y-59074000D01*
X113001399Y-59090211D01*
X112999500Y-59092685D01*
X112933609Y-59206812D01*
X112933608Y-59206814D01*
X112932086Y-59212496D01*
X112899500Y-59334106D01*
X112899500Y-59334108D01*
X112899500Y-59465892D01*
X112933608Y-59593186D01*
X112933609Y-59593187D01*
X112999497Y-59707310D01*
X112999498Y-59707311D01*
X112999500Y-59707314D01*
X113092686Y-59800500D01*
X113206814Y-59866392D01*
X113334108Y-59900500D01*
X113465892Y-59900500D01*
X113593186Y-59866392D01*
X113707314Y-59800500D01*
X113800500Y-59707314D01*
X113866392Y-59593186D01*
X113900500Y-59465892D01*
X113900500Y-59334108D01*
X113866392Y-59206814D01*
X113800500Y-59092686D01*
X113798798Y-59090984D01*
X113797598Y-59088905D01*
X113794559Y-59084945D01*
X113795080Y-59084544D01*
X113760236Y-59024192D01*
X113760236Y-58947064D01*
X113798800Y-58880269D01*
X113811496Y-58868946D01*
X113839727Y-58846525D01*
X113878231Y-58838867D01*
X113944552Y-58794552D01*
X113988867Y-58728231D01*
X113988901Y-58728059D01*
X114007337Y-58713419D01*
X114022046Y-58707036D01*
X114034101Y-58696466D01*
X114056830Y-58691945D01*
X114078093Y-58682720D01*
X114094022Y-58684547D01*
X114109747Y-58681420D01*
X114131693Y-58688870D01*
X114154718Y-58691512D01*
X114167598Y-58701058D01*
X114182782Y-58706213D01*
X114206346Y-58729777D01*
X114216682Y-58737438D01*
X114218732Y-58742163D01*
X114223886Y-58747317D01*
X114255448Y-58794552D01*
X114321769Y-58838867D01*
X114380252Y-58850500D01*
X114383194Y-58850500D01*
X114384906Y-58850958D01*
X114387537Y-58851218D01*
X114387494Y-58851652D01*
X114457694Y-58870462D01*
X114512232Y-58925000D01*
X114532194Y-58999500D01*
X114512232Y-59074000D01*
X114501399Y-59090211D01*
X114499500Y-59092685D01*
X114433609Y-59206812D01*
X114433608Y-59206814D01*
X114432086Y-59212496D01*
X114399500Y-59334106D01*
X114399500Y-59334108D01*
X114399500Y-59465892D01*
X114433608Y-59593186D01*
X114433609Y-59593187D01*
X114499497Y-59707310D01*
X114499498Y-59707311D01*
X114499500Y-59707314D01*
X114592686Y-59800500D01*
X114706814Y-59866392D01*
X114834108Y-59900500D01*
X114965892Y-59900500D01*
X115093186Y-59866392D01*
X115207314Y-59800500D01*
X115300500Y-59707314D01*
X115366392Y-59593186D01*
X115400500Y-59465892D01*
X115400500Y-59334108D01*
X115366392Y-59206814D01*
X115300500Y-59092686D01*
X115298798Y-59090984D01*
X115297598Y-59088905D01*
X115294559Y-59084945D01*
X115295080Y-59084544D01*
X115260236Y-59024192D01*
X115260236Y-58947064D01*
X115298800Y-58880269D01*
X115311496Y-58868946D01*
X115339727Y-58846525D01*
X115378231Y-58838867D01*
X115444552Y-58794552D01*
X115488867Y-58728231D01*
X115488901Y-58728059D01*
X115507337Y-58713419D01*
X115522046Y-58707036D01*
X115534101Y-58696466D01*
X115556830Y-58691945D01*
X115578093Y-58682720D01*
X115594022Y-58684547D01*
X115609747Y-58681420D01*
X115631693Y-58688870D01*
X115654718Y-58691512D01*
X115667598Y-58701058D01*
X115682782Y-58706213D01*
X115706346Y-58729777D01*
X115716682Y-58737438D01*
X115718732Y-58742163D01*
X115723886Y-58747317D01*
X115755448Y-58794552D01*
X115821769Y-58838867D01*
X115880252Y-58850500D01*
X116819748Y-58850500D01*
X116878231Y-58838867D01*
X116944552Y-58794552D01*
X116976113Y-58747317D01*
X117034101Y-58696466D01*
X117109747Y-58681420D01*
X117182782Y-58706213D01*
X117223886Y-58747317D01*
X117255448Y-58794552D01*
X117321769Y-58838867D01*
X117380252Y-58850500D01*
X117914811Y-58850500D01*
X117989311Y-58870462D01*
X118043849Y-58925000D01*
X118063811Y-58999500D01*
X118043849Y-59074000D01*
X118020170Y-59104859D01*
X116469170Y-60655859D01*
X116402375Y-60694423D01*
X116363811Y-60699500D01*
X110869032Y-60699500D01*
X110794532Y-60679538D01*
X110763674Y-60655860D01*
X110751795Y-60643981D01*
X110707314Y-60599500D01*
X110707311Y-60599498D01*
X110707310Y-60599497D01*
X110636514Y-60558623D01*
X110593186Y-60533608D01*
X110465892Y-60499500D01*
X110334108Y-60499500D01*
X110206814Y-60533608D01*
X110206812Y-60533608D01*
X110206812Y-60533609D01*
X110092689Y-60599497D01*
X109999497Y-60692689D01*
X109933609Y-60806812D01*
X109899500Y-60934106D01*
X109899500Y-60934108D01*
X109899500Y-61065892D01*
X109933608Y-61193186D01*
X109933609Y-61193187D01*
X109999497Y-61307310D01*
X109999498Y-61307311D01*
X109999500Y-61307314D01*
X110092686Y-61400500D01*
X110092688Y-61400501D01*
X110092689Y-61400502D01*
X110215272Y-61471275D01*
X110213421Y-61474480D01*
X110259465Y-61509837D01*
X110288955Y-61581105D01*
X110278861Y-61657569D01*
X110231886Y-61718742D01*
X110160618Y-61748232D01*
X110141223Y-61749500D01*
X104657962Y-61749500D01*
X104631290Y-61747093D01*
X104624528Y-61745862D01*
X104624008Y-61745666D01*
X104617325Y-61744552D01*
X104616170Y-61744342D01*
X104582254Y-61728301D01*
X104548135Y-61712777D01*
X104547475Y-61711853D01*
X104546447Y-61711367D01*
X104525104Y-61680529D01*
X104503309Y-61650013D01*
X104502911Y-61648464D01*
X104502553Y-61647947D01*
X104502447Y-61646660D01*
X104495399Y-61619230D01*
X104490573Y-61586106D01*
X104490573Y-61586105D01*
X104439199Y-61481018D01*
X104356481Y-61398300D01*
X104251394Y-61346926D01*
X104183268Y-61337000D01*
X104183260Y-61337000D01*
X103816740Y-61337000D01*
X103816731Y-61337000D01*
X103748606Y-61346926D01*
X103748605Y-61346926D01*
X103643518Y-61398300D01*
X103560800Y-61481018D01*
X103509426Y-61586105D01*
X103509426Y-61586106D01*
X103499500Y-61654231D01*
X103499500Y-62668020D01*
X103499320Y-62675337D01*
X103496184Y-62739040D01*
X103538824Y-63122794D01*
X103544602Y-63174794D01*
X103545820Y-63180959D01*
X103545042Y-63181112D01*
X103549500Y-63212812D01*
X103549500Y-63231982D01*
X103529538Y-63306482D01*
X103505859Y-63337341D01*
X103502848Y-63340351D01*
X103422206Y-63449617D01*
X103422205Y-63449619D01*
X103422172Y-63449716D01*
X103422095Y-63449828D01*
X103416989Y-63459490D01*
X103415900Y-63458914D01*
X103378722Y-63513441D01*
X103309232Y-63546903D01*
X103281535Y-63549500D01*
X99440691Y-63549500D01*
X99326114Y-63580201D01*
X99326113Y-63580201D01*
X99326111Y-63580202D01*
X99282697Y-63605267D01*
X99282687Y-63605273D01*
X99273791Y-63610408D01*
X99237871Y-63625285D01*
X99206820Y-63633606D01*
X99206810Y-63633609D01*
X99092692Y-63699495D01*
X99092688Y-63699498D01*
X98999497Y-63792689D01*
X98933609Y-63906812D01*
X98899500Y-64034106D01*
X98899500Y-64034108D01*
X98899500Y-64165892D01*
X98933608Y-64293186D01*
X98933609Y-64293187D01*
X98999497Y-64407310D01*
X98999498Y-64407311D01*
X98999500Y-64407314D01*
X99092686Y-64500500D01*
X99206814Y-64566392D01*
X99334108Y-64600500D01*
X99465892Y-64600500D01*
X99593186Y-64566392D01*
X99707314Y-64500500D01*
X99713674Y-64494139D01*
X99780467Y-64455577D01*
X99819031Y-64450500D01*
X103281535Y-64450500D01*
X103356035Y-64470462D01*
X103410573Y-64525000D01*
X103422172Y-64550284D01*
X103422205Y-64550380D01*
X103422206Y-64550382D01*
X103502848Y-64659648D01*
X103502851Y-64659651D01*
X103612116Y-64740292D01*
X103612117Y-64740292D01*
X103612118Y-64740293D01*
X103740301Y-64785146D01*
X103770734Y-64788000D01*
X103770741Y-64788000D01*
X104829259Y-64788000D01*
X104829266Y-64788000D01*
X104859699Y-64785146D01*
X104987882Y-64740293D01*
X105097150Y-64659650D01*
X105177793Y-64550382D01*
X105222646Y-64422199D01*
X105225500Y-64391766D01*
X105225500Y-63608234D01*
X105222646Y-63577801D01*
X105177793Y-63449618D01*
X105097150Y-63340350D01*
X105097148Y-63340348D01*
X104987883Y-63259707D01*
X104908648Y-63231982D01*
X104859699Y-63214854D01*
X104859697Y-63214853D01*
X104859695Y-63214853D01*
X104829275Y-63212000D01*
X104829266Y-63212000D01*
X104617736Y-63212000D01*
X104609604Y-63209821D01*
X104601281Y-63211089D01*
X104572786Y-63199955D01*
X104543236Y-63192038D01*
X104537282Y-63186084D01*
X104529442Y-63183021D01*
X104510333Y-63159135D01*
X104488698Y-63137500D01*
X104486518Y-63129367D01*
X104481260Y-63122794D01*
X104476653Y-63092549D01*
X104468736Y-63063000D01*
X104469645Y-63046563D01*
X104498693Y-62785135D01*
X104526761Y-62713298D01*
X104586988Y-62665116D01*
X104618402Y-62655776D01*
X104618390Y-62655724D01*
X104619523Y-62655443D01*
X104622303Y-62654617D01*
X104629724Y-62653381D01*
X104629809Y-62653896D01*
X104657660Y-62650500D01*
X117859306Y-62650500D01*
X117859309Y-62650500D01*
X117949673Y-62626286D01*
X117973887Y-62619799D01*
X118076614Y-62560489D01*
X121210489Y-59426614D01*
X121244731Y-59367304D01*
X121269799Y-59323886D01*
X121300500Y-59209309D01*
X121300500Y-58970447D01*
X121320462Y-58895947D01*
X121366719Y-58846559D01*
X121378230Y-58838867D01*
X121378231Y-58838867D01*
X121444552Y-58794552D01*
X121488867Y-58728231D01*
X121500500Y-58669748D01*
X121500500Y-57130252D01*
X121497354Y-57114438D01*
X121488867Y-57071769D01*
X121479191Y-57057288D01*
X121444552Y-57005448D01*
X121444548Y-57005445D01*
X121416718Y-56986849D01*
X121365865Y-56928860D01*
X121350500Y-56862962D01*
X121350500Y-54650514D01*
X121370462Y-54576014D01*
X121379615Y-54562035D01*
X121384043Y-54556035D01*
X121452793Y-54462882D01*
X121497646Y-54334699D01*
X121500500Y-54304266D01*
X121500500Y-53495734D01*
X121497646Y-53465301D01*
X121452793Y-53337118D01*
X121405708Y-53273320D01*
X121372151Y-53227851D01*
X121372148Y-53227848D01*
X121262883Y-53147207D01*
X121203042Y-53126268D01*
X121134699Y-53102354D01*
X121134697Y-53102353D01*
X121134695Y-53102353D01*
X121104275Y-53099500D01*
X121104266Y-53099500D01*
X120095734Y-53099500D01*
X120095724Y-53099500D01*
X120065304Y-53102353D01*
X119937116Y-53147207D01*
X119837964Y-53220385D01*
X119766167Y-53248563D01*
X119749485Y-53249500D01*
X119097839Y-53249500D01*
X119023339Y-53229538D01*
X118968801Y-53175000D01*
X118957201Y-53149714D01*
X118955312Y-53144317D01*
X118952793Y-53137118D01*
X118872150Y-53027850D01*
X118872148Y-53027848D01*
X118762883Y-52947207D01*
X118691659Y-52922285D01*
X118634699Y-52902354D01*
X118634697Y-52902353D01*
X118634695Y-52902353D01*
X118604275Y-52899500D01*
X118604266Y-52899500D01*
X117595734Y-52899500D01*
X117595724Y-52899500D01*
X117565304Y-52902353D01*
X117437116Y-52947207D01*
X117327851Y-53027848D01*
X117327848Y-53027851D01*
X117247207Y-53137117D01*
X117242799Y-53149714D01*
X117234850Y-53161371D01*
X117231199Y-53175000D01*
X117213471Y-53192727D01*
X117199350Y-53213439D01*
X117186638Y-53219560D01*
X117176661Y-53229538D01*
X117152444Y-53236026D01*
X117129859Y-53246903D01*
X117102161Y-53249500D01*
X116997839Y-53249500D01*
X116923339Y-53229538D01*
X116868801Y-53175000D01*
X116857201Y-53149714D01*
X116855312Y-53144317D01*
X116852793Y-53137118D01*
X116772150Y-53027850D01*
X116772148Y-53027848D01*
X116662883Y-52947207D01*
X116591659Y-52922285D01*
X116534699Y-52902354D01*
X116534697Y-52902353D01*
X116534695Y-52902353D01*
X116504275Y-52899500D01*
X116504266Y-52899500D01*
X115495734Y-52899500D01*
X115495724Y-52899500D01*
X115465304Y-52902353D01*
X115337117Y-52947207D01*
X115334367Y-52948661D01*
X115330331Y-52949582D01*
X115326579Y-52950895D01*
X115326431Y-52950472D01*
X115317919Y-52952414D01*
X115303311Y-52960849D01*
X115280962Y-52960849D01*
X115259172Y-52965822D01*
X115243052Y-52960849D01*
X115226183Y-52960849D01*
X115206827Y-52949674D01*
X115185471Y-52943086D01*
X115159388Y-52922285D01*
X114991962Y-52754859D01*
X114953398Y-52688064D01*
X114953398Y-52610936D01*
X114991962Y-52544141D01*
X115058757Y-52505577D01*
X115097321Y-52500500D01*
X115165892Y-52500500D01*
X115293186Y-52466392D01*
X115407314Y-52400500D01*
X115463674Y-52344140D01*
X115530469Y-52305577D01*
X115569032Y-52300500D01*
X116194748Y-52300500D01*
X116253231Y-52288867D01*
X116319552Y-52244552D01*
X116363867Y-52178231D01*
X116375500Y-52119748D01*
X116375500Y-51680252D01*
X116371752Y-51661412D01*
X116363867Y-51621769D01*
X116337815Y-51582780D01*
X116313022Y-51509749D01*
X116328067Y-51434102D01*
X116337809Y-51417227D01*
X116363867Y-51378231D01*
X116375500Y-51319748D01*
X116375500Y-50880252D01*
X116363867Y-50821769D01*
X116319552Y-50755448D01*
X116275236Y-50725836D01*
X116253230Y-50711132D01*
X116194748Y-50699500D01*
X116147237Y-50699500D01*
X116083535Y-50682431D01*
X116082911Y-50683939D01*
X116073890Y-50680202D01*
X115959309Y-50649500D01*
X115374500Y-50649500D01*
X115300000Y-50629538D01*
X115245462Y-50575000D01*
X115225500Y-50500500D01*
X115225500Y-50170741D01*
X115225499Y-50170724D01*
X115222646Y-50140301D01*
X115177793Y-50012118D01*
X115103262Y-49911132D01*
X115097151Y-49902851D01*
X115097148Y-49902848D01*
X114987883Y-49822207D01*
X114899289Y-49791207D01*
X114887630Y-49783258D01*
X114874000Y-49779606D01*
X114856274Y-49761880D01*
X114835562Y-49747759D01*
X114829439Y-49735045D01*
X114819462Y-49725068D01*
X114812973Y-49700853D01*
X114802098Y-49678269D01*
X114799500Y-49650568D01*
X114799500Y-49474322D01*
X114819462Y-49399822D01*
X114843141Y-49368963D01*
X115017719Y-49194385D01*
X115084513Y-49155820D01*
X115161641Y-49155820D01*
X115228436Y-49194384D01*
X115252116Y-49225243D01*
X115299497Y-49307310D01*
X115299498Y-49307311D01*
X115299500Y-49307314D01*
X115392686Y-49400500D01*
X115506814Y-49466392D01*
X115634108Y-49500500D01*
X115765892Y-49500500D01*
X115893186Y-49466392D01*
X116007314Y-49400500D01*
X116100500Y-49307314D01*
X116166392Y-49193186D01*
X116187026Y-49116172D01*
X116225586Y-49049383D01*
X116255832Y-49019138D01*
X116322627Y-48980575D01*
X116361189Y-48975499D01*
X116480507Y-48975499D01*
X116504581Y-48972707D01*
X116558334Y-48948972D01*
X116634549Y-48937140D01*
X116706469Y-48965000D01*
X116723879Y-48979916D01*
X116778790Y-49034827D01*
X116891370Y-49089864D01*
X116891372Y-49089864D01*
X116891375Y-49089866D01*
X116905584Y-49091936D01*
X116964353Y-49100499D01*
X116964361Y-49100499D01*
X116964364Y-49100500D01*
X116964367Y-49100500D01*
X117385633Y-49100500D01*
X117385636Y-49100500D01*
X117385639Y-49100499D01*
X117385646Y-49100499D01*
X117430206Y-49094006D01*
X117458625Y-49089866D01*
X117571211Y-49034826D01*
X117626121Y-48979915D01*
X117692914Y-48941352D01*
X117770042Y-48941352D01*
X117791662Y-48948970D01*
X117845420Y-48972707D01*
X117869495Y-48975500D01*
X118330504Y-48975499D01*
X118330506Y-48975499D01*
X118354580Y-48972707D01*
X118354582Y-48972706D01*
X118453079Y-48929215D01*
X118453079Y-48929214D01*
X118465709Y-48923638D01*
X118466416Y-48925241D01*
X118523636Y-48905076D01*
X118599451Y-48919246D01*
X118640460Y-48948274D01*
X118692686Y-49000500D01*
X118692688Y-49000501D01*
X118692689Y-49000502D01*
X118705359Y-49007817D01*
X118806814Y-49066392D01*
X118912378Y-49094677D01*
X118928774Y-49099071D01*
X118995568Y-49137636D01*
X119034132Y-49204431D01*
X119034132Y-49281559D01*
X119022760Y-49310536D01*
X118977353Y-49440304D01*
X118974500Y-49470724D01*
X118974500Y-49700500D01*
X118954538Y-49775000D01*
X118900000Y-49829538D01*
X118825500Y-49849500D01*
X118140691Y-49849500D01*
X118026109Y-49880202D01*
X118017089Y-49883939D01*
X118016464Y-49882431D01*
X117952765Y-49899500D01*
X117905252Y-49899500D01*
X117846769Y-49911132D01*
X117780448Y-49955448D01*
X117736132Y-50021769D01*
X117724500Y-50080251D01*
X117724500Y-50519748D01*
X117736132Y-50578230D01*
X117736133Y-50578231D01*
X117780448Y-50644552D01*
X117846769Y-50688867D01*
X117905252Y-50700500D01*
X117952763Y-50700500D01*
X118016464Y-50717568D01*
X118017089Y-50716061D01*
X118026109Y-50719797D01*
X118026111Y-50719797D01*
X118026114Y-50719799D01*
X118140691Y-50750500D01*
X118994482Y-50750500D01*
X119068982Y-50770462D01*
X119099841Y-50794141D01*
X119102851Y-50797151D01*
X119212116Y-50877792D01*
X119212117Y-50877792D01*
X119212118Y-50877793D01*
X119340301Y-50922646D01*
X119370734Y-50925500D01*
X119784714Y-50925500D01*
X119859214Y-50945462D01*
X119913752Y-51000000D01*
X119933714Y-51074500D01*
X119913752Y-51149000D01*
X119873193Y-51194385D01*
X119827851Y-51227848D01*
X119827848Y-51227851D01*
X119747207Y-51337116D01*
X119702353Y-51465304D01*
X119699500Y-51495724D01*
X119699500Y-51654493D01*
X119679538Y-51728993D01*
X119625000Y-51783531D01*
X119550500Y-51803493D01*
X119476000Y-51783531D01*
X119421462Y-51728993D01*
X119400502Y-51692689D01*
X119400501Y-51692688D01*
X119400500Y-51692686D01*
X119307314Y-51599500D01*
X119307311Y-51599498D01*
X119307310Y-51599497D01*
X119230939Y-51555405D01*
X119193186Y-51533608D01*
X119065892Y-51499500D01*
X118934108Y-51499500D01*
X118806814Y-51533608D01*
X118777557Y-51550500D01*
X118769061Y-51555405D01*
X118694561Y-51575367D01*
X118620061Y-51555405D01*
X118611797Y-51550266D01*
X118553231Y-51511133D01*
X118553230Y-51511132D01*
X118494748Y-51499500D01*
X117905252Y-51499500D01*
X117846769Y-51511132D01*
X117780448Y-51555448D01*
X117736132Y-51621769D01*
X117724500Y-51680251D01*
X117724500Y-52119748D01*
X117736132Y-52178230D01*
X117736133Y-52178231D01*
X117780448Y-52244552D01*
X117846769Y-52288867D01*
X117905252Y-52300500D01*
X118260438Y-52300500D01*
X118530968Y-52300500D01*
X118605468Y-52320462D01*
X118636326Y-52344140D01*
X118692686Y-52400500D01*
X118806814Y-52466392D01*
X118934108Y-52500500D01*
X119065892Y-52500500D01*
X119193186Y-52466392D01*
X119307314Y-52400500D01*
X119400500Y-52307314D01*
X119424226Y-52266218D01*
X119478762Y-52211681D01*
X119553262Y-52191718D01*
X119627762Y-52211679D01*
X119682301Y-52266216D01*
X119701613Y-52326804D01*
X119702353Y-52334696D01*
X119747207Y-52462883D01*
X119827848Y-52572148D01*
X119827851Y-52572151D01*
X119937116Y-52652792D01*
X119937117Y-52652792D01*
X119937118Y-52652793D01*
X120065301Y-52697646D01*
X120095734Y-52700500D01*
X120095741Y-52700500D01*
X121104259Y-52700500D01*
X121104266Y-52700500D01*
X121134699Y-52697646D01*
X121262882Y-52652793D01*
X121372150Y-52572150D01*
X121452793Y-52462882D01*
X121497646Y-52334699D01*
X121500500Y-52304266D01*
X121500500Y-51495734D01*
X121497646Y-51465301D01*
X121452793Y-51337118D01*
X121439973Y-51319748D01*
X121372151Y-51227851D01*
X121372148Y-51227848D01*
X121262883Y-51147207D01*
X121150289Y-51107809D01*
X121086562Y-51064361D01*
X121053098Y-50994871D01*
X121050500Y-50967170D01*
X121050500Y-50778191D01*
X121050499Y-50778189D01*
X121043079Y-50750499D01*
X121019799Y-50663614D01*
X121019799Y-50663613D01*
X120960490Y-50560886D01*
X120594141Y-50194537D01*
X120555577Y-50127742D01*
X120550500Y-50089178D01*
X120550500Y-49470741D01*
X120550499Y-49470724D01*
X120547646Y-49440304D01*
X120547646Y-49440301D01*
X120502793Y-49312118D01*
X120501625Y-49310536D01*
X120422151Y-49202851D01*
X120422148Y-49202848D01*
X120312883Y-49122207D01*
X120220456Y-49089866D01*
X120184699Y-49077354D01*
X120184697Y-49077353D01*
X120184695Y-49077353D01*
X120154275Y-49074500D01*
X120154266Y-49074500D01*
X119562051Y-49074500D01*
X119487551Y-49054538D01*
X119433013Y-49000000D01*
X119413051Y-48925500D01*
X119433013Y-48851000D01*
X119433333Y-48850444D01*
X119466392Y-48793186D01*
X119500500Y-48665892D01*
X119500500Y-48534108D01*
X119466392Y-48406814D01*
X119400500Y-48292686D01*
X119307314Y-48199500D01*
X119307311Y-48199498D01*
X119307310Y-48199497D01*
X119236514Y-48158623D01*
X119193186Y-48133608D01*
X119065892Y-48099500D01*
X118934108Y-48099500D01*
X118806814Y-48133608D01*
X118806812Y-48133608D01*
X118806812Y-48133609D01*
X118692689Y-48199497D01*
X118692687Y-48199499D01*
X118640459Y-48251726D01*
X118573664Y-48290289D01*
X118496536Y-48290287D01*
X118465803Y-48276148D01*
X118465709Y-48276362D01*
X118453079Y-48270785D01*
X118354580Y-48227293D01*
X118330505Y-48224500D01*
X118330499Y-48224500D01*
X117874500Y-48224500D01*
X117800000Y-48204538D01*
X117745462Y-48150000D01*
X117725500Y-48075500D01*
X117725500Y-47439366D01*
X117725499Y-47439353D01*
X117714866Y-47366376D01*
X117714864Y-47366370D01*
X117659827Y-47253790D01*
X117562481Y-47156444D01*
X117564778Y-47154146D01*
X117528610Y-47110236D01*
X117515911Y-47034160D01*
X117542950Y-46961927D01*
X117602483Y-46912891D01*
X117664219Y-46899500D01*
X124010307Y-46899500D01*
X124010310Y-46899500D01*
X124100674Y-46875286D01*
X124124888Y-46868799D01*
X124227615Y-46809489D01*
X126170143Y-44866960D01*
X126236936Y-44828398D01*
X126314064Y-44828398D01*
X126380859Y-44866962D01*
X126419423Y-44933757D01*
X126424500Y-44972321D01*
X126424500Y-45228268D01*
X126434426Y-45296393D01*
X126434426Y-45296394D01*
X126485800Y-45401481D01*
X126568518Y-45484199D01*
X126673605Y-45535573D01*
X126741731Y-45545499D01*
X126741737Y-45545499D01*
X126741740Y-45545500D01*
X126741741Y-45545500D01*
X128558259Y-45545500D01*
X128558260Y-45545500D01*
X128558263Y-45545499D01*
X128558268Y-45545499D01*
X128626393Y-45535573D01*
X128626394Y-45535573D01*
X128731481Y-45484199D01*
X128731481Y-45484198D01*
X128731483Y-45484198D01*
X128814198Y-45401483D01*
X128865573Y-45296393D01*
X128873689Y-45240691D01*
X128875499Y-45228268D01*
X128875500Y-45228258D01*
X128875500Y-44861741D01*
X128875499Y-44861731D01*
X128865573Y-44793606D01*
X128865573Y-44793605D01*
X128814199Y-44688518D01*
X128731481Y-44605800D01*
X128626390Y-44554425D01*
X128619695Y-44552356D01*
X128599137Y-44539424D01*
X128576440Y-44530783D01*
X128567028Y-44519225D01*
X128554410Y-44511288D01*
X128543071Y-44489807D01*
X128527737Y-44470977D01*
X128525364Y-44456262D01*
X128518406Y-44443079D01*
X128519327Y-44418808D01*
X128515462Y-44394832D01*
X128520765Y-44380900D01*
X128521331Y-44366006D01*
X128534262Y-44345448D01*
X128542904Y-44322751D01*
X128553179Y-44315377D01*
X128562399Y-44300721D01*
X128602710Y-44274048D01*
X128619301Y-44266606D01*
X128626393Y-44265573D01*
X128679622Y-44239550D01*
X128681856Y-44238549D01*
X128696947Y-44236116D01*
X128742834Y-44225500D01*
X129100948Y-44225500D01*
X129175448Y-44245462D01*
X129220833Y-44286021D01*
X129302848Y-44397148D01*
X129302851Y-44397151D01*
X129412116Y-44477792D01*
X129412117Y-44477792D01*
X129412118Y-44477793D01*
X129540301Y-44522646D01*
X129570734Y-44525500D01*
X129570741Y-44525500D01*
X130629259Y-44525500D01*
X130629266Y-44525500D01*
X130659699Y-44522646D01*
X130787882Y-44477793D01*
X130897150Y-44397150D01*
X130977793Y-44287882D01*
X131022646Y-44159699D01*
X131025500Y-44129266D01*
X131025500Y-43345734D01*
X131022646Y-43315301D01*
X130977793Y-43187118D01*
X130954211Y-43155166D01*
X130897151Y-43077851D01*
X130897148Y-43077848D01*
X130787883Y-42997207D01*
X130728042Y-42976268D01*
X130659699Y-42952354D01*
X130659697Y-42952353D01*
X130659695Y-42952353D01*
X130629275Y-42949500D01*
X130629266Y-42949500D01*
X129570734Y-42949500D01*
X129570724Y-42949500D01*
X129540304Y-42952353D01*
X129412116Y-42997207D01*
X129302851Y-43077848D01*
X129302848Y-43077851D01*
X129222206Y-43187117D01*
X129209053Y-43224710D01*
X129165606Y-43288437D01*
X129096116Y-43321902D01*
X129068414Y-43324500D01*
X128742834Y-43324500D01*
X128681855Y-43311451D01*
X128679633Y-43310454D01*
X128626393Y-43284427D01*
X128619302Y-43283393D01*
X128602709Y-43275951D01*
X128579616Y-43257145D01*
X128554410Y-43241289D01*
X128550085Y-43233096D01*
X128542903Y-43227247D01*
X128532308Y-43199418D01*
X128518406Y-43173080D01*
X128518757Y-43163822D01*
X128515462Y-43155166D01*
X128520201Y-43125764D01*
X128521331Y-43096007D01*
X128526262Y-43088167D01*
X128527737Y-43079021D01*
X128546542Y-43055928D01*
X128562399Y-43030722D01*
X128571214Y-43025632D01*
X128576441Y-43019215D01*
X128593734Y-43012631D01*
X128619702Y-42997640D01*
X128626384Y-42995574D01*
X128626393Y-42995573D01*
X128731483Y-42944198D01*
X128814198Y-42861483D01*
X128846340Y-42795735D01*
X128865573Y-42756394D01*
X128865573Y-42756393D01*
X128875499Y-42688268D01*
X128875500Y-42688258D01*
X128875500Y-42321741D01*
X128875499Y-42321731D01*
X128865573Y-42253606D01*
X128865573Y-42253605D01*
X128814199Y-42148518D01*
X128731481Y-42065800D01*
X128626398Y-42014429D01*
X128626395Y-42014428D01*
X128626393Y-42014427D01*
X128626390Y-42014426D01*
X128619702Y-42012360D01*
X128554416Y-41971294D01*
X128518408Y-41903087D01*
X128521328Y-41826014D01*
X128562394Y-41760728D01*
X128619702Y-41727640D01*
X128626384Y-41725574D01*
X128626393Y-41725573D01*
X128731483Y-41674198D01*
X128814198Y-41591483D01*
X128865573Y-41486393D01*
X128875500Y-41418260D01*
X128875500Y-41051740D01*
X128865573Y-40983607D01*
X128865573Y-40983606D01*
X128865573Y-40983605D01*
X128814199Y-40878518D01*
X128731481Y-40795800D01*
X128626394Y-40744426D01*
X128558268Y-40734500D01*
X128558260Y-40734500D01*
X126741740Y-40734500D01*
X126741731Y-40734500D01*
X126673606Y-40744426D01*
X126673605Y-40744426D01*
X126568518Y-40795800D01*
X126485800Y-40878518D01*
X126434426Y-40983605D01*
X126434426Y-40983606D01*
X126424500Y-41051731D01*
X126424500Y-41418268D01*
X126434426Y-41486393D01*
X126434426Y-41486394D01*
X126485800Y-41591481D01*
X126568518Y-41674199D01*
X126673604Y-41725572D01*
X126680299Y-41727641D01*
X126745585Y-41768707D01*
X126781591Y-41836915D01*
X126778670Y-41913988D01*
X126737604Y-41979274D01*
X126680299Y-42012359D01*
X126673604Y-42014427D01*
X126568518Y-42065800D01*
X126485800Y-42148518D01*
X126434426Y-42253605D01*
X126434426Y-42253606D01*
X126424500Y-42321731D01*
X126424500Y-42688268D01*
X126434426Y-42756393D01*
X126434426Y-42756394D01*
X126485800Y-42861481D01*
X126568518Y-42944199D01*
X126673604Y-42995572D01*
X126680299Y-42997641D01*
X126700859Y-43010573D01*
X126723558Y-43019215D01*
X126732969Y-43030771D01*
X126745585Y-43038707D01*
X126756923Y-43060186D01*
X126772261Y-43079020D01*
X126774633Y-43093734D01*
X126781591Y-43106915D01*
X126780671Y-43131186D01*
X126784537Y-43155165D01*
X126779234Y-43169093D01*
X126778670Y-43183988D01*
X126765737Y-43204548D01*
X126757096Y-43227247D01*
X126746820Y-43234621D01*
X126737604Y-43249274D01*
X126697291Y-43275950D01*
X126680694Y-43283394D01*
X126673607Y-43284427D01*
X126620380Y-43310447D01*
X126618146Y-43311450D01*
X126603059Y-43313882D01*
X126574995Y-43320374D01*
X126575371Y-43323226D01*
X126565688Y-43324500D01*
X126475327Y-43348712D01*
X126475327Y-43348713D01*
X126451114Y-43355201D01*
X126348390Y-43414508D01*
X123808039Y-45954859D01*
X123741244Y-45993423D01*
X123702680Y-45998500D01*
X117066688Y-45998500D01*
X116976327Y-46022712D01*
X116976327Y-46022713D01*
X116964220Y-46025957D01*
X116952113Y-46029201D01*
X116849386Y-46088510D01*
X115698387Y-47239510D01*
X115535673Y-47402223D01*
X115468878Y-47440787D01*
X115391750Y-47440787D01*
X115324955Y-47402223D01*
X115289675Y-47346075D01*
X115277792Y-47312116D01*
X115197151Y-47202851D01*
X115197148Y-47202848D01*
X115087883Y-47122207D01*
X115022989Y-47099500D01*
X114959699Y-47077354D01*
X114959697Y-47077353D01*
X114959695Y-47077353D01*
X114929275Y-47074500D01*
X114929266Y-47074500D01*
X114145734Y-47074500D01*
X114145724Y-47074500D01*
X114115304Y-47077353D01*
X113987116Y-47122207D01*
X113877851Y-47202848D01*
X113877848Y-47202851D01*
X113797207Y-47312116D01*
X113752353Y-47440304D01*
X113749500Y-47470724D01*
X113749500Y-48529275D01*
X113752353Y-48559695D01*
X113797207Y-48687883D01*
X113877848Y-48797148D01*
X113877850Y-48797150D01*
X113909941Y-48820834D01*
X113926128Y-48841131D01*
X113945597Y-48858308D01*
X113949802Y-48870817D01*
X113958030Y-48881135D01*
X113961899Y-48906806D01*
X113970172Y-48931416D01*
X113967393Y-48943253D01*
X113969526Y-48957402D01*
X113954901Y-49007017D01*
X113952821Y-49011202D01*
X113929201Y-49052114D01*
X113929201Y-49052115D01*
X113925345Y-49066502D01*
X113925345Y-49066504D01*
X113898500Y-49166690D01*
X113898500Y-49738588D01*
X113878538Y-49813088D01*
X113837978Y-49858474D01*
X113777850Y-49902849D01*
X113777848Y-49902851D01*
X113697207Y-50012116D01*
X113652353Y-50140304D01*
X113649500Y-50170724D01*
X113649500Y-51229275D01*
X113652353Y-51259695D01*
X113697207Y-51387883D01*
X113777848Y-51497148D01*
X113777850Y-51497150D01*
X113827250Y-51533609D01*
X113837978Y-51541526D01*
X113886067Y-51601827D01*
X113898500Y-51661412D01*
X113898500Y-52165596D01*
X113893423Y-52184541D01*
X113893424Y-52204156D01*
X113883615Y-52221145D01*
X113878538Y-52240096D01*
X113864668Y-52253965D01*
X113854862Y-52270952D01*
X113837872Y-52280761D01*
X113824000Y-52294634D01*
X113788068Y-52309518D01*
X113749707Y-52319798D01*
X113749701Y-52319799D01*
X113714616Y-52329199D01*
X113714609Y-52329202D01*
X113611892Y-52388506D01*
X113611887Y-52388510D01*
X113569537Y-52430860D01*
X113502742Y-52469423D01*
X113464179Y-52474500D01*
X112845724Y-52474500D01*
X112815304Y-52477353D01*
X112687116Y-52522207D01*
X112577851Y-52602848D01*
X112577848Y-52602851D01*
X112497207Y-52712116D01*
X112452353Y-52840304D01*
X112449500Y-52870724D01*
X112449500Y-53929275D01*
X112452353Y-53959695D01*
X112497207Y-54087883D01*
X112577848Y-54197148D01*
X112577851Y-54197151D01*
X112687116Y-54277792D01*
X112687117Y-54277792D01*
X112687118Y-54277793D01*
X112687204Y-54277823D01*
X112687308Y-54277893D01*
X112696990Y-54283011D01*
X112696413Y-54284101D01*
X112698865Y-54285772D01*
X112712500Y-54289426D01*
X112730223Y-54307149D01*
X112750933Y-54321267D01*
X112757057Y-54333983D01*
X112767038Y-54343964D01*
X112773524Y-54368173D01*
X112784401Y-54390755D01*
X112787000Y-54418464D01*
X112787000Y-54481535D01*
X112767038Y-54556035D01*
X112712500Y-54610573D01*
X112687223Y-54622169D01*
X112687128Y-54622201D01*
X112687112Y-54622210D01*
X112577851Y-54702848D01*
X112577848Y-54702851D01*
X112497207Y-54812116D01*
X112452353Y-54940304D01*
X112449500Y-54970724D01*
X112449500Y-56029275D01*
X112452353Y-56059695D01*
X112452353Y-56059697D01*
X112452354Y-56059699D01*
X112472959Y-56118586D01*
X112497207Y-56187883D01*
X112577848Y-56297148D01*
X112577851Y-56297151D01*
X112687116Y-56377792D01*
X112687117Y-56377792D01*
X112687118Y-56377793D01*
X112815301Y-56422646D01*
X112845734Y-56425500D01*
X112845741Y-56425500D01*
X113629259Y-56425500D01*
X113629266Y-56425500D01*
X113659699Y-56422646D01*
X113787882Y-56377793D01*
X113897150Y-56297150D01*
X113977793Y-56187882D01*
X114003748Y-56113706D01*
X114047194Y-56049981D01*
X114116683Y-56016515D01*
X114193595Y-56022278D01*
X114249742Y-56057556D01*
X114292686Y-56100500D01*
X114292688Y-56100501D01*
X114292689Y-56100502D01*
X114299209Y-56104266D01*
X114406814Y-56166392D01*
X114534108Y-56200500D01*
X114665892Y-56200500D01*
X114793186Y-56166392D01*
X114903876Y-56102484D01*
X114978375Y-56082523D01*
X115052875Y-56102485D01*
X115107413Y-56157023D01*
X115119014Y-56182311D01*
X115147207Y-56262883D01*
X115227848Y-56372148D01*
X115227851Y-56372151D01*
X115337116Y-56452792D01*
X115337117Y-56452792D01*
X115337118Y-56452793D01*
X115465301Y-56497646D01*
X115495734Y-56500500D01*
X115900500Y-56500500D01*
X115975000Y-56520462D01*
X116029538Y-56575000D01*
X116049500Y-56649500D01*
X116049500Y-56800500D01*
X116029538Y-56875000D01*
X115975000Y-56929538D01*
X115900500Y-56949500D01*
X115880252Y-56949500D01*
X115821769Y-56961132D01*
X115755448Y-57005448D01*
X115755447Y-57005449D01*
X115723887Y-57052681D01*
X115665898Y-57103533D01*
X115590252Y-57118579D01*
X115517217Y-57093785D01*
X115476113Y-57052681D01*
X115464250Y-57034928D01*
X115444552Y-57005448D01*
X115390738Y-56969490D01*
X115378230Y-56961132D01*
X115319748Y-56949500D01*
X114380252Y-56949500D01*
X114321769Y-56961132D01*
X114255448Y-57005448D01*
X114255447Y-57005449D01*
X114223887Y-57052681D01*
X114165898Y-57103533D01*
X114090252Y-57118579D01*
X114017217Y-57093785D01*
X113976113Y-57052681D01*
X113964250Y-57034928D01*
X113944552Y-57005448D01*
X113890738Y-56969490D01*
X113878230Y-56961132D01*
X113819748Y-56949500D01*
X112880252Y-56949500D01*
X112821769Y-56961132D01*
X112755448Y-57005448D01*
X112755447Y-57005449D01*
X112723887Y-57052681D01*
X112665898Y-57103533D01*
X112590252Y-57118579D01*
X112517217Y-57093785D01*
X112476113Y-57052681D01*
X112464250Y-57034928D01*
X112444552Y-57005448D01*
X112390738Y-56969490D01*
X112378230Y-56961132D01*
X112319748Y-56949500D01*
X111380252Y-56949500D01*
X111321769Y-56961132D01*
X111255448Y-57005448D01*
X111255447Y-57005449D01*
X111223887Y-57052681D01*
X111165898Y-57103533D01*
X111090252Y-57118579D01*
X111017217Y-57093785D01*
X110976113Y-57052681D01*
X110964250Y-57034928D01*
X110944552Y-57005448D01*
X110890738Y-56969490D01*
X110878230Y-56961132D01*
X110819748Y-56949500D01*
X110686132Y-56949500D01*
X110611632Y-56929538D01*
X110580773Y-56905859D01*
X108933453Y-55258539D01*
X108890270Y-55233608D01*
X108890269Y-55233607D01*
X108864934Y-55218979D01*
X108788505Y-55198500D01*
X92414439Y-55198500D01*
X92414438Y-55198500D01*
X92338009Y-55218979D01*
X92312675Y-55233607D01*
X92312674Y-55233608D01*
X92269489Y-55258540D01*
X90558540Y-56969489D01*
X90518979Y-57038012D01*
X90498500Y-57114438D01*
X88700500Y-57114438D01*
X88700500Y-46161157D01*
X89759500Y-46161157D01*
X89759500Y-46318842D01*
X89790262Y-46473494D01*
X89790263Y-46473498D01*
X89850604Y-46619176D01*
X89850605Y-46619178D01*
X89850606Y-46619179D01*
X89938211Y-46750289D01*
X90049711Y-46861789D01*
X90180821Y-46949394D01*
X90180822Y-46949394D01*
X90180823Y-46949395D01*
X90252215Y-46978966D01*
X90326503Y-47009737D01*
X90481158Y-47040500D01*
X90638842Y-47040500D01*
X90793497Y-47009737D01*
X90843481Y-46989032D01*
X90919948Y-46978966D01*
X90991205Y-47008481D01*
X91038158Y-47069671D01*
X91049500Y-47126691D01*
X91049500Y-50959309D01*
X91061118Y-51002670D01*
X91061120Y-51002675D01*
X91063978Y-51013340D01*
X91080201Y-51073887D01*
X91128039Y-51156744D01*
X91131421Y-51164530D01*
X91132130Y-51169290D01*
X91138360Y-51184159D01*
X91471556Y-52388510D01*
X91494105Y-52470012D01*
X91499500Y-52509742D01*
X91499500Y-52711462D01*
X91528593Y-52932447D01*
X91528596Y-52932464D01*
X91586288Y-53147777D01*
X91586288Y-53147778D01*
X91671598Y-53353733D01*
X91783049Y-53546770D01*
X91783051Y-53546773D01*
X91783052Y-53546774D01*
X91918753Y-53723624D01*
X92076376Y-53881247D01*
X92253226Y-54016948D01*
X92253229Y-54016950D01*
X92446266Y-54128401D01*
X92446269Y-54128402D01*
X92446274Y-54128405D01*
X92611030Y-54196649D01*
X92652221Y-54213711D01*
X92759878Y-54242557D01*
X92867537Y-54271404D01*
X93088543Y-54300500D01*
X93311457Y-54300500D01*
X93532463Y-54271404D01*
X93747777Y-54213711D01*
X93747778Y-54213711D01*
X93747779Y-54213710D01*
X93747781Y-54213710D01*
X93953726Y-54128405D01*
X94146774Y-54016948D01*
X94323624Y-53881247D01*
X94481247Y-53723624D01*
X94616948Y-53546774D01*
X94728405Y-53353726D01*
X94813710Y-53147781D01*
X94871404Y-52932463D01*
X94900500Y-52711457D01*
X94900500Y-52488543D01*
X94871404Y-52267537D01*
X94813710Y-52052219D01*
X94728405Y-51846274D01*
X94728402Y-51846269D01*
X94728401Y-51846266D01*
X94616950Y-51653229D01*
X94616948Y-51653226D01*
X94481247Y-51476376D01*
X94323624Y-51318753D01*
X94146774Y-51183052D01*
X94146773Y-51183051D01*
X94146770Y-51183049D01*
X93953733Y-51071598D01*
X93936261Y-51064361D01*
X93929602Y-51061602D01*
X93747778Y-50986288D01*
X93532464Y-50928596D01*
X93532447Y-50928593D01*
X93311462Y-50899500D01*
X93311457Y-50899500D01*
X93162515Y-50899500D01*
X93131986Y-50896339D01*
X92068971Y-50673812D01*
X92000141Y-50639008D01*
X91957935Y-50574453D01*
X91950500Y-50527973D01*
X91950500Y-48193713D01*
X102949500Y-48193713D01*
X102949500Y-48406287D01*
X102982754Y-48616243D01*
X103048443Y-48818412D01*
X103141222Y-49000502D01*
X103144950Y-49007817D01*
X103144950Y-49007818D01*
X103177133Y-49052114D01*
X103269896Y-49179792D01*
X103420208Y-49330104D01*
X103592184Y-49455051D01*
X103781588Y-49551557D01*
X103983757Y-49617246D01*
X104193713Y-49650500D01*
X104193718Y-49650500D01*
X104406282Y-49650500D01*
X104406287Y-49650500D01*
X104616243Y-49617246D01*
X104818412Y-49551557D01*
X105007816Y-49455051D01*
X105179792Y-49330104D01*
X105330104Y-49179792D01*
X105371942Y-49122207D01*
X105415742Y-49061921D01*
X105475682Y-49013382D01*
X105536286Y-49000500D01*
X106163714Y-49000500D01*
X106238214Y-49020462D01*
X106284258Y-49061921D01*
X106369890Y-49179785D01*
X106369895Y-49179791D01*
X106369896Y-49179792D01*
X106520208Y-49330104D01*
X106692184Y-49455051D01*
X106881588Y-49551557D01*
X107083757Y-49617246D01*
X107293713Y-49650500D01*
X107293718Y-49650500D01*
X107506282Y-49650500D01*
X107506287Y-49650500D01*
X107716243Y-49617246D01*
X107918412Y-49551557D01*
X108107816Y-49455051D01*
X108279792Y-49330104D01*
X108430104Y-49179792D01*
X108471942Y-49122207D01*
X108515742Y-49061921D01*
X108575682Y-49013382D01*
X108636286Y-49000500D01*
X109453362Y-49000500D01*
X109453366Y-49000500D01*
X109588700Y-48973580D01*
X109676674Y-48937140D01*
X109716174Y-48920779D01*
X109716175Y-48920778D01*
X109716183Y-48920775D01*
X109830915Y-48844114D01*
X115425888Y-43249141D01*
X115492683Y-43210577D01*
X115531247Y-43205500D01*
X117051246Y-43205500D01*
X117125746Y-43225462D01*
X117180284Y-43280000D01*
X117200246Y-43354500D01*
X117185106Y-43419940D01*
X117134426Y-43523605D01*
X117134426Y-43523606D01*
X117124500Y-43591731D01*
X117124500Y-43958268D01*
X117134426Y-44026393D01*
X117134426Y-44026394D01*
X117185800Y-44131481D01*
X117268518Y-44214199D01*
X117373604Y-44265572D01*
X117380299Y-44267641D01*
X117445585Y-44308707D01*
X117481591Y-44376915D01*
X117478670Y-44453988D01*
X117437604Y-44519274D01*
X117380299Y-44552359D01*
X117373604Y-44554427D01*
X117268518Y-44605800D01*
X117185800Y-44688518D01*
X117134426Y-44793605D01*
X117134426Y-44793606D01*
X117124500Y-44861731D01*
X117124500Y-45228268D01*
X117134426Y-45296393D01*
X117134426Y-45296394D01*
X117185800Y-45401481D01*
X117268518Y-45484199D01*
X117373605Y-45535573D01*
X117441731Y-45545499D01*
X117441737Y-45545499D01*
X117441740Y-45545500D01*
X117441741Y-45545500D01*
X119258259Y-45545500D01*
X119258260Y-45545500D01*
X119258263Y-45545499D01*
X119258268Y-45545499D01*
X119326393Y-45535573D01*
X119326394Y-45535573D01*
X119431481Y-45484199D01*
X119431481Y-45484198D01*
X119431483Y-45484198D01*
X119448574Y-45467106D01*
X119515366Y-45428543D01*
X119592494Y-45428541D01*
X119659290Y-45467104D01*
X119692686Y-45500500D01*
X119692688Y-45500501D01*
X119692689Y-45500502D01*
X119720157Y-45516360D01*
X119806814Y-45566392D01*
X119934108Y-45600500D01*
X120065892Y-45600500D01*
X120193186Y-45566392D01*
X120307314Y-45500500D01*
X120400500Y-45407314D01*
X120466392Y-45293186D01*
X120500500Y-45165892D01*
X120500500Y-45034108D01*
X120466392Y-44906814D01*
X120400500Y-44792686D01*
X120307314Y-44699500D01*
X120307311Y-44699498D01*
X120307310Y-44699497D01*
X120195070Y-44634696D01*
X120193186Y-44633608D01*
X120065892Y-44599500D01*
X119934108Y-44599500D01*
X119806814Y-44633608D01*
X119806812Y-44633608D01*
X119806812Y-44633609D01*
X119685506Y-44703645D01*
X119658385Y-44710911D01*
X119632607Y-44722033D01*
X119621655Y-44720753D01*
X119611006Y-44723607D01*
X119583885Y-44716340D01*
X119556000Y-44713082D01*
X119545188Y-44705971D01*
X119536506Y-44703645D01*
X119526621Y-44693760D01*
X119505647Y-44679966D01*
X119431481Y-44605800D01*
X119326398Y-44554429D01*
X119326395Y-44554428D01*
X119326393Y-44554427D01*
X119326390Y-44554426D01*
X119319702Y-44552360D01*
X119254416Y-44511294D01*
X119218408Y-44443087D01*
X119221328Y-44366014D01*
X119262394Y-44300728D01*
X119319702Y-44267640D01*
X119326384Y-44265574D01*
X119326393Y-44265573D01*
X119431483Y-44214198D01*
X119463575Y-44182105D01*
X119471232Y-44177684D01*
X119476513Y-44170591D01*
X119504228Y-44158634D01*
X119530367Y-44143543D01*
X119539210Y-44143542D01*
X119547332Y-44140039D01*
X119577315Y-44143542D01*
X119607495Y-44143542D01*
X119615153Y-44147963D01*
X119623939Y-44148990D01*
X119648150Y-44167013D01*
X119674290Y-44182104D01*
X119692686Y-44200500D01*
X119806814Y-44266392D01*
X119934108Y-44300500D01*
X120065892Y-44300500D01*
X120193186Y-44266392D01*
X120307314Y-44200500D01*
X120400500Y-44107314D01*
X120466392Y-43993186D01*
X120500500Y-43865892D01*
X120500500Y-43734108D01*
X120466392Y-43606814D01*
X120400500Y-43492686D01*
X120307314Y-43399500D01*
X120307311Y-43399498D01*
X120307310Y-43399497D01*
X120229372Y-43354500D01*
X120193186Y-43333608D01*
X120065892Y-43299500D01*
X119934108Y-43299500D01*
X119806814Y-43333608D01*
X119806812Y-43333608D01*
X119806812Y-43333609D01*
X119692689Y-43399497D01*
X119684945Y-43405441D01*
X119682717Y-43402538D01*
X119632015Y-43431585D01*
X119554888Y-43431327D01*
X119513546Y-43412989D01*
X119499972Y-43404291D01*
X119431483Y-43335802D01*
X119326393Y-43284427D01*
X119308940Y-43281884D01*
X119283301Y-43265455D01*
X119270499Y-43251410D01*
X119254416Y-43241294D01*
X119244972Y-43223405D01*
X119231343Y-43208453D01*
X119227278Y-43189890D01*
X119218408Y-43173087D01*
X119219173Y-43152872D01*
X119214847Y-43133110D01*
X119220608Y-43115002D01*
X119221328Y-43096014D01*
X119232099Y-43078890D01*
X119238233Y-43059613D01*
X119252277Y-43046811D01*
X119262394Y-43030728D01*
X119282930Y-43018871D01*
X119295235Y-43007655D01*
X119306706Y-43005143D01*
X119319702Y-42997640D01*
X119326384Y-42995574D01*
X119326393Y-42995573D01*
X119431483Y-42944198D01*
X119514198Y-42861483D01*
X119546340Y-42795735D01*
X119565573Y-42756394D01*
X119565573Y-42756393D01*
X119575499Y-42688268D01*
X119575500Y-42688258D01*
X119575500Y-42321741D01*
X119575499Y-42321731D01*
X119565573Y-42253606D01*
X119565573Y-42253605D01*
X119514199Y-42148518D01*
X119431481Y-42065800D01*
X119326394Y-42014426D01*
X119258268Y-42004500D01*
X119258260Y-42004500D01*
X118901874Y-42004500D01*
X118827374Y-41984538D01*
X118802359Y-41965343D01*
X118802204Y-41965533D01*
X118796540Y-41960885D01*
X118796538Y-41960883D01*
X118681815Y-41884227D01*
X118681809Y-41884224D01*
X118554329Y-41831420D01*
X118554325Y-41831419D01*
X118418993Y-41804500D01*
X115248366Y-41804500D01*
X115110378Y-41804500D01*
X115110374Y-41804500D01*
X114975044Y-41831419D01*
X114975042Y-41831420D01*
X114847569Y-41884220D01*
X114847556Y-41884228D01*
X114732830Y-41960885D01*
X114732825Y-41960889D01*
X109137856Y-47555859D01*
X109071061Y-47594423D01*
X109032497Y-47599500D01*
X108636286Y-47599500D01*
X108561786Y-47579538D01*
X108515742Y-47538079D01*
X108430109Y-47420214D01*
X108430102Y-47420206D01*
X108279793Y-47269897D01*
X108279792Y-47269896D01*
X108107816Y-47144949D01*
X107918412Y-47048443D01*
X107716243Y-46982754D01*
X107506287Y-46949500D01*
X107293713Y-46949500D01*
X107118749Y-46977211D01*
X107083756Y-46982754D01*
X107000715Y-47009736D01*
X106881588Y-47048443D01*
X106881582Y-47048445D01*
X106881582Y-47048446D01*
X106692182Y-47144950D01*
X106692181Y-47144950D01*
X106520209Y-47269895D01*
X106520206Y-47269897D01*
X106369897Y-47420206D01*
X106369890Y-47420214D01*
X106284258Y-47538079D01*
X106224318Y-47586618D01*
X106163714Y-47599500D01*
X105536286Y-47599500D01*
X105461786Y-47579538D01*
X105415742Y-47538079D01*
X105330109Y-47420214D01*
X105330102Y-47420206D01*
X105179793Y-47269897D01*
X105179792Y-47269896D01*
X105007816Y-47144949D01*
X104818412Y-47048443D01*
X104616243Y-46982754D01*
X104406287Y-46949500D01*
X104193713Y-46949500D01*
X104018749Y-46977211D01*
X103983756Y-46982754D01*
X103900715Y-47009736D01*
X103781588Y-47048443D01*
X103781582Y-47048445D01*
X103781582Y-47048446D01*
X103592182Y-47144950D01*
X103592181Y-47144950D01*
X103420209Y-47269895D01*
X103420206Y-47269897D01*
X103269897Y-47420206D01*
X103269895Y-47420209D01*
X103144950Y-47592181D01*
X103144950Y-47592182D01*
X103048446Y-47781582D01*
X103048441Y-47781594D01*
X102986876Y-47971072D01*
X102982754Y-47983757D01*
X102949500Y-48193713D01*
X91950500Y-48193713D01*
X91950500Y-45548320D01*
X91970462Y-45473820D01*
X91994137Y-45442964D01*
X92392962Y-45044139D01*
X92459757Y-45005576D01*
X92498321Y-45000499D01*
X94004264Y-45000499D01*
X94004266Y-45000499D01*
X94004268Y-45000498D01*
X94004283Y-45000498D01*
X94027397Y-44998330D01*
X94034700Y-44997646D01*
X94162883Y-44952793D01*
X94272150Y-44872150D01*
X94352793Y-44762883D01*
X94397646Y-44634700D01*
X94400500Y-44604267D01*
X94400499Y-42795734D01*
X94400498Y-42795723D01*
X94400498Y-42795716D01*
X94397646Y-42765301D01*
X94397646Y-42765300D01*
X94352793Y-42637117D01*
X94272150Y-42527850D01*
X94272146Y-42527847D01*
X94162884Y-42447207D01*
X94103043Y-42426268D01*
X94034700Y-42402354D01*
X94034698Y-42402353D01*
X94034696Y-42402353D01*
X94004268Y-42399500D01*
X92195735Y-42399500D01*
X92195716Y-42399501D01*
X92165301Y-42402353D01*
X92165299Y-42402354D01*
X92037114Y-42447208D01*
X91927853Y-42527847D01*
X91927847Y-42527853D01*
X91847207Y-42637115D01*
X91802353Y-42765303D01*
X91799500Y-42795723D01*
X91799500Y-44301677D01*
X91779538Y-44376177D01*
X91755859Y-44407036D01*
X91139511Y-45023385D01*
X91139509Y-45023387D01*
X91080201Y-45126113D01*
X91080201Y-45126114D01*
X91073713Y-45150327D01*
X91049500Y-45240687D01*
X91049500Y-45353308D01*
X91029538Y-45427808D01*
X90975000Y-45482346D01*
X90900500Y-45502308D01*
X90843482Y-45490967D01*
X90802084Y-45473820D01*
X90793497Y-45470263D01*
X90793495Y-45470262D01*
X90793494Y-45470262D01*
X90638842Y-45439500D01*
X90481158Y-45439500D01*
X90326505Y-45470262D01*
X90326501Y-45470263D01*
X90180823Y-45530604D01*
X90093012Y-45589278D01*
X90070501Y-45604320D01*
X90049707Y-45618214D01*
X89938214Y-45729707D01*
X89850604Y-45860823D01*
X89790263Y-46006501D01*
X89790262Y-46006505D01*
X89759500Y-46161157D01*
X88700500Y-46161157D01*
X88700500Y-43621157D01*
X89759500Y-43621157D01*
X89759500Y-43778842D01*
X89790262Y-43933494D01*
X89790263Y-43933498D01*
X89850604Y-44079176D01*
X89850605Y-44079178D01*
X89850606Y-44079179D01*
X89938211Y-44210289D01*
X90049711Y-44321789D01*
X90180821Y-44409394D01*
X90180822Y-44409394D01*
X90180823Y-44409395D01*
X90253662Y-44439565D01*
X90326503Y-44469737D01*
X90481158Y-44500500D01*
X90638842Y-44500500D01*
X90793497Y-44469737D01*
X90939179Y-44409394D01*
X91070289Y-44321789D01*
X91181789Y-44210289D01*
X91269394Y-44079179D01*
X91329737Y-43933497D01*
X91360500Y-43778842D01*
X91360500Y-43621158D01*
X91357646Y-43606812D01*
X91341096Y-43523607D01*
X91329737Y-43466503D01*
X91269394Y-43320821D01*
X91181789Y-43189711D01*
X91070289Y-43078211D01*
X90939179Y-42990606D01*
X90939178Y-42990605D01*
X90939176Y-42990604D01*
X90793498Y-42930263D01*
X90793494Y-42930262D01*
X90638842Y-42899500D01*
X90481158Y-42899500D01*
X90326505Y-42930262D01*
X90326501Y-42930263D01*
X90180823Y-42990604D01*
X90128401Y-43025632D01*
X90050252Y-43077850D01*
X90049707Y-43078214D01*
X89938214Y-43189707D01*
X89938211Y-43189710D01*
X89938211Y-43189711D01*
X89931725Y-43199418D01*
X89850604Y-43320823D01*
X89790263Y-43466501D01*
X89790262Y-43466505D01*
X89759500Y-43621157D01*
X88700500Y-43621157D01*
X88700500Y-26349500D01*
X88720462Y-26275000D01*
X88775000Y-26220462D01*
X88849500Y-26200500D01*
X103332424Y-26200500D01*
X103406924Y-26220462D01*
G37*
%TD.AperFunction*%
%TD*%
M02*
