%TF.GenerationSoftware,KiCad,Pcbnew,9.0.1*%
%TF.CreationDate,2026-09-25T23:59:13+03:00*%
%TF.ProjectId,weather-station,77656174-6865-4722-9d73-746174696f6e,rev?*%
%TF.SameCoordinates,Original*%
%TF.FileFunction,Copper,L2,Bot*%
%TF.FilePolarity,Positive*%
%FSLAX46Y46*%
G04 Gerber Fmt 4.6, Leading zero omitted, Abs format (unit mm)*
G04 Created by KiCad (PCBNEW 9.0.1) date 2026-09-25 23:59:13*
%MOMM*%
%LPD*%
G01*
G04 APERTURE LIST*
G04 Aperture macros list*
%AMRoundRect*
0 Rectangle with rounded corners*
0 $1 Rounding radius*
0 $2 $3 $4 $5 $6 $7 $8 $9 X,Y pos of 4 corners*
0 Add a 4 corners polygon primitive as box body*
4,1,4,$2,$3,$4,$5,$6,$7,$8,$9,$2,$3,0*
0 Add four circle primitives for the rounded corners*
1,1,$1+$1,$2,$3*
1,1,$1+$1,$4,$5*
1,1,$1+$1,$6,$7*
1,1,$1+$1,$8,$9*
0 Add four rect primitives between the rounded corners*
20,1,$1+$1,$2,$3,$4,$5,0*
20,1,$1+$1,$4,$5,$6,$7,0*
20,1,$1+$1,$6,$7,$8,$9,0*
20,1,$1+$1,$8,$9,$2,$3,0*%
G04 Aperture macros list end*
%TA.AperFunction,ComponentPad*%
%ADD10RoundRect,0.249999X-0.850001X0.850001X-0.850001X-0.850001X0.850001X-0.850001X0.850001X0.850001X0*%
%TD*%
%TA.AperFunction,ComponentPad*%
%ADD11C,2.200000*%
%TD*%
%TA.AperFunction,ComponentPad*%
%ADD12C,2.000000*%
%TD*%
%TA.AperFunction,ComponentPad*%
%ADD13O,2.209800X1.117600*%
%TD*%
%TA.AperFunction,ComponentPad*%
%ADD14O,1.905000X1.117600*%
%TD*%
%TA.AperFunction,ComponentPad*%
%ADD15C,3.000000*%
%TD*%
%TA.AperFunction,HeatsinkPad*%
%ADD16C,0.600000*%
%TD*%
%TA.AperFunction,ComponentPad*%
%ADD17C,2.300000*%
%TD*%
%TA.AperFunction,ViaPad*%
%ADD18C,0.600000*%
%TD*%
%TA.AperFunction,Conductor*%
%ADD19C,1.000000*%
%TD*%
%TA.AperFunction,Conductor*%
%ADD20C,0.200000*%
%TD*%
%TA.AperFunction,Conductor*%
%ADD21C,0.500000*%
%TD*%
G04 APERTURE END LIST*
D10*
%TO.P,BT2,1,+*%
%TO.N,Battery +*%
X93100000Y-43700000D03*
D11*
%TO.P,BT2,2,-*%
%TO.N,Earth*%
X93100000Y-46240000D03*
%TD*%
D12*
%TO.P,SW2,1,1*%
%TO.N,Earth*%
X98600000Y-86100000D03*
X92100000Y-86100000D03*
%TO.P,SW2,2,2*%
%TO.N,Net-(U1-EN)*%
X98600000Y-81600000D03*
X92100000Y-81600000D03*
%TD*%
D13*
%TO.P,J2,S1,SHELL_GND*%
%TO.N,Earth*%
X96213550Y-66789998D03*
D14*
%TO.P,J2,S2,SHELL_GND*%
X92063550Y-66789968D03*
%TO.P,J2,S3,SHELL_GND*%
X92063550Y-75430032D03*
D13*
%TO.P,J2,S4,SHELL_GND*%
X96213550Y-75430002D03*
%TD*%
D15*
%TO.P,SW1,1,1*%
%TO.N,Battery +*%
X93200000Y-52600000D03*
%TO.P,SW1,2,3*%
%TO.N,Net-(SW1-3)*%
X93200000Y-57300000D03*
%TO.P,SW1,3,4*%
%TO.N,USB +*%
X93200000Y-62000000D03*
%TD*%
D16*
%TO.P,U1,19,GND*%
%TO.N,Earth*%
X115200000Y-66510000D03*
X114100000Y-66510000D03*
X115750000Y-67060000D03*
X114650000Y-67060000D03*
X113550000Y-67060000D03*
X115200000Y-67610000D03*
X114100000Y-67610000D03*
X115750000Y-68160000D03*
X114650000Y-68160000D03*
X113550000Y-68160000D03*
X115200000Y-68710000D03*
X114100000Y-68710000D03*
%TD*%
D12*
%TO.P,SW3,1,1*%
%TO.N,Earth*%
X98350000Y-95550000D03*
X91850000Y-95550000D03*
%TO.P,SW3,2,2*%
%TO.N,Net-(U1-IO9)*%
X98350000Y-91050000D03*
X91850000Y-91050000D03*
%TD*%
D17*
%TO.P,BT1,1,+*%
%TO.N,Coin Cell +*%
X104300000Y-48300000D03*
X107400000Y-48300000D03*
X104300000Y-27500000D03*
X107400000Y-27500000D03*
%TD*%
D18*
%TO.N,Earth*%
X111100000Y-48000000D03*
X116700000Y-38700000D03*
X116700000Y-40000000D03*
X117600000Y-94000000D03*
X116700000Y-36200000D03*
X117600000Y-83600000D03*
X107800000Y-94000000D03*
X108706238Y-76733639D03*
X117000000Y-52500000D03*
X119000000Y-47200000D03*
X111100000Y-50700000D03*
X98300000Y-71500000D03*
X117100000Y-49700000D03*
X102238419Y-58561581D03*
X123100000Y-50000000D03*
X102800000Y-66400000D03*
X129300000Y-40000000D03*
X115400000Y-83600000D03*
X129300000Y-37400000D03*
X116700000Y-41300000D03*
X108800000Y-56400000D03*
X129300000Y-36100000D03*
X106400000Y-76700000D03*
X102800000Y-68600000D03*
X116700000Y-37400000D03*
X129300000Y-38800000D03*
X104300000Y-94100000D03*
X105400000Y-57400000D03*
X104200000Y-82500000D03*
X93100000Y-48600000D03*
%TO.N,SD chip select*%
X110995000Y-81010000D03*
X116300000Y-77000000D03*
%TO.N,SD clock*%
X114900000Y-59400000D03*
X114295000Y-81010000D03*
%TO.N,SD MOSI*%
X113400000Y-59400000D03*
X112095000Y-81010000D03*
%TO.N,SCL*%
X115700000Y-49000000D03*
X115100000Y-52000000D03*
X114600000Y-55700000D03*
X120000000Y-45100000D03*
%TO.N,SDA*%
X119000000Y-52000000D03*
X119000000Y-48600000D03*
X119500000Y-55700000D03*
X120000000Y-43800000D03*
%TO.N,Net-(U1-EN)*%
X110400000Y-61000000D03*
%TO.N,+3V3*%
X117400000Y-84700000D03*
X128900000Y-84700000D03*
X99400000Y-64100000D03*
X93800000Y-77300000D03*
%TD*%
D19*
%TO.N,Coin Cell +*%
X107400000Y-27500000D02*
X107400000Y-48300000D01*
D20*
%TO.N,SD chip select*%
X112405000Y-79600000D02*
X110995000Y-81010000D01*
X116300000Y-78000000D02*
X114700000Y-79600000D01*
X114700000Y-79600000D02*
X112405000Y-79600000D01*
X116300000Y-77000000D02*
X116300000Y-78000000D01*
%TO.N,SD clock*%
X115490000Y-81010000D02*
X114295000Y-81010000D01*
X118300000Y-78200000D02*
X115490000Y-81010000D01*
X114900000Y-59400000D02*
X118300000Y-62800000D01*
X118300000Y-62800000D02*
X118300000Y-78200000D01*
%TO.N,SD MOSI*%
X117500000Y-78000000D02*
X115100000Y-80400000D01*
X113400000Y-59400000D02*
X117500000Y-63500000D01*
X112705000Y-80400000D02*
X112095000Y-81010000D01*
X115100000Y-80400000D02*
X112705000Y-80400000D01*
X117500000Y-63500000D02*
X117500000Y-78000000D01*
%TO.N,SCL*%
X114600000Y-55700000D02*
X114600000Y-53900000D01*
X114600000Y-50100000D02*
X115300000Y-49400000D01*
X119600000Y-45100000D02*
X120000000Y-45100000D01*
X115300000Y-49400000D02*
X115700000Y-49000000D01*
X114600000Y-52500000D02*
X115100000Y-52000000D01*
X114600000Y-53500000D02*
X114600000Y-50100000D01*
X114600000Y-53500000D02*
X114600000Y-52500000D01*
X114600000Y-53900000D02*
X114600000Y-53500000D01*
X115300000Y-49400000D02*
X119600000Y-45100000D01*
%TO.N,SDA*%
X119500000Y-52500000D02*
X119000000Y-52000000D01*
X119500000Y-49100000D02*
X121000000Y-47600000D01*
X119500000Y-49100000D02*
X119000000Y-48600000D01*
X119500000Y-52500000D02*
X119500000Y-49100000D01*
X121000000Y-44800000D02*
X120000000Y-43800000D01*
X119500000Y-55700000D02*
X119500000Y-52500000D01*
X121000000Y-47600000D02*
X121000000Y-44800000D01*
%TO.N,Net-(U1-EN)*%
X90810050Y-80310050D02*
X90810050Y-56689950D01*
X92200000Y-55300000D02*
X104700000Y-55300000D01*
X92100000Y-81600000D02*
X90810050Y-80310050D01*
X104700000Y-55300000D02*
X110400000Y-61000000D01*
X90810050Y-56689950D02*
X92200000Y-55300000D01*
D21*
%TO.N,+3V3*%
X93800000Y-65200000D02*
X93800000Y-77300000D01*
X94100000Y-64900000D02*
X93800000Y-65200000D01*
X94900000Y-64100000D02*
X94100000Y-64900000D01*
X117400000Y-84700000D02*
X128900000Y-84700000D01*
X99400000Y-64100000D02*
X94900000Y-64100000D01*
X93800000Y-77300000D02*
X93800000Y-77400000D01*
%TD*%
%TA.AperFunction,Conductor*%
%TO.N,Earth*%
G36*
X103406924Y-26220462D02*
G01*
X103461462Y-26275000D01*
X103481424Y-26349500D01*
X103461462Y-26424000D01*
X103424126Y-26465467D01*
X103424661Y-26466093D01*
X103420206Y-26469897D01*
X103269897Y-26620206D01*
X103269895Y-26620209D01*
X103144950Y-26792181D01*
X103144950Y-26792182D01*
X103144949Y-26792184D01*
X103048443Y-26981588D01*
X102982754Y-27183757D01*
X102949500Y-27393713D01*
X102949500Y-27606287D01*
X102982754Y-27816243D01*
X103048443Y-28018412D01*
X103144949Y-28207816D01*
X103269896Y-28379792D01*
X103420208Y-28530104D01*
X103592184Y-28655051D01*
X103781588Y-28751557D01*
X103983757Y-28817246D01*
X104193713Y-28850500D01*
X104193718Y-28850500D01*
X104406282Y-28850500D01*
X104406287Y-28850500D01*
X104616243Y-28817246D01*
X104818412Y-28751557D01*
X105007816Y-28655051D01*
X105179792Y-28530104D01*
X105330104Y-28379792D01*
X105455051Y-28207816D01*
X105551557Y-28018412D01*
X105617246Y-27816243D01*
X105650500Y-27606287D01*
X105650500Y-27393713D01*
X105617246Y-27183757D01*
X105551557Y-26981588D01*
X105455051Y-26792184D01*
X105330104Y-26620208D01*
X105179792Y-26469896D01*
X105179790Y-26469895D01*
X105175339Y-26466093D01*
X105176086Y-26465217D01*
X105131455Y-26410098D01*
X105119393Y-26333919D01*
X105147036Y-26261915D01*
X105206978Y-26213379D01*
X105267576Y-26200500D01*
X106432424Y-26200500D01*
X106506924Y-26220462D01*
X106561462Y-26275000D01*
X106581424Y-26349500D01*
X106561462Y-26424000D01*
X106524126Y-26465467D01*
X106524661Y-26466093D01*
X106520206Y-26469897D01*
X106369897Y-26620206D01*
X106369895Y-26620209D01*
X106244950Y-26792181D01*
X106244950Y-26792182D01*
X106244949Y-26792184D01*
X106148443Y-26981588D01*
X106082754Y-27183757D01*
X106049500Y-27393713D01*
X106049500Y-27606287D01*
X106082754Y-27816243D01*
X106148443Y-28018412D01*
X106148446Y-28018417D01*
X106244950Y-28207817D01*
X106244950Y-28207818D01*
X106369895Y-28379790D01*
X106369897Y-28379793D01*
X106520206Y-28530102D01*
X106520214Y-28530109D01*
X106576852Y-28571258D01*
X106638080Y-28615742D01*
X106686618Y-28675680D01*
X106699500Y-28736285D01*
X106699500Y-47063713D01*
X106679538Y-47138213D01*
X106638080Y-47184256D01*
X106520217Y-47269888D01*
X106520206Y-47269897D01*
X106369897Y-47420206D01*
X106369895Y-47420209D01*
X106244950Y-47592181D01*
X106244950Y-47592182D01*
X106244949Y-47592184D01*
X106148443Y-47781588D01*
X106082754Y-47983757D01*
X106049500Y-48193713D01*
X106049500Y-48406287D01*
X106082754Y-48616243D01*
X106148443Y-48818412D01*
X106241222Y-49000502D01*
X106244950Y-49007817D01*
X106244950Y-49007818D01*
X106287143Y-49065891D01*
X106369896Y-49179792D01*
X106520208Y-49330104D01*
X106692184Y-49455051D01*
X106881588Y-49551557D01*
X107083757Y-49617246D01*
X107293713Y-49650500D01*
X107293718Y-49650500D01*
X107506282Y-49650500D01*
X107506287Y-49650500D01*
X107716243Y-49617246D01*
X107918412Y-49551557D01*
X108107816Y-49455051D01*
X108279792Y-49330104D01*
X108430104Y-49179792D01*
X108555051Y-49007816D01*
X108651557Y-48818412D01*
X108717246Y-48616243D01*
X108750500Y-48406287D01*
X108750500Y-48193713D01*
X108717246Y-47983757D01*
X108651557Y-47781588D01*
X108555051Y-47592184D01*
X108430104Y-47420208D01*
X108279792Y-47269896D01*
X108279790Y-47269894D01*
X108279782Y-47269888D01*
X108161920Y-47184256D01*
X108113382Y-47124317D01*
X108100500Y-47063713D01*
X108100500Y-28736285D01*
X108120462Y-28661785D01*
X108161919Y-28615743D01*
X108279792Y-28530104D01*
X108430104Y-28379792D01*
X108555051Y-28207816D01*
X108651557Y-28018412D01*
X108717246Y-27816243D01*
X108750500Y-27606287D01*
X108750500Y-27393713D01*
X108717246Y-27183757D01*
X108651557Y-26981588D01*
X108555051Y-26792184D01*
X108430104Y-26620208D01*
X108279792Y-26469896D01*
X108279790Y-26469895D01*
X108275339Y-26466093D01*
X108276086Y-26465217D01*
X108231455Y-26410098D01*
X108219393Y-26333919D01*
X108247036Y-26261915D01*
X108306978Y-26213379D01*
X108367576Y-26200500D01*
X132050500Y-26200500D01*
X132125000Y-26220462D01*
X132179538Y-26275000D01*
X132199500Y-26349500D01*
X132199500Y-52501000D01*
X132179538Y-52575500D01*
X132125000Y-52630038D01*
X132050500Y-52650000D01*
X121950000Y-52650000D01*
X121950000Y-80650000D01*
X132050500Y-80650000D01*
X132125000Y-80669962D01*
X132179538Y-80724500D01*
X132199500Y-80799000D01*
X132199500Y-97150500D01*
X132179538Y-97225000D01*
X132125000Y-97279538D01*
X132050500Y-97299500D01*
X88849500Y-97299500D01*
X88775000Y-97279538D01*
X88720462Y-97225000D01*
X88700500Y-97150500D01*
X88700500Y-90955519D01*
X90649500Y-90955519D01*
X90649500Y-91144481D01*
X90679060Y-91331118D01*
X90737453Y-91510832D01*
X90823240Y-91679199D01*
X90934310Y-91832073D01*
X91067927Y-91965690D01*
X91220801Y-92076760D01*
X91389168Y-92162547D01*
X91568882Y-92220940D01*
X91755519Y-92250500D01*
X91755524Y-92250500D01*
X91944476Y-92250500D01*
X91944481Y-92250500D01*
X92131118Y-92220940D01*
X92310832Y-92162547D01*
X92479199Y-92076760D01*
X92632073Y-91965690D01*
X92765690Y-91832073D01*
X92876760Y-91679199D01*
X92962547Y-91510832D01*
X93020940Y-91331118D01*
X93050500Y-91144481D01*
X93050500Y-90955519D01*
X97149500Y-90955519D01*
X97149500Y-91144481D01*
X97179060Y-91331118D01*
X97237453Y-91510832D01*
X97323240Y-91679199D01*
X97434310Y-91832073D01*
X97567927Y-91965690D01*
X97720801Y-92076760D01*
X97889168Y-92162547D01*
X98068882Y-92220940D01*
X98255519Y-92250500D01*
X98255524Y-92250500D01*
X98444476Y-92250500D01*
X98444481Y-92250500D01*
X98631118Y-92220940D01*
X98810832Y-92162547D01*
X98979199Y-92076760D01*
X99132073Y-91965690D01*
X99265690Y-91832073D01*
X99376760Y-91679199D01*
X99462547Y-91510832D01*
X99520940Y-91331118D01*
X99550500Y-91144481D01*
X99550500Y-90955519D01*
X99520940Y-90768882D01*
X99462547Y-90589168D01*
X99376760Y-90420801D01*
X99265690Y-90267927D01*
X99132073Y-90134310D01*
X98979199Y-90023240D01*
X98810832Y-89937453D01*
X98631118Y-89879060D01*
X98444481Y-89849500D01*
X98255519Y-89849500D01*
X98068882Y-89879060D01*
X97889168Y-89937453D01*
X97889163Y-89937455D01*
X97889157Y-89937458D01*
X97720804Y-90023238D01*
X97720799Y-90023241D01*
X97567936Y-90134303D01*
X97567925Y-90134312D01*
X97434312Y-90267925D01*
X97434303Y-90267936D01*
X97323241Y-90420799D01*
X97323238Y-90420804D01*
X97237458Y-90589157D01*
X97237455Y-90589163D01*
X97237453Y-90589168D01*
X97179060Y-90768882D01*
X97149500Y-90955519D01*
X93050500Y-90955519D01*
X93020940Y-90768882D01*
X92962547Y-90589168D01*
X92876760Y-90420801D01*
X92765690Y-90267927D01*
X92632073Y-90134310D01*
X92479199Y-90023240D01*
X92310832Y-89937453D01*
X92131118Y-89879060D01*
X91944481Y-89849500D01*
X91755519Y-89849500D01*
X91568882Y-89879060D01*
X91389168Y-89937453D01*
X91389163Y-89937455D01*
X91389157Y-89937458D01*
X91220804Y-90023238D01*
X91220799Y-90023241D01*
X91067936Y-90134303D01*
X91067925Y-90134312D01*
X90934312Y-90267925D01*
X90934303Y-90267936D01*
X90823241Y-90420799D01*
X90823238Y-90420804D01*
X90737458Y-90589157D01*
X90737455Y-90589163D01*
X90737453Y-90589168D01*
X90679060Y-90768882D01*
X90649500Y-90955519D01*
X88700500Y-90955519D01*
X88700500Y-84634106D01*
X116899500Y-84634106D01*
X116899500Y-84634108D01*
X116899500Y-84765892D01*
X116933608Y-84893186D01*
X116933609Y-84893187D01*
X116999497Y-85007310D01*
X116999498Y-85007311D01*
X116999500Y-85007314D01*
X117092686Y-85100500D01*
X117206814Y-85166392D01*
X117334108Y-85200500D01*
X117465892Y-85200500D01*
X117593186Y-85166392D01*
X117593189Y-85166390D01*
X117593190Y-85166390D01*
X117602211Y-85162654D01*
X117603516Y-85165806D01*
X117660629Y-85150500D01*
X128639364Y-85150500D01*
X128696483Y-85165805D01*
X128697789Y-85162654D01*
X128706809Y-85166390D01*
X128706811Y-85166390D01*
X128706814Y-85166392D01*
X128834108Y-85200500D01*
X128965892Y-85200500D01*
X129093186Y-85166392D01*
X129207314Y-85100500D01*
X129300500Y-85007314D01*
X129366392Y-84893186D01*
X129400500Y-84765892D01*
X129400500Y-84634108D01*
X129366392Y-84506814D01*
X129300500Y-84392686D01*
X129207314Y-84299500D01*
X129207311Y-84299498D01*
X129207310Y-84299497D01*
X129136514Y-84258623D01*
X129093186Y-84233608D01*
X128965892Y-84199500D01*
X128834108Y-84199500D01*
X128706809Y-84233609D01*
X128697789Y-84237346D01*
X128696483Y-84234193D01*
X128639371Y-84249500D01*
X117660636Y-84249500D01*
X117603516Y-84234194D01*
X117602211Y-84237346D01*
X117593190Y-84233609D01*
X117465892Y-84199500D01*
X117334108Y-84199500D01*
X117206814Y-84233608D01*
X117206812Y-84233608D01*
X117206812Y-84233609D01*
X117092689Y-84299497D01*
X116999497Y-84392689D01*
X116933609Y-84506812D01*
X116899500Y-84634106D01*
X88700500Y-84634106D01*
X88700500Y-56650388D01*
X90509550Y-56650388D01*
X90509550Y-80349612D01*
X90530029Y-80426039D01*
X90565486Y-80487453D01*
X90565487Y-80487454D01*
X90565486Y-80487454D01*
X90569590Y-80494561D01*
X90987440Y-80912411D01*
X91026004Y-80979206D01*
X91026004Y-81056334D01*
X91014842Y-81085413D01*
X90987456Y-81139161D01*
X90987454Y-81139165D01*
X90987453Y-81139168D01*
X90929060Y-81318882D01*
X90899500Y-81505519D01*
X90899500Y-81694481D01*
X90929060Y-81881118D01*
X90987453Y-82060832D01*
X91073240Y-82229199D01*
X91184310Y-82382073D01*
X91317927Y-82515690D01*
X91470801Y-82626760D01*
X91639168Y-82712547D01*
X91818882Y-82770940D01*
X92005519Y-82800500D01*
X92005524Y-82800500D01*
X92194476Y-82800500D01*
X92194481Y-82800500D01*
X92381118Y-82770940D01*
X92560832Y-82712547D01*
X92729199Y-82626760D01*
X92882073Y-82515690D01*
X93015690Y-82382073D01*
X93126760Y-82229199D01*
X93212547Y-82060832D01*
X93270940Y-81881118D01*
X93300500Y-81694481D01*
X93300500Y-81505519D01*
X97399500Y-81505519D01*
X97399500Y-81694481D01*
X97429060Y-81881118D01*
X97487453Y-82060832D01*
X97573240Y-82229199D01*
X97684310Y-82382073D01*
X97817927Y-82515690D01*
X97970801Y-82626760D01*
X98139168Y-82712547D01*
X98318882Y-82770940D01*
X98505519Y-82800500D01*
X98505524Y-82800500D01*
X98694476Y-82800500D01*
X98694481Y-82800500D01*
X98881118Y-82770940D01*
X99060832Y-82712547D01*
X99229199Y-82626760D01*
X99382073Y-82515690D01*
X99515690Y-82382073D01*
X99626760Y-82229199D01*
X99712547Y-82060832D01*
X99770940Y-81881118D01*
X99800500Y-81694481D01*
X99800500Y-81505519D01*
X99770940Y-81318882D01*
X99712547Y-81139168D01*
X99680307Y-81075893D01*
X99642658Y-81002002D01*
X99642650Y-81001987D01*
X99636012Y-80988959D01*
X99626760Y-80970801D01*
X99607365Y-80944106D01*
X110494500Y-80944106D01*
X110494500Y-80944107D01*
X110494500Y-80944108D01*
X110494500Y-81075892D01*
X110528608Y-81203186D01*
X110553623Y-81246514D01*
X110594497Y-81317310D01*
X110594498Y-81317311D01*
X110594500Y-81317314D01*
X110687686Y-81410500D01*
X110801814Y-81476392D01*
X110929108Y-81510500D01*
X111060892Y-81510500D01*
X111188186Y-81476392D01*
X111302314Y-81410500D01*
X111395500Y-81317314D01*
X111415962Y-81281873D01*
X111470500Y-81227335D01*
X111545000Y-81207373D01*
X111619500Y-81227335D01*
X111674038Y-81281873D01*
X111694497Y-81317310D01*
X111694498Y-81317311D01*
X111694500Y-81317314D01*
X111787686Y-81410500D01*
X111901814Y-81476392D01*
X112029108Y-81510500D01*
X112160892Y-81510500D01*
X112288186Y-81476392D01*
X112402314Y-81410500D01*
X112495500Y-81317314D01*
X112561392Y-81203186D01*
X112595500Y-81075892D01*
X112595500Y-80996188D01*
X112600577Y-80977240D01*
X112600577Y-80957623D01*
X112610385Y-80940634D01*
X112615462Y-80921688D01*
X112639141Y-80890829D01*
X112712035Y-80817936D01*
X112785830Y-80744141D01*
X112852625Y-80705577D01*
X112891189Y-80700500D01*
X113665594Y-80700500D01*
X113740094Y-80720462D01*
X113794632Y-80775000D01*
X113814594Y-80849500D01*
X113809517Y-80888065D01*
X113794501Y-80944106D01*
X113794500Y-80944108D01*
X113794500Y-81075892D01*
X113828608Y-81203186D01*
X113853623Y-81246514D01*
X113894497Y-81317310D01*
X113894498Y-81317311D01*
X113894500Y-81317314D01*
X113987686Y-81410500D01*
X114101814Y-81476392D01*
X114229108Y-81510500D01*
X114360892Y-81510500D01*
X114488186Y-81476392D01*
X114602314Y-81410500D01*
X114658674Y-81354140D01*
X114725469Y-81315577D01*
X114764032Y-81310500D01*
X115529557Y-81310500D01*
X115529562Y-81310500D01*
X115605989Y-81290021D01*
X115674511Y-81250460D01*
X115730460Y-81194511D01*
X118540460Y-78384511D01*
X118580021Y-78315989D01*
X118600500Y-78239562D01*
X118600500Y-62760438D01*
X118580021Y-62684011D01*
X118540460Y-62615489D01*
X118484511Y-62559540D01*
X115444141Y-59519170D01*
X115405577Y-59452375D01*
X115400500Y-59413811D01*
X115400500Y-59334108D01*
X115400499Y-59334106D01*
X115366392Y-59206814D01*
X115300500Y-59092686D01*
X115207314Y-58999500D01*
X115207311Y-58999498D01*
X115207310Y-58999497D01*
X115136514Y-58958623D01*
X115093186Y-58933608D01*
X114965892Y-58899500D01*
X114834108Y-58899500D01*
X114706814Y-58933608D01*
X114706812Y-58933608D01*
X114706812Y-58933609D01*
X114592689Y-58999497D01*
X114499497Y-59092689D01*
X114433609Y-59206812D01*
X114399500Y-59334106D01*
X114399500Y-59465893D01*
X114433609Y-59593188D01*
X114435245Y-59596022D01*
X114436091Y-59599182D01*
X114437346Y-59602211D01*
X114436947Y-59602376D01*
X114455202Y-59670524D01*
X114435235Y-59745022D01*
X114380694Y-59799557D01*
X114306192Y-59819514D01*
X114231694Y-59799547D01*
X114200847Y-59775876D01*
X113944141Y-59519170D01*
X113905577Y-59452375D01*
X113900500Y-59413811D01*
X113900500Y-59334108D01*
X113900499Y-59334106D01*
X113866392Y-59206814D01*
X113800500Y-59092686D01*
X113707314Y-58999500D01*
X113707311Y-58999498D01*
X113707310Y-58999497D01*
X113636514Y-58958623D01*
X113593186Y-58933608D01*
X113465892Y-58899500D01*
X113334108Y-58899500D01*
X113206814Y-58933608D01*
X113206812Y-58933608D01*
X113206812Y-58933609D01*
X113092689Y-58999497D01*
X112999497Y-59092689D01*
X112933609Y-59206812D01*
X112899500Y-59334106D01*
X112899500Y-59334108D01*
X112899500Y-59465892D01*
X112933608Y-59593186D01*
X112937070Y-59599182D01*
X112999497Y-59707310D01*
X112999498Y-59707311D01*
X112999500Y-59707314D01*
X113092686Y-59800500D01*
X113206814Y-59866392D01*
X113334108Y-59900500D01*
X113413811Y-59900500D01*
X113488311Y-59920462D01*
X113519170Y-59944141D01*
X117155859Y-63580830D01*
X117194423Y-63647625D01*
X117199500Y-63686189D01*
X117199500Y-77813811D01*
X117179538Y-77888311D01*
X117155859Y-77919170D01*
X116834495Y-78240533D01*
X116767700Y-78279097D01*
X116690572Y-78279097D01*
X116623777Y-78240533D01*
X116585213Y-78173738D01*
X116585213Y-78096614D01*
X116600500Y-78039562D01*
X116600500Y-77960438D01*
X116600500Y-77469031D01*
X116620462Y-77394531D01*
X116644137Y-77363676D01*
X116700500Y-77307314D01*
X116766392Y-77193186D01*
X116800500Y-77065892D01*
X116800500Y-76934108D01*
X116766392Y-76806814D01*
X116700500Y-76692686D01*
X116607314Y-76599500D01*
X116607311Y-76599498D01*
X116607310Y-76599497D01*
X116536514Y-76558623D01*
X116493186Y-76533608D01*
X116365892Y-76499500D01*
X116234108Y-76499500D01*
X116106814Y-76533608D01*
X116106812Y-76533608D01*
X116106812Y-76533609D01*
X115992689Y-76599497D01*
X115899497Y-76692689D01*
X115833609Y-76806812D01*
X115799500Y-76934106D01*
X115799500Y-76934108D01*
X115799500Y-77065892D01*
X115833608Y-77193186D01*
X115833609Y-77193187D01*
X115899497Y-77307310D01*
X115899498Y-77307311D01*
X115899500Y-77307314D01*
X115955860Y-77363674D01*
X115994423Y-77430467D01*
X115999500Y-77469031D01*
X115999500Y-77813811D01*
X115979538Y-77888311D01*
X115955859Y-77919170D01*
X114619170Y-79255859D01*
X114552375Y-79294423D01*
X114513811Y-79299500D01*
X112365437Y-79299500D01*
X112289011Y-79319979D01*
X112220488Y-79359540D01*
X111114169Y-80465859D01*
X111047374Y-80504423D01*
X111008810Y-80509500D01*
X110929108Y-80509500D01*
X110801814Y-80543608D01*
X110801812Y-80543608D01*
X110801812Y-80543609D01*
X110687689Y-80609497D01*
X110594497Y-80702689D01*
X110538893Y-80799000D01*
X110528608Y-80816814D01*
X110519850Y-80849500D01*
X110494500Y-80944106D01*
X99607365Y-80944106D01*
X99515690Y-80817927D01*
X99382073Y-80684310D01*
X99229199Y-80573240D01*
X99060832Y-80487453D01*
X98881118Y-80429060D01*
X98694481Y-80399500D01*
X98505519Y-80399500D01*
X98318882Y-80429060D01*
X98139168Y-80487453D01*
X98139163Y-80487455D01*
X98139157Y-80487458D01*
X97970804Y-80573238D01*
X97970799Y-80573241D01*
X97817936Y-80684303D01*
X97817925Y-80684312D01*
X97684312Y-80817925D01*
X97684303Y-80817936D01*
X97573241Y-80970799D01*
X97573238Y-80970804D01*
X97487458Y-81139157D01*
X97487455Y-81139163D01*
X97487453Y-81139168D01*
X97429060Y-81318882D01*
X97399500Y-81505519D01*
X93300500Y-81505519D01*
X93270940Y-81318882D01*
X93212547Y-81139168D01*
X93126760Y-80970801D01*
X93015690Y-80817927D01*
X92882073Y-80684310D01*
X92729199Y-80573240D01*
X92560832Y-80487453D01*
X92381118Y-80429060D01*
X92194481Y-80399500D01*
X92005519Y-80399500D01*
X91818882Y-80429060D01*
X91639168Y-80487453D01*
X91639165Y-80487454D01*
X91639161Y-80487456D01*
X91585413Y-80514842D01*
X91509971Y-80530877D01*
X91436618Y-80507042D01*
X91412411Y-80487440D01*
X91154191Y-80229220D01*
X91115627Y-80162425D01*
X91110550Y-80123861D01*
X91110550Y-77234108D01*
X93299500Y-77234108D01*
X93299500Y-77365892D01*
X93333608Y-77493186D01*
X93333609Y-77493187D01*
X93404383Y-77615772D01*
X93404385Y-77615776D01*
X93439510Y-77676613D01*
X93439512Y-77676615D01*
X93523384Y-77760486D01*
X93523387Y-77760489D01*
X93523390Y-77760490D01*
X93523393Y-77760493D01*
X93626110Y-77819797D01*
X93626111Y-77819797D01*
X93626114Y-77819799D01*
X93740691Y-77850500D01*
X93859309Y-77850500D01*
X93973886Y-77819799D01*
X94076613Y-77760489D01*
X94160489Y-77676613D01*
X94195613Y-77615776D01*
X94200498Y-77607314D01*
X94200500Y-77607314D01*
X94266392Y-77493186D01*
X94300500Y-77365892D01*
X94300500Y-77234108D01*
X94266392Y-77106814D01*
X94266390Y-77106811D01*
X94266390Y-77106809D01*
X94262654Y-77097789D01*
X94265798Y-77096486D01*
X94250500Y-77039363D01*
X94250500Y-73923546D01*
X95132850Y-73923546D01*
X95132850Y-73923548D01*
X95132850Y-74076450D01*
X95172424Y-74224141D01*
X95248874Y-74356557D01*
X95356992Y-74464675D01*
X95489408Y-74541125D01*
X95637099Y-74580699D01*
X95790001Y-74580699D01*
X95937692Y-74541125D01*
X96070108Y-74464675D01*
X96178226Y-74356557D01*
X96254676Y-74224141D01*
X96294250Y-74076450D01*
X96294250Y-73923548D01*
X96254676Y-73775857D01*
X96178226Y-73643441D01*
X96070108Y-73535323D01*
X95937692Y-73458873D01*
X95790001Y-73419299D01*
X95637099Y-73419299D01*
X95489408Y-73458873D01*
X95489406Y-73458873D01*
X95489406Y-73458874D01*
X95356991Y-73535323D01*
X95248874Y-73643440D01*
X95172425Y-73775855D01*
X95132850Y-73923546D01*
X94250500Y-73923546D01*
X94250500Y-68143548D01*
X95132850Y-68143548D01*
X95132850Y-68143550D01*
X95132850Y-68296452D01*
X95172424Y-68444143D01*
X95248874Y-68576559D01*
X95356992Y-68684677D01*
X95489408Y-68761127D01*
X95637099Y-68800701D01*
X95790001Y-68800701D01*
X95937692Y-68761127D01*
X96070108Y-68684677D01*
X96178226Y-68576559D01*
X96254676Y-68444143D01*
X96294250Y-68296452D01*
X96294250Y-68143550D01*
X96254676Y-67995859D01*
X96178226Y-67863443D01*
X96070108Y-67755325D01*
X95937692Y-67678875D01*
X95790001Y-67639301D01*
X95637099Y-67639301D01*
X95489408Y-67678875D01*
X95489406Y-67678875D01*
X95489406Y-67678876D01*
X95356991Y-67755325D01*
X95248874Y-67863442D01*
X95172425Y-67995857D01*
X95132850Y-68143548D01*
X94250500Y-68143548D01*
X94250500Y-65448320D01*
X94255577Y-65429372D01*
X94255577Y-65409756D01*
X94265384Y-65392768D01*
X94270462Y-65373820D01*
X94294137Y-65342965D01*
X94460489Y-65176614D01*
X94460488Y-65176614D01*
X94496413Y-65140689D01*
X95042963Y-64594141D01*
X95109758Y-64555577D01*
X95148322Y-64550500D01*
X99139364Y-64550500D01*
X99196483Y-64565805D01*
X99197789Y-64562654D01*
X99206809Y-64566390D01*
X99206811Y-64566390D01*
X99206814Y-64566392D01*
X99334108Y-64600500D01*
X99465892Y-64600500D01*
X99593186Y-64566392D01*
X99707314Y-64500500D01*
X99800500Y-64407314D01*
X99866392Y-64293186D01*
X99900500Y-64165892D01*
X99900500Y-64034108D01*
X99866392Y-63906814D01*
X99800500Y-63792686D01*
X99707314Y-63699500D01*
X99707311Y-63699498D01*
X99707310Y-63699497D01*
X99636514Y-63658623D01*
X99593186Y-63633608D01*
X99465892Y-63599500D01*
X99334108Y-63599500D01*
X99206809Y-63633609D01*
X99197789Y-63637346D01*
X99196483Y-63634193D01*
X99139371Y-63649500D01*
X94840691Y-63649500D01*
X94758945Y-63671404D01*
X94758943Y-63671404D01*
X94726117Y-63680199D01*
X94726114Y-63680200D01*
X94623385Y-63739510D01*
X93823386Y-64539511D01*
X93439508Y-64923389D01*
X93380201Y-65026111D01*
X93380202Y-65026111D01*
X93380201Y-65026115D01*
X93349500Y-65140689D01*
X93349500Y-77039363D01*
X93344381Y-77058476D01*
X93344338Y-77078243D01*
X93339262Y-77097019D01*
X93333608Y-77106814D01*
X93299500Y-77234108D01*
X91110550Y-77234108D01*
X91110550Y-61888537D01*
X91499500Y-61888537D01*
X91499500Y-62111462D01*
X91528593Y-62332447D01*
X91528596Y-62332464D01*
X91586288Y-62547777D01*
X91586288Y-62547778D01*
X91671598Y-62753733D01*
X91783049Y-62946770D01*
X91783051Y-62946773D01*
X91783052Y-62946774D01*
X91918753Y-63123624D01*
X92076376Y-63281247D01*
X92210303Y-63384012D01*
X92253229Y-63416950D01*
X92446266Y-63528401D01*
X92446269Y-63528402D01*
X92446274Y-63528405D01*
X92611030Y-63596649D01*
X92652221Y-63613711D01*
X92740430Y-63637346D01*
X92867537Y-63671404D01*
X93088543Y-63700500D01*
X93311457Y-63700500D01*
X93532463Y-63671404D01*
X93747777Y-63613711D01*
X93747778Y-63613711D01*
X93747779Y-63613710D01*
X93747781Y-63613710D01*
X93953726Y-63528405D01*
X94146774Y-63416948D01*
X94323624Y-63281247D01*
X94481247Y-63123624D01*
X94616948Y-62946774D01*
X94715227Y-62776550D01*
X94728401Y-62753733D01*
X94728401Y-62753732D01*
X94728405Y-62753726D01*
X94813710Y-62547781D01*
X94871404Y-62332463D01*
X94900500Y-62111457D01*
X94900500Y-61888543D01*
X94871404Y-61667537D01*
X94813710Y-61452219D01*
X94728405Y-61246274D01*
X94728402Y-61246269D01*
X94728401Y-61246266D01*
X94616950Y-61053229D01*
X94525546Y-60934108D01*
X94481247Y-60876376D01*
X94323624Y-60718753D01*
X94146774Y-60583052D01*
X94146773Y-60583051D01*
X94146770Y-60583049D01*
X93953733Y-60471598D01*
X93747778Y-60386288D01*
X93532464Y-60328596D01*
X93532447Y-60328593D01*
X93311462Y-60299500D01*
X93311457Y-60299500D01*
X93088543Y-60299500D01*
X93088537Y-60299500D01*
X92867552Y-60328593D01*
X92867535Y-60328596D01*
X92652222Y-60386288D01*
X92652221Y-60386288D01*
X92446266Y-60471598D01*
X92253229Y-60583049D01*
X92076374Y-60718754D01*
X91918754Y-60876374D01*
X91783049Y-61053229D01*
X91671598Y-61246266D01*
X91586288Y-61452221D01*
X91586288Y-61452222D01*
X91528596Y-61667535D01*
X91528593Y-61667552D01*
X91499500Y-61888537D01*
X91110550Y-61888537D01*
X91110550Y-56876139D01*
X91130512Y-56801639D01*
X91154191Y-56770780D01*
X91205108Y-56719863D01*
X91349032Y-56575938D01*
X91415825Y-56537376D01*
X91492953Y-56537376D01*
X91559748Y-56575940D01*
X91598312Y-56642735D01*
X91598312Y-56719863D01*
X91592048Y-56738316D01*
X91586290Y-56752216D01*
X91586288Y-56752222D01*
X91528596Y-56967535D01*
X91528593Y-56967552D01*
X91499500Y-57188537D01*
X91499500Y-57411462D01*
X91528593Y-57632447D01*
X91528596Y-57632464D01*
X91586288Y-57847777D01*
X91586288Y-57847778D01*
X91671598Y-58053733D01*
X91783049Y-58246770D01*
X91783051Y-58246773D01*
X91783052Y-58246774D01*
X91918753Y-58423624D01*
X92076376Y-58581247D01*
X92253226Y-58716948D01*
X92253229Y-58716950D01*
X92446266Y-58828401D01*
X92446269Y-58828402D01*
X92446274Y-58828405D01*
X92611030Y-58896649D01*
X92652221Y-58913711D01*
X92726483Y-58933609D01*
X92867537Y-58971404D01*
X93088543Y-59000500D01*
X93311457Y-59000500D01*
X93532463Y-58971404D01*
X93747777Y-58913711D01*
X93747778Y-58913711D01*
X93747779Y-58913710D01*
X93747781Y-58913710D01*
X93953726Y-58828405D01*
X94146774Y-58716948D01*
X94323624Y-58581247D01*
X94481247Y-58423624D01*
X94616948Y-58246774D01*
X94728405Y-58053726D01*
X94813710Y-57847781D01*
X94871404Y-57632463D01*
X94900500Y-57411457D01*
X94900500Y-57188543D01*
X94871404Y-56967537D01*
X94826952Y-56801639D01*
X94813711Y-56752222D01*
X94813711Y-56752221D01*
X94768360Y-56642735D01*
X94728405Y-56546274D01*
X94728402Y-56546269D01*
X94728401Y-56546266D01*
X94616950Y-56353229D01*
X94616948Y-56353226D01*
X94481247Y-56176376D01*
X94323624Y-56018753D01*
X94146774Y-55883052D01*
X94138954Y-55878537D01*
X94084417Y-55824000D01*
X94064455Y-55749500D01*
X94084417Y-55675000D01*
X94138955Y-55620462D01*
X94213455Y-55600500D01*
X104513811Y-55600500D01*
X104588311Y-55620462D01*
X104619170Y-55644141D01*
X109855859Y-60880830D01*
X109894423Y-60947625D01*
X109899500Y-60986189D01*
X109899500Y-61065892D01*
X109933608Y-61193186D01*
X109933609Y-61193187D01*
X109999497Y-61307310D01*
X109999498Y-61307311D01*
X109999500Y-61307314D01*
X110092686Y-61400500D01*
X110206814Y-61466392D01*
X110334108Y-61500500D01*
X110465892Y-61500500D01*
X110593186Y-61466392D01*
X110707314Y-61400500D01*
X110800500Y-61307314D01*
X110866392Y-61193186D01*
X110900500Y-61065892D01*
X110900500Y-60934108D01*
X110866392Y-60806814D01*
X110800500Y-60692686D01*
X110707314Y-60599500D01*
X110707311Y-60599498D01*
X110707310Y-60599497D01*
X110636514Y-60558623D01*
X110593186Y-60533608D01*
X110465892Y-60499500D01*
X110386189Y-60499500D01*
X110311689Y-60479538D01*
X110280830Y-60455859D01*
X105459077Y-55634106D01*
X114099500Y-55634106D01*
X114099500Y-55634108D01*
X114099500Y-55765892D01*
X114133608Y-55893186D01*
X114133609Y-55893187D01*
X114199497Y-56007310D01*
X114199498Y-56007311D01*
X114199500Y-56007314D01*
X114292686Y-56100500D01*
X114406814Y-56166392D01*
X114534108Y-56200500D01*
X114665892Y-56200500D01*
X114793186Y-56166392D01*
X114907314Y-56100500D01*
X115000500Y-56007314D01*
X115066392Y-55893186D01*
X115100500Y-55765892D01*
X115100500Y-55634108D01*
X115066392Y-55506814D01*
X115000500Y-55392686D01*
X114944140Y-55336326D01*
X114905577Y-55269531D01*
X114900500Y-55230968D01*
X114900500Y-52686187D01*
X114905577Y-52667239D01*
X114905577Y-52647623D01*
X114915384Y-52630635D01*
X114920462Y-52611687D01*
X114944135Y-52580835D01*
X114980831Y-52544139D01*
X115047623Y-52505577D01*
X115086187Y-52500500D01*
X115165892Y-52500500D01*
X115293186Y-52466392D01*
X115407314Y-52400500D01*
X115500500Y-52307314D01*
X115566392Y-52193186D01*
X115600500Y-52065892D01*
X115600500Y-51934108D01*
X115566392Y-51806814D01*
X115500500Y-51692686D01*
X115407314Y-51599500D01*
X115407311Y-51599498D01*
X115407310Y-51599497D01*
X115299499Y-51537253D01*
X115293186Y-51533608D01*
X115165892Y-51499500D01*
X115049500Y-51499500D01*
X114975000Y-51479538D01*
X114920462Y-51425000D01*
X114900500Y-51350500D01*
X114900500Y-50286189D01*
X114920462Y-50211689D01*
X114944141Y-50180830D01*
X115580830Y-49544141D01*
X115647625Y-49505577D01*
X115686189Y-49500500D01*
X115765892Y-49500500D01*
X115893186Y-49466392D01*
X116007314Y-49400500D01*
X116100500Y-49307314D01*
X116166392Y-49193186D01*
X116200500Y-49065892D01*
X116200500Y-48986188D01*
X116220462Y-48911688D01*
X116244141Y-48880829D01*
X117855082Y-47269888D01*
X119568595Y-45556374D01*
X119635388Y-45517812D01*
X119712516Y-45517812D01*
X119748451Y-45532697D01*
X119806810Y-45566390D01*
X119806811Y-45566390D01*
X119806814Y-45566392D01*
X119934108Y-45600500D01*
X120065892Y-45600500D01*
X120193186Y-45566392D01*
X120307314Y-45500500D01*
X120400500Y-45407314D01*
X120421463Y-45371004D01*
X120475999Y-45316469D01*
X120550498Y-45296506D01*
X120624999Y-45316467D01*
X120679537Y-45371005D01*
X120699500Y-45445504D01*
X120699500Y-47413811D01*
X120679538Y-47488311D01*
X120655859Y-47519170D01*
X119712474Y-48462554D01*
X119645679Y-48501118D01*
X119568551Y-48501118D01*
X119501756Y-48462554D01*
X119469455Y-48414210D01*
X119466393Y-48406818D01*
X119466392Y-48406814D01*
X119400500Y-48292686D01*
X119307314Y-48199500D01*
X119307311Y-48199498D01*
X119307310Y-48199497D01*
X119236514Y-48158623D01*
X119193186Y-48133608D01*
X119065892Y-48099500D01*
X118934108Y-48099500D01*
X118806814Y-48133608D01*
X118806812Y-48133608D01*
X118806812Y-48133609D01*
X118692689Y-48199497D01*
X118599497Y-48292689D01*
X118533915Y-48406282D01*
X118533608Y-48406814D01*
X118520467Y-48455859D01*
X118499500Y-48534106D01*
X118499500Y-48534108D01*
X118499500Y-48665892D01*
X118533608Y-48793186D01*
X118533609Y-48793187D01*
X118599497Y-48907310D01*
X118599498Y-48907311D01*
X118599500Y-48907314D01*
X118692686Y-49000500D01*
X118692688Y-49000501D01*
X118692689Y-49000502D01*
X118720157Y-49016360D01*
X118806814Y-49066392D01*
X118934108Y-49100500D01*
X119013811Y-49100500D01*
X119032759Y-49105577D01*
X119052375Y-49105577D01*
X119069362Y-49115384D01*
X119088311Y-49120462D01*
X119119170Y-49144141D01*
X119155859Y-49180830D01*
X119194423Y-49247625D01*
X119199500Y-49286189D01*
X119199500Y-51350500D01*
X119179538Y-51425000D01*
X119125000Y-51479538D01*
X119050500Y-51499500D01*
X118934108Y-51499500D01*
X118806814Y-51533608D01*
X118806812Y-51533608D01*
X118806812Y-51533609D01*
X118692689Y-51599497D01*
X118599497Y-51692689D01*
X118533609Y-51806812D01*
X118499500Y-51934106D01*
X118499500Y-51934108D01*
X118499500Y-52065892D01*
X118533608Y-52193186D01*
X118533609Y-52193187D01*
X118599497Y-52307310D01*
X118599498Y-52307311D01*
X118599500Y-52307314D01*
X118692686Y-52400500D01*
X118806814Y-52466392D01*
X118934108Y-52500500D01*
X119013811Y-52500500D01*
X119032759Y-52505577D01*
X119052375Y-52505577D01*
X119069362Y-52515384D01*
X119088311Y-52520462D01*
X119119170Y-52544141D01*
X119155859Y-52580830D01*
X119194423Y-52647625D01*
X119199500Y-52686189D01*
X119199500Y-55230968D01*
X119179538Y-55305468D01*
X119155860Y-55336326D01*
X119099497Y-55392689D01*
X119033609Y-55506812D01*
X118999500Y-55634106D01*
X118999500Y-55634108D01*
X118999500Y-55765892D01*
X119033608Y-55893186D01*
X119033609Y-55893187D01*
X119099497Y-56007310D01*
X119099498Y-56007311D01*
X119099500Y-56007314D01*
X119192686Y-56100500D01*
X119306814Y-56166392D01*
X119434108Y-56200500D01*
X119565892Y-56200500D01*
X119693186Y-56166392D01*
X119807314Y-56100500D01*
X119900500Y-56007314D01*
X119966392Y-55893186D01*
X120000500Y-55765892D01*
X120000500Y-55634108D01*
X119966392Y-55506814D01*
X119900500Y-55392686D01*
X119844140Y-55336326D01*
X119805577Y-55269531D01*
X119800500Y-55230968D01*
X119800500Y-49286189D01*
X119820462Y-49211689D01*
X119844141Y-49180830D01*
X120530548Y-48494423D01*
X121240460Y-47784511D01*
X121242148Y-47781588D01*
X121280021Y-47715989D01*
X121300500Y-47639562D01*
X121300500Y-44760438D01*
X121291485Y-44726793D01*
X121280022Y-44684012D01*
X121251550Y-44634698D01*
X121240462Y-44615492D01*
X121240461Y-44615491D01*
X121240460Y-44615489D01*
X120544141Y-43919170D01*
X120505577Y-43852375D01*
X120500500Y-43813811D01*
X120500500Y-43734108D01*
X120500499Y-43734106D01*
X120466392Y-43606814D01*
X120400500Y-43492686D01*
X120307314Y-43399500D01*
X120307311Y-43399498D01*
X120307310Y-43399497D01*
X120236514Y-43358623D01*
X120193186Y-43333608D01*
X120065892Y-43299500D01*
X119934108Y-43299500D01*
X119806814Y-43333608D01*
X119806812Y-43333608D01*
X119806812Y-43333609D01*
X119692689Y-43399497D01*
X119599497Y-43492689D01*
X119533609Y-43606812D01*
X119499500Y-43734106D01*
X119499500Y-43734108D01*
X119499500Y-43865892D01*
X119533608Y-43993186D01*
X119533609Y-43993187D01*
X119599497Y-44107310D01*
X119599498Y-44107311D01*
X119599500Y-44107314D01*
X119692686Y-44200500D01*
X119806814Y-44266392D01*
X119934108Y-44300500D01*
X120013811Y-44300500D01*
X120032759Y-44305577D01*
X120052375Y-44305577D01*
X120069362Y-44315384D01*
X120088311Y-44320462D01*
X120119170Y-44344141D01*
X120120170Y-44345141D01*
X120158734Y-44411936D01*
X120158734Y-44489064D01*
X120120170Y-44555859D01*
X120053375Y-44594423D01*
X120014811Y-44599500D01*
X119934108Y-44599500D01*
X119806814Y-44633608D01*
X119806812Y-44633608D01*
X119806812Y-44633609D01*
X119692689Y-44699497D01*
X119632719Y-44759467D01*
X119565926Y-44798030D01*
X119560440Y-44799500D01*
X119560438Y-44799500D01*
X119484011Y-44819979D01*
X119484010Y-44819979D01*
X119484008Y-44819980D01*
X119424934Y-44854085D01*
X119424935Y-44854086D01*
X119415489Y-44859539D01*
X115819169Y-48455859D01*
X115752374Y-48494423D01*
X115713810Y-48499500D01*
X115634108Y-48499500D01*
X115506814Y-48533608D01*
X115506812Y-48533608D01*
X115506812Y-48533609D01*
X115392689Y-48599497D01*
X115299497Y-48692689D01*
X115233609Y-48806812D01*
X115233608Y-48806814D01*
X115230499Y-48818417D01*
X115199500Y-48934106D01*
X115199500Y-49013810D01*
X115194422Y-49032758D01*
X115194423Y-49052372D01*
X115184615Y-49069359D01*
X115179538Y-49088310D01*
X115155860Y-49119168D01*
X115115490Y-49159539D01*
X115115489Y-49159540D01*
X114359540Y-49915488D01*
X114319979Y-49984011D01*
X114299500Y-50060437D01*
X114299500Y-55230968D01*
X114279538Y-55305468D01*
X114255860Y-55336326D01*
X114199497Y-55392689D01*
X114133609Y-55506812D01*
X114099500Y-55634106D01*
X105459077Y-55634106D01*
X104884511Y-55059540D01*
X104815989Y-55019979D01*
X104739562Y-54999500D01*
X92160438Y-54999500D01*
X92160437Y-54999500D01*
X92084011Y-55019979D01*
X92015488Y-55059540D01*
X90569590Y-56505438D01*
X90530029Y-56573961D01*
X90511601Y-56642735D01*
X90509550Y-56650388D01*
X88700500Y-56650388D01*
X88700500Y-52488537D01*
X91499500Y-52488537D01*
X91499500Y-52711462D01*
X91528593Y-52932447D01*
X91528596Y-52932464D01*
X91586288Y-53147777D01*
X91586288Y-53147778D01*
X91671598Y-53353733D01*
X91783049Y-53546770D01*
X91783051Y-53546773D01*
X91783052Y-53546774D01*
X91918753Y-53723624D01*
X92076376Y-53881247D01*
X92253226Y-54016948D01*
X92253229Y-54016950D01*
X92446266Y-54128401D01*
X92446269Y-54128402D01*
X92446274Y-54128405D01*
X92611030Y-54196649D01*
X92652221Y-54213711D01*
X92759878Y-54242557D01*
X92867537Y-54271404D01*
X93088543Y-54300500D01*
X93311457Y-54300500D01*
X93532463Y-54271404D01*
X93747777Y-54213711D01*
X93747778Y-54213711D01*
X93747779Y-54213710D01*
X93747781Y-54213710D01*
X93953726Y-54128405D01*
X94146774Y-54016948D01*
X94323624Y-53881247D01*
X94481247Y-53723624D01*
X94616948Y-53546774D01*
X94728405Y-53353726D01*
X94813710Y-53147781D01*
X94871404Y-52932463D01*
X94900500Y-52711457D01*
X94900500Y-52488543D01*
X94871404Y-52267537D01*
X94817374Y-52065892D01*
X94813711Y-52052222D01*
X94813711Y-52052221D01*
X94764786Y-51934106D01*
X94728405Y-51846274D01*
X94728402Y-51846269D01*
X94728401Y-51846266D01*
X94616950Y-51653229D01*
X94616948Y-51653226D01*
X94481247Y-51476376D01*
X94323624Y-51318753D01*
X94146774Y-51183052D01*
X94146773Y-51183051D01*
X94146770Y-51183049D01*
X93953733Y-51071598D01*
X93747778Y-50986288D01*
X93532464Y-50928596D01*
X93532447Y-50928593D01*
X93311462Y-50899500D01*
X93311457Y-50899500D01*
X93088543Y-50899500D01*
X93088537Y-50899500D01*
X92867552Y-50928593D01*
X92867535Y-50928596D01*
X92652222Y-50986288D01*
X92652221Y-50986288D01*
X92446266Y-51071598D01*
X92253229Y-51183049D01*
X92076374Y-51318754D01*
X91918754Y-51476374D01*
X91783049Y-51653229D01*
X91671598Y-51846266D01*
X91586288Y-52052221D01*
X91586288Y-52052222D01*
X91528596Y-52267535D01*
X91528593Y-52267552D01*
X91499500Y-52488537D01*
X88700500Y-52488537D01*
X88700500Y-48193713D01*
X102949500Y-48193713D01*
X102949500Y-48406287D01*
X102982754Y-48616243D01*
X103048443Y-48818412D01*
X103141222Y-49000502D01*
X103144950Y-49007817D01*
X103144950Y-49007818D01*
X103187143Y-49065891D01*
X103269896Y-49179792D01*
X103420208Y-49330104D01*
X103592184Y-49455051D01*
X103781588Y-49551557D01*
X103983757Y-49617246D01*
X104193713Y-49650500D01*
X104193718Y-49650500D01*
X104406282Y-49650500D01*
X104406287Y-49650500D01*
X104616243Y-49617246D01*
X104818412Y-49551557D01*
X105007816Y-49455051D01*
X105179792Y-49330104D01*
X105330104Y-49179792D01*
X105455051Y-49007816D01*
X105551557Y-48818412D01*
X105617246Y-48616243D01*
X105650500Y-48406287D01*
X105650500Y-48193713D01*
X105617246Y-47983757D01*
X105551557Y-47781588D01*
X105455051Y-47592184D01*
X105330104Y-47420208D01*
X105179792Y-47269896D01*
X105007816Y-47144949D01*
X104818412Y-47048443D01*
X104616243Y-46982754D01*
X104406287Y-46949500D01*
X104193713Y-46949500D01*
X104018749Y-46977211D01*
X103983756Y-46982754D01*
X103900715Y-47009736D01*
X103781588Y-47048443D01*
X103781582Y-47048445D01*
X103781582Y-47048446D01*
X103592182Y-47144950D01*
X103592181Y-47144950D01*
X103420209Y-47269895D01*
X103420206Y-47269897D01*
X103269897Y-47420206D01*
X103269895Y-47420209D01*
X103144950Y-47592181D01*
X103144950Y-47592182D01*
X103144949Y-47592184D01*
X103048443Y-47781588D01*
X102982754Y-47983757D01*
X102949500Y-48193713D01*
X88700500Y-48193713D01*
X88700500Y-46161157D01*
X89759500Y-46161157D01*
X89759500Y-46318842D01*
X89790262Y-46473494D01*
X89790263Y-46473498D01*
X89850604Y-46619176D01*
X89850605Y-46619178D01*
X89850606Y-46619179D01*
X89938211Y-46750289D01*
X90049711Y-46861789D01*
X90180821Y-46949394D01*
X90180822Y-46949394D01*
X90180823Y-46949395D01*
X90253662Y-46979565D01*
X90326503Y-47009737D01*
X90481158Y-47040500D01*
X90638842Y-47040500D01*
X90793497Y-47009737D01*
X90939179Y-46949394D01*
X91070289Y-46861789D01*
X91181789Y-46750289D01*
X91269394Y-46619179D01*
X91329737Y-46473497D01*
X91360500Y-46318842D01*
X91360500Y-46161158D01*
X91329737Y-46006503D01*
X91269394Y-45860821D01*
X91181789Y-45729711D01*
X91070289Y-45618211D01*
X90939179Y-45530606D01*
X90939178Y-45530605D01*
X90939176Y-45530604D01*
X90793498Y-45470263D01*
X90793494Y-45470262D01*
X90638842Y-45439500D01*
X90481158Y-45439500D01*
X90326505Y-45470262D01*
X90326501Y-45470263D01*
X90180823Y-45530604D01*
X90093012Y-45589278D01*
X90076218Y-45600500D01*
X90049707Y-45618214D01*
X89938214Y-45729707D01*
X89850604Y-45860823D01*
X89790263Y-46006501D01*
X89790262Y-46006505D01*
X89759500Y-46161157D01*
X88700500Y-46161157D01*
X88700500Y-43621157D01*
X89759500Y-43621157D01*
X89759500Y-43778842D01*
X89790262Y-43933494D01*
X89790263Y-43933498D01*
X89850604Y-44079176D01*
X89850605Y-44079178D01*
X89850606Y-44079179D01*
X89938211Y-44210289D01*
X90049711Y-44321789D01*
X90180821Y-44409394D01*
X90326503Y-44469737D01*
X90481158Y-44500500D01*
X90638842Y-44500500D01*
X90793497Y-44469737D01*
X90939179Y-44409394D01*
X91070289Y-44321789D01*
X91181789Y-44210289D01*
X91269394Y-44079179D01*
X91329737Y-43933497D01*
X91360500Y-43778842D01*
X91360500Y-43621158D01*
X91357646Y-43606812D01*
X91350245Y-43569606D01*
X91329737Y-43466503D01*
X91269394Y-43320821D01*
X91181789Y-43189711D01*
X91070289Y-43078211D01*
X90939179Y-42990606D01*
X90939178Y-42990605D01*
X90939176Y-42990604D01*
X90793499Y-42930263D01*
X90793494Y-42930262D01*
X90638842Y-42899500D01*
X90481158Y-42899500D01*
X90326505Y-42930262D01*
X90326501Y-42930263D01*
X90180823Y-42990604D01*
X90049707Y-43078214D01*
X89938214Y-43189707D01*
X89850604Y-43320823D01*
X89790263Y-43466501D01*
X89790262Y-43466505D01*
X89759500Y-43621157D01*
X88700500Y-43621157D01*
X88700500Y-42795723D01*
X91799500Y-42795723D01*
X91799500Y-44604264D01*
X91799501Y-44604283D01*
X91802353Y-44634698D01*
X91802354Y-44634700D01*
X91846351Y-44760438D01*
X91847208Y-44762885D01*
X91914517Y-44854085D01*
X91927850Y-44872150D01*
X91927853Y-44872152D01*
X92037115Y-44952792D01*
X92037116Y-44952792D01*
X92037117Y-44952793D01*
X92165300Y-44997646D01*
X92195733Y-45000500D01*
X94004266Y-45000499D01*
X94004268Y-45000498D01*
X94004283Y-45000498D01*
X94027397Y-44998330D01*
X94034700Y-44997646D01*
X94162883Y-44952793D01*
X94272150Y-44872150D01*
X94352793Y-44762883D01*
X94397646Y-44634700D01*
X94400500Y-44604267D01*
X94400499Y-42795734D01*
X94400498Y-42795723D01*
X94400498Y-42795716D01*
X94397646Y-42765301D01*
X94397646Y-42765300D01*
X94352793Y-42637117D01*
X94272150Y-42527850D01*
X94272146Y-42527847D01*
X94162884Y-42447207D01*
X94103043Y-42426268D01*
X94034700Y-42402354D01*
X94034698Y-42402353D01*
X94034696Y-42402353D01*
X94004268Y-42399500D01*
X92195735Y-42399500D01*
X92195716Y-42399501D01*
X92165301Y-42402353D01*
X92165299Y-42402354D01*
X92037114Y-42447208D01*
X91927853Y-42527847D01*
X91927847Y-42527853D01*
X91847207Y-42637115D01*
X91802353Y-42765303D01*
X91799500Y-42795723D01*
X88700500Y-42795723D01*
X88700500Y-26349500D01*
X88720462Y-26275000D01*
X88775000Y-26220462D01*
X88849500Y-26200500D01*
X103332424Y-26200500D01*
X103406924Y-26220462D01*
G37*
%TD.AperFunction*%
%TD*%
M02*
