M48
; DRILL file {KiCad 9.0.1} date 2026-09-25T23:59:16+0300
; FORMAT={-:-/ absolute / metric / decimal}
; #@! TF.CreationDate,2026-09-25T23:59:16+03:00
; #@! TF.GenerationSoftware,Kicad,Pcbnew,9.0.1
; #@! TF.FileFunction,Plated,1,2,PTH
FMAT,2
METRIC
; #@! TA.AperFunction,Plated,PTH,ComponentDrill
T1C0.200
; #@! TA.AperFunction,Plated,PTH,ViaDrill
T2C0.300
; #@! TA.AperFunction,Plated,PTH,ComponentDrill
T3C0.610
; #@! TA.AperFunction,Plated,PTH,ComponentDrill
T4C1.000
; #@! TA.AperFunction,Plated,PTH,ComponentDrill
T5C1.100
; #@! TA.AperFunction,Plated,PTH,ComponentDrill
T6C1.500
%
G90
G05
T1
X113.55Y-67.06
X113.55Y-68.16
X114.1Y-66.51
X114.1Y-67.61
X114.1Y-68.71
X114.65Y-67.06
X114.65Y-68.16
X115.2Y-66.51
X115.2Y-67.61
X115.2Y-68.71
X115.75Y-67.06
X115.75Y-68.16
T2
X93.1Y-48.6
X93.8Y-77.3
X98.3Y-71.5
X99.4Y-64.1
X102.238Y-58.562
X102.8Y-66.4
X102.8Y-68.6
X104.2Y-82.5
X104.3Y-94.1
X105.4Y-57.4
X106.4Y-76.7
X107.8Y-94.0
X108.706Y-76.734
X108.8Y-56.4
X110.4Y-61.0
X110.995Y-81.01
X111.1Y-48.0
X111.1Y-50.7
X112.095Y-81.01
X113.4Y-59.4
X114.295Y-81.01
X114.6Y-55.7
X114.9Y-59.4
X115.1Y-52.0
X115.4Y-83.6
X115.7Y-49.0
X116.3Y-77.0
X116.7Y-36.2
X116.7Y-37.4
X116.7Y-38.7
X116.7Y-40.0
X116.7Y-41.3
X117.0Y-52.5
X117.1Y-49.7
X117.4Y-84.7
X117.6Y-83.6
X117.6Y-94.0
X119.0Y-47.2
X119.0Y-48.6
X119.0Y-52.0
X119.5Y-55.7
X120.0Y-43.8
X120.0Y-45.1
X123.1Y-50.0
X128.9Y-84.7
X129.3Y-36.1
X129.3Y-37.4
X129.3Y-38.8
X129.3Y-40.0
T4
X104.3Y-27.5
X104.3Y-48.3
X107.4Y-27.5
X107.4Y-48.3
T5
X91.85Y-91.05
X91.85Y-95.55
X92.1Y-81.6
X92.1Y-86.1
X93.1Y-43.7
X93.1Y-46.24
X98.35Y-91.05
X98.35Y-95.55
X98.6Y-81.6
X98.6Y-86.1
T6
X93.2Y-52.6
X93.2Y-57.3
X93.2Y-62.0
T3
G00X91.67Y-66.79
M15
G01X92.457Y-66.79
M16
G05
G00X91.67Y-75.43
M15
G01X92.457Y-75.43
M16
G05
G00X95.667Y-66.79
M15
G01X96.76Y-66.79
M16
G05
G00X95.667Y-75.43
M15
G01X96.76Y-75.43
M16
G05
M30
